%TF.GenerationSoftware,KiCad,Pcbnew,7.0.5-0*%
%TF.CreationDate,2023-06-24T13:37:05+02:00*%
%TF.ProjectId,spoje_pcb,73706f6a-655f-4706-9362-2e6b69636164,rev?*%
%TF.SameCoordinates,Original*%
%TF.FileFunction,Copper,L2,Bot*%
%TF.FilePolarity,Positive*%
%FSLAX46Y46*%
G04 Gerber Fmt 4.6, Leading zero omitted, Abs format (unit mm)*
G04 Created by KiCad (PCBNEW 7.0.5-0) date 2023-06-24 13:37:05*
%MOMM*%
%LPD*%
G01*
G04 APERTURE LIST*
G04 Aperture macros list*
%AMRoundRect*
0 Rectangle with rounded corners*
0 $1 Rounding radius*
0 $2 $3 $4 $5 $6 $7 $8 $9 X,Y pos of 4 corners*
0 Add a 4 corners polygon primitive as box body*
4,1,4,$2,$3,$4,$5,$6,$7,$8,$9,$2,$3,0*
0 Add four circle primitives for the rounded corners*
1,1,$1+$1,$2,$3*
1,1,$1+$1,$4,$5*
1,1,$1+$1,$6,$7*
1,1,$1+$1,$8,$9*
0 Add four rect primitives between the rounded corners*
20,1,$1+$1,$2,$3,$4,$5,0*
20,1,$1+$1,$4,$5,$6,$7,0*
20,1,$1+$1,$6,$7,$8,$9,0*
20,1,$1+$1,$8,$9,$2,$3,0*%
G04 Aperture macros list end*
%TA.AperFunction,ComponentPad*%
%ADD10C,1.600000*%
%TD*%
%TA.AperFunction,ComponentPad*%
%ADD11O,1.600000X1.600000*%
%TD*%
%TA.AperFunction,ComponentPad*%
%ADD12C,2.400000*%
%TD*%
%TA.AperFunction,ComponentPad*%
%ADD13O,2.400000X2.400000*%
%TD*%
%TA.AperFunction,ComponentPad*%
%ADD14C,2.800000*%
%TD*%
%TA.AperFunction,ComponentPad*%
%ADD15O,2.800000X2.800000*%
%TD*%
%TA.AperFunction,ComponentPad*%
%ADD16RoundRect,0.250000X0.750000X-0.600000X0.750000X0.600000X-0.750000X0.600000X-0.750000X-0.600000X0*%
%TD*%
%TA.AperFunction,ComponentPad*%
%ADD17O,2.000000X1.700000*%
%TD*%
%TA.AperFunction,ComponentPad*%
%ADD18R,1.700000X1.700000*%
%TD*%
%TA.AperFunction,ComponentPad*%
%ADD19O,1.700000X1.700000*%
%TD*%
%TA.AperFunction,ComponentPad*%
%ADD20RoundRect,0.250000X-0.750000X0.600000X-0.750000X-0.600000X0.750000X-0.600000X0.750000X0.600000X0*%
%TD*%
%TA.AperFunction,ComponentPad*%
%ADD21R,1.600000X1.600000*%
%TD*%
%TA.AperFunction,ComponentPad*%
%ADD22O,1.905000X2.000000*%
%TD*%
%TA.AperFunction,ComponentPad*%
%ADD23R,1.905000X2.000000*%
%TD*%
%TA.AperFunction,ComponentPad*%
%ADD24R,2.200000X2.200000*%
%TD*%
%TA.AperFunction,ComponentPad*%
%ADD25O,2.200000X2.200000*%
%TD*%
%TA.AperFunction,ViaPad*%
%ADD26C,1.000000*%
%TD*%
%TA.AperFunction,ViaPad*%
%ADD27C,0.600000*%
%TD*%
%TA.AperFunction,Conductor*%
%ADD28C,0.500000*%
%TD*%
%TA.AperFunction,Conductor*%
%ADD29C,0.250000*%
%TD*%
G04 APERTURE END LIST*
D10*
%TO.P,R12,1*%
%TO.N,Net-(J11-Pin_1)*%
X137160000Y-54610000D03*
D11*
%TO.P,R12,2*%
%TO.N,+5V*%
X127000000Y-54610000D03*
%TD*%
D10*
%TO.P,R11,1*%
%TO.N,Net-(J1-Pin_1)*%
X110490000Y-63195000D03*
D11*
%TO.P,R11,2*%
%TO.N,+24V*%
X120650000Y-63195000D03*
%TD*%
D10*
%TO.P,R10,1*%
%TO.N,Net-(R10-Pad1)*%
X124460000Y-83820000D03*
D11*
%TO.P,R10,2*%
%TO.N,+24V*%
X124460000Y-73660000D03*
%TD*%
D12*
%TO.P,R9,1*%
%TO.N,Net-(R8-Pad2)*%
X120650000Y-83515000D03*
D13*
%TO.P,R9,2*%
%TO.N,+24V*%
X120650000Y-68275000D03*
%TD*%
D10*
%TO.P,R7,1*%
%TO.N,Net-(D2-K)*%
X115255765Y-80975000D03*
D11*
%TO.P,R7,2*%
%TO.N,Net-(Q2-D)*%
X115255765Y-70815000D03*
%TD*%
D10*
%TO.P,R5,1*%
%TO.N,Net-(R5-Pad1)*%
X148590000Y-83820000D03*
D11*
%TO.P,R5,2*%
%TO.N,+24V*%
X148590000Y-73660000D03*
%TD*%
D10*
%TO.P,R4,1*%
%TO.N,Net-(D1-K)*%
X140970000Y-80910000D03*
D11*
%TO.P,R4,2*%
%TO.N,Net-(Q1-D)*%
X140970000Y-70750000D03*
%TD*%
D12*
%TO.P,R2,1*%
%TO.N,Net-(R1-Pad2)*%
X144780000Y-83820000D03*
D13*
%TO.P,R2,2*%
%TO.N,+24V*%
X144780000Y-68580000D03*
%TD*%
D14*
%TO.P,R8,1*%
%TO.N,Net-(D2-A)*%
X102870000Y-87469235D03*
D15*
%TO.P,R8,2*%
%TO.N,Net-(R8-Pad2)*%
X102870000Y-107789235D03*
%TD*%
D14*
%TO.P,R1,1*%
%TO.N,Net-(D1-A)*%
X128270000Y-87630000D03*
D15*
%TO.P,R1,2*%
%TO.N,Net-(R1-Pad2)*%
X128270000Y-107950000D03*
%TD*%
D16*
%TO.P,J12,1,Pin_1*%
%TO.N,+24V*%
X118110000Y-58115000D03*
D17*
%TO.P,J12,2,Pin_2*%
%TO.N,GND*%
X118110000Y-55615000D03*
%TD*%
D18*
%TO.P,J3,1,Pin_1*%
%TO.N,/NEOPIXEL_DATA*%
X153670000Y-97790000D03*
D19*
%TO.P,J3,2,Pin_2*%
%TO.N,+5V*%
X153670000Y-95250000D03*
%TO.P,J3,3,Pin_3*%
%TO.N,GND*%
X153670000Y-92710000D03*
%TD*%
%TO.P,J11,2,Pin_2*%
%TO.N,GND*%
X137160000Y-60960000D03*
D18*
%TO.P,J11,1,Pin_1*%
%TO.N,Net-(J11-Pin_1)*%
X137160000Y-58420000D03*
%TD*%
D16*
%TO.P,J10,1,Pin_1*%
%TO.N,Net-(D2-K)*%
X102870000Y-81915000D03*
D17*
%TO.P,J10,2,Pin_2*%
%TO.N,GND*%
X102870000Y-79415000D03*
%TD*%
D18*
%TO.P,J9,1,Pin_1*%
%TO.N,GND*%
X181610000Y-68675000D03*
D19*
%TO.P,J9,2,Pin_2*%
%TO.N,/BUTTON_RESET*%
X181610000Y-66135000D03*
%TD*%
D16*
%TO.P,J8,1,Pin_1*%
%TO.N,Net-(D1-K)*%
X129540000Y-81280000D03*
D17*
%TO.P,J8,2,Pin_2*%
%TO.N,GND*%
X129540000Y-78780000D03*
%TD*%
D18*
%TO.P,J7,1,Pin_1*%
%TO.N,GND*%
X181610000Y-78105000D03*
D19*
%TO.P,J7,2,Pin_2*%
%TO.N,/BUTTON_RING_B*%
X181610000Y-75565000D03*
%TD*%
D18*
%TO.P,J6,1,Pin_1*%
%TO.N,GND*%
X181610000Y-88265000D03*
D19*
%TO.P,J6,2,Pin_2*%
%TO.N,/BUTTON_RING_A*%
X181610000Y-85725000D03*
%TD*%
%TO.P,J5,4,Pin_4*%
%TO.N,+5V*%
X181650000Y-101695000D03*
%TO.P,J5,3,Pin_3*%
%TO.N,GND*%
X181650000Y-99155000D03*
%TO.P,J5,2,Pin_2*%
%TO.N,/I2C_SDA*%
X181650000Y-96615000D03*
D18*
%TO.P,J5,1,Pin_1*%
%TO.N,/I2C_SCL*%
X181650000Y-94075000D03*
%TD*%
%TO.P,J4,1,Pin_1*%
%TO.N,GND*%
X152400000Y-72395000D03*
D19*
%TO.P,J4,2,Pin_2*%
%TO.N,/RING_SIGNAL_A*%
X152400000Y-74935000D03*
%TO.P,J4,3,Pin_3*%
%TO.N,/RING_SIGNAL_B*%
X152400000Y-77475000D03*
%TO.P,J4,4,Pin_4*%
%TO.N,/BUS_SIGNAL*%
X152400000Y-80015000D03*
%TO.P,J4,5,Pin_5*%
%TO.N,+5V*%
X152400000Y-82555000D03*
%TD*%
D20*
%TO.P,J2,1,Pin_1*%
%TO.N,+5V*%
X129540000Y-59690000D03*
D17*
%TO.P,J2,2,Pin_2*%
%TO.N,GND*%
X129540000Y-62190000D03*
%TD*%
D19*
%TO.P,J1,2,Pin_2*%
%TO.N,GND*%
X110490000Y-56845000D03*
D18*
%TO.P,J1,1,Pin_1*%
%TO.N,Net-(J1-Pin_1)*%
X110490000Y-59385000D03*
%TD*%
D10*
%TO.P,C2,2*%
%TO.N,GND*%
X171450000Y-57150000D03*
%TO.P,C2,1*%
%TO.N,+5V*%
X171450000Y-59650000D03*
%TD*%
%TO.P,C1,2*%
%TO.N,GND*%
X160020000Y-57150000D03*
%TO.P,C1,1*%
%TO.N,+5V*%
X160020000Y-59650000D03*
%TD*%
D11*
%TO.P,U2,4*%
%TO.N,/HOOK_B*%
X115570000Y-105115000D03*
%TO.P,U2,3*%
%TO.N,GND*%
X113030000Y-105115000D03*
%TO.P,U2,2*%
%TO.N,Net-(R8-Pad2)*%
X113030000Y-97495000D03*
D21*
%TO.P,U2,1*%
%TO.N,Net-(R10-Pad1)*%
X115570000Y-97495000D03*
%TD*%
D22*
%TO.P,Q2,3,S*%
%TO.N,GND*%
X105410000Y-70815000D03*
%TO.P,Q2,2,D*%
%TO.N,Net-(Q2-D)*%
X107950000Y-70815000D03*
D23*
%TO.P,Q2,1,G*%
%TO.N,/MELODY_B*%
X110490000Y-70815000D03*
%TD*%
D24*
%TO.P,D2,1,K*%
%TO.N,Net-(D2-K)*%
X120650000Y-89865000D03*
D25*
%TO.P,D2,2,A*%
%TO.N,Net-(D2-A)*%
X110490000Y-89865000D03*
%TD*%
%TO.P,D1,2,A*%
%TO.N,Net-(D1-A)*%
X134620000Y-91440000D03*
D24*
%TO.P,D1,1,K*%
%TO.N,Net-(D1-K)*%
X144780000Y-91440000D03*
%TD*%
D21*
%TO.P,U1,1*%
%TO.N,Net-(R5-Pad1)*%
X140970000Y-100330000D03*
D11*
%TO.P,U1,2*%
%TO.N,Net-(R1-Pad2)*%
X138430000Y-100330000D03*
%TO.P,U1,3*%
%TO.N,GND*%
X138430000Y-107950000D03*
%TO.P,U1,4*%
%TO.N,/HOOK_A*%
X140970000Y-107950000D03*
%TD*%
D22*
%TO.P,Q1,3,S*%
%TO.N,GND*%
X130810000Y-70750000D03*
%TO.P,Q1,2,D*%
%TO.N,Net-(Q1-D)*%
X133350000Y-70750000D03*
D23*
%TO.P,Q1,1,G*%
%TO.N,/MELODY_A*%
X135890000Y-70750000D03*
%TD*%
D21*
%TO.P,A1,1,TX1*%
%TO.N,unconnected-(A1-TX1-Pad1)*%
X160020000Y-68580000D03*
D11*
%TO.P,A1,2,RX1*%
%TO.N,unconnected-(A1-RX1-Pad2)*%
X160020000Y-71120000D03*
%TO.P,A1,3,~{RESET}*%
%TO.N,unconnected-(A1-~{RESET}-Pad3)*%
X160020000Y-73660000D03*
%TO.P,A1,4,GND*%
%TO.N,GND*%
X160020000Y-76200000D03*
%TO.P,A1,5,D2*%
%TO.N,/RING_SIGNAL_A*%
X160020000Y-78740000D03*
%TO.P,A1,6,D3*%
%TO.N,/RING_SIGNAL_B*%
X160020000Y-81280000D03*
%TO.P,A1,7,D4*%
%TO.N,/BUS_SIGNAL*%
X160020000Y-83820000D03*
%TO.P,A1,8,D5*%
%TO.N,/MELODY_A*%
X160020000Y-86360000D03*
%TO.P,A1,9,D6*%
%TO.N,/MELODY_B*%
X160020000Y-88900000D03*
%TO.P,A1,10,D7*%
%TO.N,unconnected-(A1-D7-Pad10)*%
X160020000Y-91440000D03*
%TO.P,A1,11,D8*%
%TO.N,unconnected-(A1-D8-Pad11)*%
X160020000Y-93980000D03*
%TO.P,A1,12,D9*%
%TO.N,/NEOPIXEL_DATA*%
X160020000Y-96520000D03*
%TO.P,A1,13,D10*%
%TO.N,unconnected-(A1-D10-Pad13)*%
X160020000Y-99060000D03*
%TO.P,A1,14,MOSI*%
%TO.N,unconnected-(A1-MOSI-Pad14)*%
X160020000Y-101600000D03*
%TO.P,A1,15,MISO*%
%TO.N,unconnected-(A1-MISO-Pad15)*%
X160020000Y-104140000D03*
%TO.P,A1,16,SCK*%
%TO.N,unconnected-(A1-SCK-Pad16)*%
X175260000Y-104140000D03*
%TO.P,A1,17,3V3*%
%TO.N,unconnected-(A1-3V3-Pad17)*%
X175260000Y-101600000D03*
%TO.P,A1,18,AREF*%
%TO.N,unconnected-(A1-AREF-Pad18)*%
X175260000Y-99060000D03*
%TO.P,A1,19,A0*%
%TO.N,/HOOK_B*%
X175260000Y-96520000D03*
%TO.P,A1,20,A1*%
%TO.N,/HOOK_A*%
X175260000Y-93980000D03*
%TO.P,A1,21,A2*%
%TO.N,unconnected-(A1-A2-Pad21)*%
X175260000Y-91440000D03*
%TO.P,A1,22,A3*%
%TO.N,unconnected-(A1-A3-Pad22)*%
X175260000Y-88900000D03*
%TO.P,A1,23,SDA/A4*%
%TO.N,/I2C_SDA*%
X175260000Y-86360000D03*
%TO.P,A1,24,SCL/A5*%
%TO.N,/I2C_SCL*%
X175260000Y-83820000D03*
%TO.P,A1,25,A6*%
%TO.N,/BUTTON_RING_A*%
X175260000Y-81280000D03*
%TO.P,A1,26,A7*%
%TO.N,/BUTTON_RING_B*%
X175260000Y-78740000D03*
%TO.P,A1,27,+5V*%
%TO.N,+5V*%
X175260000Y-76200000D03*
%TO.P,A1,28,~{RESET}*%
%TO.N,/BUTTON_RESET*%
X175260000Y-73660000D03*
%TO.P,A1,29,GND*%
%TO.N,GND*%
X175260000Y-71120000D03*
%TO.P,A1,30,VIN*%
%TO.N,unconnected-(A1-VIN-Pad30)*%
X175260000Y-68580000D03*
%TD*%
D26*
%TO.N,/MELODY_B*%
X156210000Y-88900000D03*
%TO.N,/MELODY_A*%
X156210000Y-86360000D03*
X137160000Y-77470000D03*
D27*
%TO.N,/MELODY_B*%
X110490000Y-77470000D03*
%TD*%
D28*
%TO.N,/MELODY_B*%
X160020000Y-88900000D02*
X156210000Y-88900000D01*
%TO.N,/MELODY_A*%
X160020000Y-86360000D02*
X156210000Y-86360000D01*
X137160000Y-77470000D02*
X135890000Y-76200000D01*
X135890000Y-76200000D02*
X135890000Y-70750000D01*
%TO.N,/MELODY_B*%
X110490000Y-70815000D02*
X110490000Y-77470000D01*
D29*
%TO.N,GND*%
X138430000Y-107950000D02*
X153670000Y-92710000D01*
X138430000Y-107950000D02*
X136705000Y-109675000D01*
X136705000Y-109675000D02*
X122375000Y-109675000D01*
X122375000Y-109675000D02*
X116690000Y-103990000D01*
X116690000Y-103990000D02*
X114155000Y-103990000D01*
X114155000Y-103990000D02*
X113030000Y-105115000D01*
%TO.N,/HOOK_B*%
X115570000Y-105115000D02*
X122215000Y-111760000D01*
X122215000Y-111760000D02*
X160020000Y-111760000D01*
X160020000Y-111760000D02*
X175260000Y-96520000D01*
%TO.N,+5V*%
X161250000Y-59650000D02*
X160020000Y-59650000D01*
X161290000Y-59690000D02*
X161250000Y-59650000D01*
%TO.N,GND*%
X118110000Y-55615000D02*
X120240000Y-53485000D01*
X120240000Y-53485000D02*
X156355000Y-53485000D01*
X156355000Y-53485000D02*
X160020000Y-57150000D01*
X133350000Y-78780000D02*
X130770000Y-78780000D01*
X130770000Y-78780000D02*
X126775000Y-74785000D01*
X130810000Y-70750000D02*
X126775000Y-74785000D01*
X126775000Y-74785000D02*
X120816756Y-74785000D01*
X105410000Y-66040000D02*
X105410000Y-70815000D01*
X120816756Y-74785000D02*
X112071756Y-66040000D01*
X112071756Y-66040000D02*
X105410000Y-66040000D01*
X118110000Y-55615000D02*
X111720000Y-55615000D01*
X111720000Y-55615000D02*
X110490000Y-56845000D01*
X129540000Y-62190000D02*
X124685000Y-62190000D01*
X124685000Y-62190000D02*
X118110000Y-55615000D01*
X152400000Y-72395000D02*
X140965000Y-60960000D01*
X140965000Y-60960000D02*
X137160000Y-60960000D01*
%TO.N,/HOOK_A*%
X140970000Y-107950000D02*
X144780000Y-107950000D01*
X166370000Y-102870000D02*
X175260000Y-93980000D01*
X144780000Y-107950000D02*
X149860000Y-102870000D01*
X149860000Y-102870000D02*
X166370000Y-102870000D01*
%TO.N,+24V*%
X144780000Y-68580000D02*
X120955000Y-68580000D01*
X144780000Y-68580000D02*
X148590000Y-72390000D01*
X148590000Y-72390000D02*
X148590000Y-73660000D01*
X120650000Y-68275000D02*
X124460000Y-72085000D01*
X124460000Y-72085000D02*
X124460000Y-73660000D01*
%TO.N,Net-(R10-Pad1)*%
X115570000Y-97495000D02*
X116620000Y-97495000D01*
X116620000Y-97495000D02*
X124460000Y-89655000D01*
X124460000Y-89655000D02*
X124460000Y-83820000D01*
%TO.N,Net-(R5-Pad1)*%
X140970000Y-100330000D02*
X148590000Y-92710000D01*
X148590000Y-92710000D02*
X148590000Y-83820000D01*
%TO.N,Net-(D1-K)*%
X144780000Y-91440000D02*
X140970000Y-87630000D01*
X140970000Y-87630000D02*
X140970000Y-80910000D01*
%TO.N,/NEOPIXEL_DATA*%
X153670000Y-97790000D02*
X158750000Y-97790000D01*
X158750000Y-97790000D02*
X160020000Y-96520000D01*
%TO.N,+5V*%
X172720000Y-90490991D02*
X172720000Y-90170000D01*
X153670000Y-95250000D02*
X167640000Y-95250000D01*
X172720000Y-90170000D02*
X172720000Y-78740000D01*
X167640000Y-95250000D02*
X172720000Y-90170000D01*
%TO.N,GND*%
X105635765Y-79415000D02*
X101145000Y-83905765D01*
X102155481Y-109514235D02*
X108630765Y-109514235D01*
X101145000Y-83905765D02*
X101145000Y-108503754D01*
X101145000Y-108503754D02*
X102155481Y-109514235D01*
X108630765Y-109514235D02*
X113030000Y-105115000D01*
X105410000Y-61925000D02*
X110490000Y-56845000D01*
X105410000Y-61925000D02*
X105410000Y-70815000D01*
%TO.N,+5V*%
X129580000Y-59650000D02*
X160020000Y-59650000D01*
%TO.N,Net-(R1-Pad2)*%
X146050000Y-83820000D02*
X147250000Y-85020000D01*
X147250000Y-91820000D02*
X138740000Y-100330000D01*
X147250000Y-85020000D02*
X147250000Y-91820000D01*
%TO.N,Net-(R8-Pad2)*%
X120650000Y-83515000D02*
X122075000Y-84940000D01*
X122075000Y-84940000D02*
X122075000Y-91290000D01*
X122075000Y-91290000D02*
X119235000Y-91290000D01*
X119235000Y-91290000D02*
X113030000Y-97495000D01*
%TO.N,Net-(D2-K)*%
X120650000Y-89865000D02*
X120650000Y-86369235D01*
X120650000Y-86369235D02*
X115255765Y-80975000D01*
%TO.N,Net-(D1-A)*%
X128270000Y-87630000D02*
X130810000Y-87630000D01*
X130810000Y-87630000D02*
X134620000Y-91440000D01*
%TO.N,Net-(D2-A)*%
X102870000Y-87469235D02*
X108094235Y-87469235D01*
X108094235Y-87469235D02*
X110490000Y-89865000D01*
%TO.N,Net-(R8-Pad2)*%
X102870000Y-107789235D02*
X113030000Y-97629235D01*
%TO.N,+24V*%
X120650000Y-63195000D02*
X120650000Y-68275000D01*
%TO.N,GND*%
X129540000Y-62190000D02*
X135930000Y-62190000D01*
X135930000Y-62190000D02*
X137160000Y-60960000D01*
%TO.N,+24V*%
X118110000Y-58115000D02*
X120650000Y-60655000D01*
X120650000Y-60655000D02*
X120650000Y-63195000D01*
%TO.N,+5V*%
X129540000Y-59690000D02*
X127000000Y-57150000D01*
X127000000Y-57150000D02*
X127000000Y-54610000D01*
%TO.N,Net-(J11-Pin_1)*%
X137160000Y-58420000D02*
X137160000Y-54610000D01*
%TO.N,Net-(R1-Pad2)*%
X128270000Y-107950000D02*
X130810000Y-107950000D01*
X130810000Y-107950000D02*
X138430000Y-100330000D01*
%TO.N,Net-(D1-K)*%
X134250000Y-80910000D02*
X140970000Y-80910000D01*
%TO.N,Net-(Q1-D)*%
X140970000Y-70750000D02*
X139645000Y-69425000D01*
X139645000Y-69425000D02*
X134675000Y-69425000D01*
X134675000Y-69425000D02*
X133350000Y-70750000D01*
%TO.N,GND*%
X105635765Y-79415000D02*
X105635765Y-71040765D01*
%TO.N,Net-(D2-K)*%
X115255765Y-80975000D02*
X114315765Y-81915000D01*
X114315765Y-81915000D02*
X105635765Y-81915000D01*
%TO.N,GND*%
X152400000Y-72395000D02*
X156215000Y-72395000D01*
X156215000Y-72395000D02*
X160020000Y-76200000D01*
%TO.N,/BUS_SIGNAL*%
X152400000Y-80015000D02*
X156215000Y-80015000D01*
X156215000Y-80015000D02*
X160020000Y-83820000D01*
%TO.N,/RING_SIGNAL_B*%
X152400000Y-77475000D02*
X156215000Y-77475000D01*
X156215000Y-77475000D02*
X160020000Y-81280000D01*
%TO.N,/RING_SIGNAL_A*%
X152400000Y-74935000D02*
X156215000Y-74935000D01*
X156215000Y-74935000D02*
X160020000Y-78740000D01*
%TO.N,Net-(J1-Pin_1)*%
X110490000Y-63195000D02*
X110490000Y-59385000D01*
%TO.N,+5V*%
X172720000Y-78740000D02*
X175260000Y-76200000D01*
X181650000Y-101695000D02*
X176385000Y-96430000D01*
X176385000Y-96430000D02*
X176385000Y-93514009D01*
X176385000Y-93514009D02*
X175580991Y-92710000D01*
X175580991Y-92710000D02*
X174939009Y-92710000D01*
X174939009Y-92710000D02*
X172720000Y-90490991D01*
%TO.N,GND*%
X160020000Y-57150000D02*
X171450000Y-57150000D01*
%TO.N,/I2C_SDA*%
X181650000Y-96615000D02*
X179070000Y-94035000D01*
X179070000Y-94035000D02*
X179070000Y-90170000D01*
X179070000Y-90170000D02*
X175260000Y-86360000D01*
%TO.N,/I2C_SCL*%
X181650000Y-94075000D02*
X181650000Y-91159009D01*
X181650000Y-91159009D02*
X175260000Y-84769009D01*
X175260000Y-84769009D02*
X175260000Y-83820000D01*
%TO.N,/BUTTON_RING_A*%
X181610000Y-85725000D02*
X177165000Y-81280000D01*
X177165000Y-81280000D02*
X175260000Y-81280000D01*
%TO.N,/BUTTON_RING_B*%
X175260000Y-78740000D02*
X178435000Y-78740000D01*
X178435000Y-78740000D02*
X181610000Y-75565000D01*
%TO.N,GND*%
X175260000Y-57150000D02*
X177800000Y-59690000D01*
X177800000Y-59690000D02*
X182880000Y-64770000D01*
X175260000Y-71120000D02*
X177800000Y-68580000D01*
X177800000Y-68580000D02*
X177800000Y-59690000D01*
%TO.N,+5V*%
X175260000Y-76200000D02*
X171450000Y-72390000D01*
X171450000Y-72390000D02*
X171450000Y-59650000D01*
%TO.N,/BUTTON_RESET*%
X181610000Y-66135000D02*
X176385000Y-71360000D01*
X176385000Y-71360000D02*
X176385000Y-72535000D01*
X176385000Y-72535000D02*
X175260000Y-73660000D01*
%TO.N,GND*%
X171450000Y-57150000D02*
X175260000Y-57150000D01*
X182880000Y-64770000D02*
X182880000Y-67405000D01*
X182880000Y-67405000D02*
X181610000Y-68675000D01*
X181610000Y-68675000D02*
X182785000Y-67500000D01*
X182785000Y-67500000D02*
X182785000Y-64770000D01*
X181610000Y-88265000D02*
X182825000Y-89480000D01*
X182825000Y-89480000D02*
X182825000Y-97980000D01*
X182825000Y-97980000D02*
X181650000Y-99155000D01*
X181610000Y-78105000D02*
X182785000Y-79280000D01*
X182785000Y-87090000D02*
X181610000Y-88265000D01*
X182785000Y-79280000D02*
X182785000Y-87090000D01*
X181610000Y-68675000D02*
X182785000Y-69850000D01*
X182785000Y-69850000D02*
X182785000Y-76930000D01*
X182785000Y-76930000D02*
X181610000Y-78105000D01*
%TO.N,+5V*%
X160020000Y-59650000D02*
X171450000Y-59650000D01*
%TD*%
M02*
