%TF.GenerationSoftware,KiCad,Pcbnew,7.0.5-0*%
%TF.CreationDate,2023-06-24T13:37:05+02:00*%
%TF.ProjectId,spoje_pcb,73706f6a-655f-4706-9362-2e6b69636164,rev?*%
%TF.SameCoordinates,Original*%
%TF.FileFunction,Legend,Top*%
%TF.FilePolarity,Positive*%
%FSLAX46Y46*%
G04 Gerber Fmt 4.6, Leading zero omitted, Abs format (unit mm)*
G04 Created by KiCad (PCBNEW 7.0.5-0) date 2023-06-24 13:37:05*
%MOMM*%
%LPD*%
G01*
G04 APERTURE LIST*
%ADD10C,0.150000*%
%ADD11C,0.120000*%
G04 APERTURE END LIST*
D10*
%TO.C,R12*%
X131437142Y-57434819D02*
X131103809Y-56958628D01*
X130865714Y-57434819D02*
X130865714Y-56434819D01*
X130865714Y-56434819D02*
X131246666Y-56434819D01*
X131246666Y-56434819D02*
X131341904Y-56482438D01*
X131341904Y-56482438D02*
X131389523Y-56530057D01*
X131389523Y-56530057D02*
X131437142Y-56625295D01*
X131437142Y-56625295D02*
X131437142Y-56768152D01*
X131437142Y-56768152D02*
X131389523Y-56863390D01*
X131389523Y-56863390D02*
X131341904Y-56911009D01*
X131341904Y-56911009D02*
X131246666Y-56958628D01*
X131246666Y-56958628D02*
X130865714Y-56958628D01*
X132389523Y-57434819D02*
X131818095Y-57434819D01*
X132103809Y-57434819D02*
X132103809Y-56434819D01*
X132103809Y-56434819D02*
X132008571Y-56577676D01*
X132008571Y-56577676D02*
X131913333Y-56672914D01*
X131913333Y-56672914D02*
X131818095Y-56720533D01*
X132770476Y-56530057D02*
X132818095Y-56482438D01*
X132818095Y-56482438D02*
X132913333Y-56434819D01*
X132913333Y-56434819D02*
X133151428Y-56434819D01*
X133151428Y-56434819D02*
X133246666Y-56482438D01*
X133246666Y-56482438D02*
X133294285Y-56530057D01*
X133294285Y-56530057D02*
X133341904Y-56625295D01*
X133341904Y-56625295D02*
X133341904Y-56720533D01*
X133341904Y-56720533D02*
X133294285Y-56863390D01*
X133294285Y-56863390D02*
X132722857Y-57434819D01*
X132722857Y-57434819D02*
X133341904Y-57434819D01*
%TO.C,R11*%
X114927142Y-61279819D02*
X114593809Y-60803628D01*
X114355714Y-61279819D02*
X114355714Y-60279819D01*
X114355714Y-60279819D02*
X114736666Y-60279819D01*
X114736666Y-60279819D02*
X114831904Y-60327438D01*
X114831904Y-60327438D02*
X114879523Y-60375057D01*
X114879523Y-60375057D02*
X114927142Y-60470295D01*
X114927142Y-60470295D02*
X114927142Y-60613152D01*
X114927142Y-60613152D02*
X114879523Y-60708390D01*
X114879523Y-60708390D02*
X114831904Y-60756009D01*
X114831904Y-60756009D02*
X114736666Y-60803628D01*
X114736666Y-60803628D02*
X114355714Y-60803628D01*
X115879523Y-61279819D02*
X115308095Y-61279819D01*
X115593809Y-61279819D02*
X115593809Y-60279819D01*
X115593809Y-60279819D02*
X115498571Y-60422676D01*
X115498571Y-60422676D02*
X115403333Y-60517914D01*
X115403333Y-60517914D02*
X115308095Y-60565533D01*
X116831904Y-61279819D02*
X116260476Y-61279819D01*
X116546190Y-61279819D02*
X116546190Y-60279819D01*
X116546190Y-60279819D02*
X116450952Y-60422676D01*
X116450952Y-60422676D02*
X116355714Y-60517914D01*
X116355714Y-60517914D02*
X116260476Y-60565533D01*
%TO.C,R10*%
X122544819Y-79382857D02*
X122068628Y-79716190D01*
X122544819Y-79954285D02*
X121544819Y-79954285D01*
X121544819Y-79954285D02*
X121544819Y-79573333D01*
X121544819Y-79573333D02*
X121592438Y-79478095D01*
X121592438Y-79478095D02*
X121640057Y-79430476D01*
X121640057Y-79430476D02*
X121735295Y-79382857D01*
X121735295Y-79382857D02*
X121878152Y-79382857D01*
X121878152Y-79382857D02*
X121973390Y-79430476D01*
X121973390Y-79430476D02*
X122021009Y-79478095D01*
X122021009Y-79478095D02*
X122068628Y-79573333D01*
X122068628Y-79573333D02*
X122068628Y-79954285D01*
X122544819Y-78430476D02*
X122544819Y-79001904D01*
X122544819Y-78716190D02*
X121544819Y-78716190D01*
X121544819Y-78716190D02*
X121687676Y-78811428D01*
X121687676Y-78811428D02*
X121782914Y-78906666D01*
X121782914Y-78906666D02*
X121830533Y-79001904D01*
X121544819Y-77811428D02*
X121544819Y-77716190D01*
X121544819Y-77716190D02*
X121592438Y-77620952D01*
X121592438Y-77620952D02*
X121640057Y-77573333D01*
X121640057Y-77573333D02*
X121735295Y-77525714D01*
X121735295Y-77525714D02*
X121925771Y-77478095D01*
X121925771Y-77478095D02*
X122163866Y-77478095D01*
X122163866Y-77478095D02*
X122354342Y-77525714D01*
X122354342Y-77525714D02*
X122449580Y-77573333D01*
X122449580Y-77573333D02*
X122497200Y-77620952D01*
X122497200Y-77620952D02*
X122544819Y-77716190D01*
X122544819Y-77716190D02*
X122544819Y-77811428D01*
X122544819Y-77811428D02*
X122497200Y-77906666D01*
X122497200Y-77906666D02*
X122449580Y-77954285D01*
X122449580Y-77954285D02*
X122354342Y-78001904D01*
X122354342Y-78001904D02*
X122163866Y-78049523D01*
X122163866Y-78049523D02*
X121925771Y-78049523D01*
X121925771Y-78049523D02*
X121735295Y-78001904D01*
X121735295Y-78001904D02*
X121640057Y-77954285D01*
X121640057Y-77954285D02*
X121592438Y-77906666D01*
X121592438Y-77906666D02*
X121544819Y-77811428D01*
%TO.C,R9*%
X118184819Y-76061666D02*
X117708628Y-76394999D01*
X118184819Y-76633094D02*
X117184819Y-76633094D01*
X117184819Y-76633094D02*
X117184819Y-76252142D01*
X117184819Y-76252142D02*
X117232438Y-76156904D01*
X117232438Y-76156904D02*
X117280057Y-76109285D01*
X117280057Y-76109285D02*
X117375295Y-76061666D01*
X117375295Y-76061666D02*
X117518152Y-76061666D01*
X117518152Y-76061666D02*
X117613390Y-76109285D01*
X117613390Y-76109285D02*
X117661009Y-76156904D01*
X117661009Y-76156904D02*
X117708628Y-76252142D01*
X117708628Y-76252142D02*
X117708628Y-76633094D01*
X118184819Y-75585475D02*
X118184819Y-75394999D01*
X118184819Y-75394999D02*
X118137200Y-75299761D01*
X118137200Y-75299761D02*
X118089580Y-75252142D01*
X118089580Y-75252142D02*
X117946723Y-75156904D01*
X117946723Y-75156904D02*
X117756247Y-75109285D01*
X117756247Y-75109285D02*
X117375295Y-75109285D01*
X117375295Y-75109285D02*
X117280057Y-75156904D01*
X117280057Y-75156904D02*
X117232438Y-75204523D01*
X117232438Y-75204523D02*
X117184819Y-75299761D01*
X117184819Y-75299761D02*
X117184819Y-75490237D01*
X117184819Y-75490237D02*
X117232438Y-75585475D01*
X117232438Y-75585475D02*
X117280057Y-75633094D01*
X117280057Y-75633094D02*
X117375295Y-75680713D01*
X117375295Y-75680713D02*
X117613390Y-75680713D01*
X117613390Y-75680713D02*
X117708628Y-75633094D01*
X117708628Y-75633094D02*
X117756247Y-75585475D01*
X117756247Y-75585475D02*
X117803866Y-75490237D01*
X117803866Y-75490237D02*
X117803866Y-75299761D01*
X117803866Y-75299761D02*
X117756247Y-75204523D01*
X117756247Y-75204523D02*
X117708628Y-75156904D01*
X117708628Y-75156904D02*
X117613390Y-75109285D01*
%TO.C,R7*%
X113340584Y-76061666D02*
X112864393Y-76394999D01*
X113340584Y-76633094D02*
X112340584Y-76633094D01*
X112340584Y-76633094D02*
X112340584Y-76252142D01*
X112340584Y-76252142D02*
X112388203Y-76156904D01*
X112388203Y-76156904D02*
X112435822Y-76109285D01*
X112435822Y-76109285D02*
X112531060Y-76061666D01*
X112531060Y-76061666D02*
X112673917Y-76061666D01*
X112673917Y-76061666D02*
X112769155Y-76109285D01*
X112769155Y-76109285D02*
X112816774Y-76156904D01*
X112816774Y-76156904D02*
X112864393Y-76252142D01*
X112864393Y-76252142D02*
X112864393Y-76633094D01*
X112340584Y-75728332D02*
X112340584Y-75061666D01*
X112340584Y-75061666D02*
X113340584Y-75490237D01*
%TO.C,R5*%
X146674819Y-78906666D02*
X146198628Y-79239999D01*
X146674819Y-79478094D02*
X145674819Y-79478094D01*
X145674819Y-79478094D02*
X145674819Y-79097142D01*
X145674819Y-79097142D02*
X145722438Y-79001904D01*
X145722438Y-79001904D02*
X145770057Y-78954285D01*
X145770057Y-78954285D02*
X145865295Y-78906666D01*
X145865295Y-78906666D02*
X146008152Y-78906666D01*
X146008152Y-78906666D02*
X146103390Y-78954285D01*
X146103390Y-78954285D02*
X146151009Y-79001904D01*
X146151009Y-79001904D02*
X146198628Y-79097142D01*
X146198628Y-79097142D02*
X146198628Y-79478094D01*
X145674819Y-78001904D02*
X145674819Y-78478094D01*
X145674819Y-78478094D02*
X146151009Y-78525713D01*
X146151009Y-78525713D02*
X146103390Y-78478094D01*
X146103390Y-78478094D02*
X146055771Y-78382856D01*
X146055771Y-78382856D02*
X146055771Y-78144761D01*
X146055771Y-78144761D02*
X146103390Y-78049523D01*
X146103390Y-78049523D02*
X146151009Y-78001904D01*
X146151009Y-78001904D02*
X146246247Y-77954285D01*
X146246247Y-77954285D02*
X146484342Y-77954285D01*
X146484342Y-77954285D02*
X146579580Y-78001904D01*
X146579580Y-78001904D02*
X146627200Y-78049523D01*
X146627200Y-78049523D02*
X146674819Y-78144761D01*
X146674819Y-78144761D02*
X146674819Y-78382856D01*
X146674819Y-78382856D02*
X146627200Y-78478094D01*
X146627200Y-78478094D02*
X146579580Y-78525713D01*
%TO.C,R4*%
X139054819Y-75996666D02*
X138578628Y-76329999D01*
X139054819Y-76568094D02*
X138054819Y-76568094D01*
X138054819Y-76568094D02*
X138054819Y-76187142D01*
X138054819Y-76187142D02*
X138102438Y-76091904D01*
X138102438Y-76091904D02*
X138150057Y-76044285D01*
X138150057Y-76044285D02*
X138245295Y-75996666D01*
X138245295Y-75996666D02*
X138388152Y-75996666D01*
X138388152Y-75996666D02*
X138483390Y-76044285D01*
X138483390Y-76044285D02*
X138531009Y-76091904D01*
X138531009Y-76091904D02*
X138578628Y-76187142D01*
X138578628Y-76187142D02*
X138578628Y-76568094D01*
X138388152Y-75139523D02*
X139054819Y-75139523D01*
X138007200Y-75377618D02*
X138721485Y-75615713D01*
X138721485Y-75615713D02*
X138721485Y-74996666D01*
%TO.C,R2*%
X142314819Y-76366666D02*
X141838628Y-76699999D01*
X142314819Y-76938094D02*
X141314819Y-76938094D01*
X141314819Y-76938094D02*
X141314819Y-76557142D01*
X141314819Y-76557142D02*
X141362438Y-76461904D01*
X141362438Y-76461904D02*
X141410057Y-76414285D01*
X141410057Y-76414285D02*
X141505295Y-76366666D01*
X141505295Y-76366666D02*
X141648152Y-76366666D01*
X141648152Y-76366666D02*
X141743390Y-76414285D01*
X141743390Y-76414285D02*
X141791009Y-76461904D01*
X141791009Y-76461904D02*
X141838628Y-76557142D01*
X141838628Y-76557142D02*
X141838628Y-76938094D01*
X141410057Y-75985713D02*
X141362438Y-75938094D01*
X141362438Y-75938094D02*
X141314819Y-75842856D01*
X141314819Y-75842856D02*
X141314819Y-75604761D01*
X141314819Y-75604761D02*
X141362438Y-75509523D01*
X141362438Y-75509523D02*
X141410057Y-75461904D01*
X141410057Y-75461904D02*
X141505295Y-75414285D01*
X141505295Y-75414285D02*
X141600533Y-75414285D01*
X141600533Y-75414285D02*
X141743390Y-75461904D01*
X141743390Y-75461904D02*
X142314819Y-76033332D01*
X142314819Y-76033332D02*
X142314819Y-75414285D01*
%TO.C,R8*%
X107294819Y-97795901D02*
X106818628Y-98129234D01*
X107294819Y-98367329D02*
X106294819Y-98367329D01*
X106294819Y-98367329D02*
X106294819Y-97986377D01*
X106294819Y-97986377D02*
X106342438Y-97891139D01*
X106342438Y-97891139D02*
X106390057Y-97843520D01*
X106390057Y-97843520D02*
X106485295Y-97795901D01*
X106485295Y-97795901D02*
X106628152Y-97795901D01*
X106628152Y-97795901D02*
X106723390Y-97843520D01*
X106723390Y-97843520D02*
X106771009Y-97891139D01*
X106771009Y-97891139D02*
X106818628Y-97986377D01*
X106818628Y-97986377D02*
X106818628Y-98367329D01*
X106723390Y-97224472D02*
X106675771Y-97319710D01*
X106675771Y-97319710D02*
X106628152Y-97367329D01*
X106628152Y-97367329D02*
X106532914Y-97414948D01*
X106532914Y-97414948D02*
X106485295Y-97414948D01*
X106485295Y-97414948D02*
X106390057Y-97367329D01*
X106390057Y-97367329D02*
X106342438Y-97319710D01*
X106342438Y-97319710D02*
X106294819Y-97224472D01*
X106294819Y-97224472D02*
X106294819Y-97033996D01*
X106294819Y-97033996D02*
X106342438Y-96938758D01*
X106342438Y-96938758D02*
X106390057Y-96891139D01*
X106390057Y-96891139D02*
X106485295Y-96843520D01*
X106485295Y-96843520D02*
X106532914Y-96843520D01*
X106532914Y-96843520D02*
X106628152Y-96891139D01*
X106628152Y-96891139D02*
X106675771Y-96938758D01*
X106675771Y-96938758D02*
X106723390Y-97033996D01*
X106723390Y-97033996D02*
X106723390Y-97224472D01*
X106723390Y-97224472D02*
X106771009Y-97319710D01*
X106771009Y-97319710D02*
X106818628Y-97367329D01*
X106818628Y-97367329D02*
X106913866Y-97414948D01*
X106913866Y-97414948D02*
X107104342Y-97414948D01*
X107104342Y-97414948D02*
X107199580Y-97367329D01*
X107199580Y-97367329D02*
X107247200Y-97319710D01*
X107247200Y-97319710D02*
X107294819Y-97224472D01*
X107294819Y-97224472D02*
X107294819Y-97033996D01*
X107294819Y-97033996D02*
X107247200Y-96938758D01*
X107247200Y-96938758D02*
X107199580Y-96891139D01*
X107199580Y-96891139D02*
X107104342Y-96843520D01*
X107104342Y-96843520D02*
X106913866Y-96843520D01*
X106913866Y-96843520D02*
X106818628Y-96891139D01*
X106818628Y-96891139D02*
X106771009Y-96938758D01*
X106771009Y-96938758D02*
X106723390Y-97033996D01*
%TO.C,R1*%
X132694819Y-97956666D02*
X132218628Y-98289999D01*
X132694819Y-98528094D02*
X131694819Y-98528094D01*
X131694819Y-98528094D02*
X131694819Y-98147142D01*
X131694819Y-98147142D02*
X131742438Y-98051904D01*
X131742438Y-98051904D02*
X131790057Y-98004285D01*
X131790057Y-98004285D02*
X131885295Y-97956666D01*
X131885295Y-97956666D02*
X132028152Y-97956666D01*
X132028152Y-97956666D02*
X132123390Y-98004285D01*
X132123390Y-98004285D02*
X132171009Y-98051904D01*
X132171009Y-98051904D02*
X132218628Y-98147142D01*
X132218628Y-98147142D02*
X132218628Y-98528094D01*
X132694819Y-97004285D02*
X132694819Y-97575713D01*
X132694819Y-97289999D02*
X131694819Y-97289999D01*
X131694819Y-97289999D02*
X131837676Y-97385237D01*
X131837676Y-97385237D02*
X131932914Y-97480475D01*
X131932914Y-97480475D02*
X131980533Y-97575713D01*
%TO.C,J12*%
X114014819Y-57674523D02*
X114729104Y-57674523D01*
X114729104Y-57674523D02*
X114871961Y-57722142D01*
X114871961Y-57722142D02*
X114967200Y-57817380D01*
X114967200Y-57817380D02*
X115014819Y-57960237D01*
X115014819Y-57960237D02*
X115014819Y-58055475D01*
X115014819Y-56674523D02*
X115014819Y-57245951D01*
X115014819Y-56960237D02*
X114014819Y-56960237D01*
X114014819Y-56960237D02*
X114157676Y-57055475D01*
X114157676Y-57055475D02*
X114252914Y-57150713D01*
X114252914Y-57150713D02*
X114300533Y-57245951D01*
X114110057Y-56293570D02*
X114062438Y-56245951D01*
X114062438Y-56245951D02*
X114014819Y-56150713D01*
X114014819Y-56150713D02*
X114014819Y-55912618D01*
X114014819Y-55912618D02*
X114062438Y-55817380D01*
X114062438Y-55817380D02*
X114110057Y-55769761D01*
X114110057Y-55769761D02*
X114205295Y-55722142D01*
X114205295Y-55722142D02*
X114300533Y-55722142D01*
X114300533Y-55722142D02*
X114443390Y-55769761D01*
X114443390Y-55769761D02*
X115014819Y-56341189D01*
X115014819Y-56341189D02*
X115014819Y-55722142D01*
%TO.C,J3*%
X153336666Y-99574819D02*
X153336666Y-100289104D01*
X153336666Y-100289104D02*
X153289047Y-100431961D01*
X153289047Y-100431961D02*
X153193809Y-100527200D01*
X153193809Y-100527200D02*
X153050952Y-100574819D01*
X153050952Y-100574819D02*
X152955714Y-100574819D01*
X153717619Y-99574819D02*
X154336666Y-99574819D01*
X154336666Y-99574819D02*
X154003333Y-99955771D01*
X154003333Y-99955771D02*
X154146190Y-99955771D01*
X154146190Y-99955771D02*
X154241428Y-100003390D01*
X154241428Y-100003390D02*
X154289047Y-100051009D01*
X154289047Y-100051009D02*
X154336666Y-100146247D01*
X154336666Y-100146247D02*
X154336666Y-100384342D01*
X154336666Y-100384342D02*
X154289047Y-100479580D01*
X154289047Y-100479580D02*
X154241428Y-100527200D01*
X154241428Y-100527200D02*
X154146190Y-100574819D01*
X154146190Y-100574819D02*
X153860476Y-100574819D01*
X153860476Y-100574819D02*
X153765238Y-100527200D01*
X153765238Y-100527200D02*
X153717619Y-100479580D01*
%TO.C,J11*%
X136350476Y-55544819D02*
X136350476Y-56259104D01*
X136350476Y-56259104D02*
X136302857Y-56401961D01*
X136302857Y-56401961D02*
X136207619Y-56497200D01*
X136207619Y-56497200D02*
X136064762Y-56544819D01*
X136064762Y-56544819D02*
X135969524Y-56544819D01*
X137350476Y-56544819D02*
X136779048Y-56544819D01*
X137064762Y-56544819D02*
X137064762Y-55544819D01*
X137064762Y-55544819D02*
X136969524Y-55687676D01*
X136969524Y-55687676D02*
X136874286Y-55782914D01*
X136874286Y-55782914D02*
X136779048Y-55830533D01*
X138302857Y-56544819D02*
X137731429Y-56544819D01*
X138017143Y-56544819D02*
X138017143Y-55544819D01*
X138017143Y-55544819D02*
X137921905Y-55687676D01*
X137921905Y-55687676D02*
X137826667Y-55782914D01*
X137826667Y-55782914D02*
X137731429Y-55830533D01*
%TO.C,J10*%
X98774819Y-81474523D02*
X99489104Y-81474523D01*
X99489104Y-81474523D02*
X99631961Y-81522142D01*
X99631961Y-81522142D02*
X99727200Y-81617380D01*
X99727200Y-81617380D02*
X99774819Y-81760237D01*
X99774819Y-81760237D02*
X99774819Y-81855475D01*
X99774819Y-80474523D02*
X99774819Y-81045951D01*
X99774819Y-80760237D02*
X98774819Y-80760237D01*
X98774819Y-80760237D02*
X98917676Y-80855475D01*
X98917676Y-80855475D02*
X99012914Y-80950713D01*
X99012914Y-80950713D02*
X99060533Y-81045951D01*
X98774819Y-79855475D02*
X98774819Y-79760237D01*
X98774819Y-79760237D02*
X98822438Y-79664999D01*
X98822438Y-79664999D02*
X98870057Y-79617380D01*
X98870057Y-79617380D02*
X98965295Y-79569761D01*
X98965295Y-79569761D02*
X99155771Y-79522142D01*
X99155771Y-79522142D02*
X99393866Y-79522142D01*
X99393866Y-79522142D02*
X99584342Y-79569761D01*
X99584342Y-79569761D02*
X99679580Y-79617380D01*
X99679580Y-79617380D02*
X99727200Y-79664999D01*
X99727200Y-79664999D02*
X99774819Y-79760237D01*
X99774819Y-79760237D02*
X99774819Y-79855475D01*
X99774819Y-79855475D02*
X99727200Y-79950713D01*
X99727200Y-79950713D02*
X99679580Y-79998332D01*
X99679580Y-79998332D02*
X99584342Y-80045951D01*
X99584342Y-80045951D02*
X99393866Y-80093570D01*
X99393866Y-80093570D02*
X99155771Y-80093570D01*
X99155771Y-80093570D02*
X98965295Y-80045951D01*
X98965295Y-80045951D02*
X98870057Y-79998332D01*
X98870057Y-79998332D02*
X98822438Y-79950713D01*
X98822438Y-79950713D02*
X98774819Y-79855475D01*
%TO.C,J9*%
X181276666Y-70459819D02*
X181276666Y-71174104D01*
X181276666Y-71174104D02*
X181229047Y-71316961D01*
X181229047Y-71316961D02*
X181133809Y-71412200D01*
X181133809Y-71412200D02*
X180990952Y-71459819D01*
X180990952Y-71459819D02*
X180895714Y-71459819D01*
X181800476Y-71459819D02*
X181990952Y-71459819D01*
X181990952Y-71459819D02*
X182086190Y-71412200D01*
X182086190Y-71412200D02*
X182133809Y-71364580D01*
X182133809Y-71364580D02*
X182229047Y-71221723D01*
X182229047Y-71221723D02*
X182276666Y-71031247D01*
X182276666Y-71031247D02*
X182276666Y-70650295D01*
X182276666Y-70650295D02*
X182229047Y-70555057D01*
X182229047Y-70555057D02*
X182181428Y-70507438D01*
X182181428Y-70507438D02*
X182086190Y-70459819D01*
X182086190Y-70459819D02*
X181895714Y-70459819D01*
X181895714Y-70459819D02*
X181800476Y-70507438D01*
X181800476Y-70507438D02*
X181752857Y-70555057D01*
X181752857Y-70555057D02*
X181705238Y-70650295D01*
X181705238Y-70650295D02*
X181705238Y-70888390D01*
X181705238Y-70888390D02*
X181752857Y-70983628D01*
X181752857Y-70983628D02*
X181800476Y-71031247D01*
X181800476Y-71031247D02*
X181895714Y-71078866D01*
X181895714Y-71078866D02*
X182086190Y-71078866D01*
X182086190Y-71078866D02*
X182181428Y-71031247D01*
X182181428Y-71031247D02*
X182229047Y-70983628D01*
X182229047Y-70983628D02*
X182276666Y-70888390D01*
%TO.C,J8*%
X125444819Y-80363333D02*
X126159104Y-80363333D01*
X126159104Y-80363333D02*
X126301961Y-80410952D01*
X126301961Y-80410952D02*
X126397200Y-80506190D01*
X126397200Y-80506190D02*
X126444819Y-80649047D01*
X126444819Y-80649047D02*
X126444819Y-80744285D01*
X125873390Y-79744285D02*
X125825771Y-79839523D01*
X125825771Y-79839523D02*
X125778152Y-79887142D01*
X125778152Y-79887142D02*
X125682914Y-79934761D01*
X125682914Y-79934761D02*
X125635295Y-79934761D01*
X125635295Y-79934761D02*
X125540057Y-79887142D01*
X125540057Y-79887142D02*
X125492438Y-79839523D01*
X125492438Y-79839523D02*
X125444819Y-79744285D01*
X125444819Y-79744285D02*
X125444819Y-79553809D01*
X125444819Y-79553809D02*
X125492438Y-79458571D01*
X125492438Y-79458571D02*
X125540057Y-79410952D01*
X125540057Y-79410952D02*
X125635295Y-79363333D01*
X125635295Y-79363333D02*
X125682914Y-79363333D01*
X125682914Y-79363333D02*
X125778152Y-79410952D01*
X125778152Y-79410952D02*
X125825771Y-79458571D01*
X125825771Y-79458571D02*
X125873390Y-79553809D01*
X125873390Y-79553809D02*
X125873390Y-79744285D01*
X125873390Y-79744285D02*
X125921009Y-79839523D01*
X125921009Y-79839523D02*
X125968628Y-79887142D01*
X125968628Y-79887142D02*
X126063866Y-79934761D01*
X126063866Y-79934761D02*
X126254342Y-79934761D01*
X126254342Y-79934761D02*
X126349580Y-79887142D01*
X126349580Y-79887142D02*
X126397200Y-79839523D01*
X126397200Y-79839523D02*
X126444819Y-79744285D01*
X126444819Y-79744285D02*
X126444819Y-79553809D01*
X126444819Y-79553809D02*
X126397200Y-79458571D01*
X126397200Y-79458571D02*
X126349580Y-79410952D01*
X126349580Y-79410952D02*
X126254342Y-79363333D01*
X126254342Y-79363333D02*
X126063866Y-79363333D01*
X126063866Y-79363333D02*
X125968628Y-79410952D01*
X125968628Y-79410952D02*
X125921009Y-79458571D01*
X125921009Y-79458571D02*
X125873390Y-79553809D01*
%TO.C,J7*%
X181276666Y-79889819D02*
X181276666Y-80604104D01*
X181276666Y-80604104D02*
X181229047Y-80746961D01*
X181229047Y-80746961D02*
X181133809Y-80842200D01*
X181133809Y-80842200D02*
X180990952Y-80889819D01*
X180990952Y-80889819D02*
X180895714Y-80889819D01*
X181657619Y-79889819D02*
X182324285Y-79889819D01*
X182324285Y-79889819D02*
X181895714Y-80889819D01*
%TO.C,J6*%
X181276666Y-90049819D02*
X181276666Y-90764104D01*
X181276666Y-90764104D02*
X181229047Y-90906961D01*
X181229047Y-90906961D02*
X181133809Y-91002200D01*
X181133809Y-91002200D02*
X180990952Y-91049819D01*
X180990952Y-91049819D02*
X180895714Y-91049819D01*
X182181428Y-90049819D02*
X181990952Y-90049819D01*
X181990952Y-90049819D02*
X181895714Y-90097438D01*
X181895714Y-90097438D02*
X181848095Y-90145057D01*
X181848095Y-90145057D02*
X181752857Y-90287914D01*
X181752857Y-90287914D02*
X181705238Y-90478390D01*
X181705238Y-90478390D02*
X181705238Y-90859342D01*
X181705238Y-90859342D02*
X181752857Y-90954580D01*
X181752857Y-90954580D02*
X181800476Y-91002200D01*
X181800476Y-91002200D02*
X181895714Y-91049819D01*
X181895714Y-91049819D02*
X182086190Y-91049819D01*
X182086190Y-91049819D02*
X182181428Y-91002200D01*
X182181428Y-91002200D02*
X182229047Y-90954580D01*
X182229047Y-90954580D02*
X182276666Y-90859342D01*
X182276666Y-90859342D02*
X182276666Y-90621247D01*
X182276666Y-90621247D02*
X182229047Y-90526009D01*
X182229047Y-90526009D02*
X182181428Y-90478390D01*
X182181428Y-90478390D02*
X182086190Y-90430771D01*
X182086190Y-90430771D02*
X181895714Y-90430771D01*
X181895714Y-90430771D02*
X181800476Y-90478390D01*
X181800476Y-90478390D02*
X181752857Y-90526009D01*
X181752857Y-90526009D02*
X181705238Y-90621247D01*
%TO.C,J5*%
X181316666Y-91199819D02*
X181316666Y-91914104D01*
X181316666Y-91914104D02*
X181269047Y-92056961D01*
X181269047Y-92056961D02*
X181173809Y-92152200D01*
X181173809Y-92152200D02*
X181030952Y-92199819D01*
X181030952Y-92199819D02*
X180935714Y-92199819D01*
X182269047Y-91199819D02*
X181792857Y-91199819D01*
X181792857Y-91199819D02*
X181745238Y-91676009D01*
X181745238Y-91676009D02*
X181792857Y-91628390D01*
X181792857Y-91628390D02*
X181888095Y-91580771D01*
X181888095Y-91580771D02*
X182126190Y-91580771D01*
X182126190Y-91580771D02*
X182221428Y-91628390D01*
X182221428Y-91628390D02*
X182269047Y-91676009D01*
X182269047Y-91676009D02*
X182316666Y-91771247D01*
X182316666Y-91771247D02*
X182316666Y-92009342D01*
X182316666Y-92009342D02*
X182269047Y-92104580D01*
X182269047Y-92104580D02*
X182221428Y-92152200D01*
X182221428Y-92152200D02*
X182126190Y-92199819D01*
X182126190Y-92199819D02*
X181888095Y-92199819D01*
X181888095Y-92199819D02*
X181792857Y-92152200D01*
X181792857Y-92152200D02*
X181745238Y-92104580D01*
%TO.C,J4*%
X152066666Y-69519819D02*
X152066666Y-70234104D01*
X152066666Y-70234104D02*
X152019047Y-70376961D01*
X152019047Y-70376961D02*
X151923809Y-70472200D01*
X151923809Y-70472200D02*
X151780952Y-70519819D01*
X151780952Y-70519819D02*
X151685714Y-70519819D01*
X152971428Y-69853152D02*
X152971428Y-70519819D01*
X152733333Y-69472200D02*
X152495238Y-70186485D01*
X152495238Y-70186485D02*
X153114285Y-70186485D01*
%TO.C,J2*%
X132544819Y-61273333D02*
X133259104Y-61273333D01*
X133259104Y-61273333D02*
X133401961Y-61320952D01*
X133401961Y-61320952D02*
X133497200Y-61416190D01*
X133497200Y-61416190D02*
X133544819Y-61559047D01*
X133544819Y-61559047D02*
X133544819Y-61654285D01*
X132640057Y-60844761D02*
X132592438Y-60797142D01*
X132592438Y-60797142D02*
X132544819Y-60701904D01*
X132544819Y-60701904D02*
X132544819Y-60463809D01*
X132544819Y-60463809D02*
X132592438Y-60368571D01*
X132592438Y-60368571D02*
X132640057Y-60320952D01*
X132640057Y-60320952D02*
X132735295Y-60273333D01*
X132735295Y-60273333D02*
X132830533Y-60273333D01*
X132830533Y-60273333D02*
X132973390Y-60320952D01*
X132973390Y-60320952D02*
X133544819Y-60892380D01*
X133544819Y-60892380D02*
X133544819Y-60273333D01*
%TO.C,J1*%
X110156666Y-61169819D02*
X110156666Y-61884104D01*
X110156666Y-61884104D02*
X110109047Y-62026961D01*
X110109047Y-62026961D02*
X110013809Y-62122200D01*
X110013809Y-62122200D02*
X109870952Y-62169819D01*
X109870952Y-62169819D02*
X109775714Y-62169819D01*
X111156666Y-62169819D02*
X110585238Y-62169819D01*
X110870952Y-62169819D02*
X110870952Y-61169819D01*
X110870952Y-61169819D02*
X110775714Y-61312676D01*
X110775714Y-61312676D02*
X110680476Y-61407914D01*
X110680476Y-61407914D02*
X110585238Y-61455533D01*
%TO.C,C2*%
X167409580Y-58566666D02*
X167457200Y-58614285D01*
X167457200Y-58614285D02*
X167504819Y-58757142D01*
X167504819Y-58757142D02*
X167504819Y-58852380D01*
X167504819Y-58852380D02*
X167457200Y-58995237D01*
X167457200Y-58995237D02*
X167361961Y-59090475D01*
X167361961Y-59090475D02*
X167266723Y-59138094D01*
X167266723Y-59138094D02*
X167076247Y-59185713D01*
X167076247Y-59185713D02*
X166933390Y-59185713D01*
X166933390Y-59185713D02*
X166742914Y-59138094D01*
X166742914Y-59138094D02*
X166647676Y-59090475D01*
X166647676Y-59090475D02*
X166552438Y-58995237D01*
X166552438Y-58995237D02*
X166504819Y-58852380D01*
X166504819Y-58852380D02*
X166504819Y-58757142D01*
X166504819Y-58757142D02*
X166552438Y-58614285D01*
X166552438Y-58614285D02*
X166600057Y-58566666D01*
X166600057Y-58185713D02*
X166552438Y-58138094D01*
X166552438Y-58138094D02*
X166504819Y-58042856D01*
X166504819Y-58042856D02*
X166504819Y-57804761D01*
X166504819Y-57804761D02*
X166552438Y-57709523D01*
X166552438Y-57709523D02*
X166600057Y-57661904D01*
X166600057Y-57661904D02*
X166695295Y-57614285D01*
X166695295Y-57614285D02*
X166790533Y-57614285D01*
X166790533Y-57614285D02*
X166933390Y-57661904D01*
X166933390Y-57661904D02*
X167504819Y-58233332D01*
X167504819Y-58233332D02*
X167504819Y-57614285D01*
%TO.C,C1*%
X155979580Y-58566666D02*
X156027200Y-58614285D01*
X156027200Y-58614285D02*
X156074819Y-58757142D01*
X156074819Y-58757142D02*
X156074819Y-58852380D01*
X156074819Y-58852380D02*
X156027200Y-58995237D01*
X156027200Y-58995237D02*
X155931961Y-59090475D01*
X155931961Y-59090475D02*
X155836723Y-59138094D01*
X155836723Y-59138094D02*
X155646247Y-59185713D01*
X155646247Y-59185713D02*
X155503390Y-59185713D01*
X155503390Y-59185713D02*
X155312914Y-59138094D01*
X155312914Y-59138094D02*
X155217676Y-59090475D01*
X155217676Y-59090475D02*
X155122438Y-58995237D01*
X155122438Y-58995237D02*
X155074819Y-58852380D01*
X155074819Y-58852380D02*
X155074819Y-58757142D01*
X155074819Y-58757142D02*
X155122438Y-58614285D01*
X155122438Y-58614285D02*
X155170057Y-58566666D01*
X156074819Y-57614285D02*
X156074819Y-58185713D01*
X156074819Y-57899999D02*
X155074819Y-57899999D01*
X155074819Y-57899999D02*
X155217676Y-57995237D01*
X155217676Y-57995237D02*
X155312914Y-58090475D01*
X155312914Y-58090475D02*
X155360533Y-58185713D01*
%TO.C,U2*%
X117354819Y-102066904D02*
X118164342Y-102066904D01*
X118164342Y-102066904D02*
X118259580Y-102019285D01*
X118259580Y-102019285D02*
X118307200Y-101971666D01*
X118307200Y-101971666D02*
X118354819Y-101876428D01*
X118354819Y-101876428D02*
X118354819Y-101685952D01*
X118354819Y-101685952D02*
X118307200Y-101590714D01*
X118307200Y-101590714D02*
X118259580Y-101543095D01*
X118259580Y-101543095D02*
X118164342Y-101495476D01*
X118164342Y-101495476D02*
X117354819Y-101495476D01*
X117450057Y-101066904D02*
X117402438Y-101019285D01*
X117402438Y-101019285D02*
X117354819Y-100924047D01*
X117354819Y-100924047D02*
X117354819Y-100685952D01*
X117354819Y-100685952D02*
X117402438Y-100590714D01*
X117402438Y-100590714D02*
X117450057Y-100543095D01*
X117450057Y-100543095D02*
X117545295Y-100495476D01*
X117545295Y-100495476D02*
X117640533Y-100495476D01*
X117640533Y-100495476D02*
X117783390Y-100543095D01*
X117783390Y-100543095D02*
X118354819Y-101114523D01*
X118354819Y-101114523D02*
X118354819Y-100495476D01*
%TO.C,Q2*%
X107854761Y-75635057D02*
X107759523Y-75587438D01*
X107759523Y-75587438D02*
X107664285Y-75492200D01*
X107664285Y-75492200D02*
X107521428Y-75349342D01*
X107521428Y-75349342D02*
X107426190Y-75301723D01*
X107426190Y-75301723D02*
X107330952Y-75301723D01*
X107378571Y-75539819D02*
X107283333Y-75492200D01*
X107283333Y-75492200D02*
X107188095Y-75396961D01*
X107188095Y-75396961D02*
X107140476Y-75206485D01*
X107140476Y-75206485D02*
X107140476Y-74873152D01*
X107140476Y-74873152D02*
X107188095Y-74682676D01*
X107188095Y-74682676D02*
X107283333Y-74587438D01*
X107283333Y-74587438D02*
X107378571Y-74539819D01*
X107378571Y-74539819D02*
X107569047Y-74539819D01*
X107569047Y-74539819D02*
X107664285Y-74587438D01*
X107664285Y-74587438D02*
X107759523Y-74682676D01*
X107759523Y-74682676D02*
X107807142Y-74873152D01*
X107807142Y-74873152D02*
X107807142Y-75206485D01*
X107807142Y-75206485D02*
X107759523Y-75396961D01*
X107759523Y-75396961D02*
X107664285Y-75492200D01*
X107664285Y-75492200D02*
X107569047Y-75539819D01*
X107569047Y-75539819D02*
X107378571Y-75539819D01*
X108188095Y-74635057D02*
X108235714Y-74587438D01*
X108235714Y-74587438D02*
X108330952Y-74539819D01*
X108330952Y-74539819D02*
X108569047Y-74539819D01*
X108569047Y-74539819D02*
X108664285Y-74587438D01*
X108664285Y-74587438D02*
X108711904Y-74635057D01*
X108711904Y-74635057D02*
X108759523Y-74730295D01*
X108759523Y-74730295D02*
X108759523Y-74825533D01*
X108759523Y-74825533D02*
X108711904Y-74968390D01*
X108711904Y-74968390D02*
X108140476Y-75539819D01*
X108140476Y-75539819D02*
X108759523Y-75539819D01*
%TO.C,D2*%
X114831905Y-92789819D02*
X114831905Y-91789819D01*
X114831905Y-91789819D02*
X115070000Y-91789819D01*
X115070000Y-91789819D02*
X115212857Y-91837438D01*
X115212857Y-91837438D02*
X115308095Y-91932676D01*
X115308095Y-91932676D02*
X115355714Y-92027914D01*
X115355714Y-92027914D02*
X115403333Y-92218390D01*
X115403333Y-92218390D02*
X115403333Y-92361247D01*
X115403333Y-92361247D02*
X115355714Y-92551723D01*
X115355714Y-92551723D02*
X115308095Y-92646961D01*
X115308095Y-92646961D02*
X115212857Y-92742200D01*
X115212857Y-92742200D02*
X115070000Y-92789819D01*
X115070000Y-92789819D02*
X114831905Y-92789819D01*
X115784286Y-91885057D02*
X115831905Y-91837438D01*
X115831905Y-91837438D02*
X115927143Y-91789819D01*
X115927143Y-91789819D02*
X116165238Y-91789819D01*
X116165238Y-91789819D02*
X116260476Y-91837438D01*
X116260476Y-91837438D02*
X116308095Y-91885057D01*
X116308095Y-91885057D02*
X116355714Y-91980295D01*
X116355714Y-91980295D02*
X116355714Y-92075533D01*
X116355714Y-92075533D02*
X116308095Y-92218390D01*
X116308095Y-92218390D02*
X115736667Y-92789819D01*
X115736667Y-92789819D02*
X116355714Y-92789819D01*
X120388095Y-92419819D02*
X120388095Y-91419819D01*
X120959523Y-92419819D02*
X120530952Y-91848390D01*
X120959523Y-91419819D02*
X120388095Y-91991247D01*
%TO.C,D1*%
X138961905Y-94364819D02*
X138961905Y-93364819D01*
X138961905Y-93364819D02*
X139200000Y-93364819D01*
X139200000Y-93364819D02*
X139342857Y-93412438D01*
X139342857Y-93412438D02*
X139438095Y-93507676D01*
X139438095Y-93507676D02*
X139485714Y-93602914D01*
X139485714Y-93602914D02*
X139533333Y-93793390D01*
X139533333Y-93793390D02*
X139533333Y-93936247D01*
X139533333Y-93936247D02*
X139485714Y-94126723D01*
X139485714Y-94126723D02*
X139438095Y-94221961D01*
X139438095Y-94221961D02*
X139342857Y-94317200D01*
X139342857Y-94317200D02*
X139200000Y-94364819D01*
X139200000Y-94364819D02*
X138961905Y-94364819D01*
X140485714Y-94364819D02*
X139914286Y-94364819D01*
X140200000Y-94364819D02*
X140200000Y-93364819D01*
X140200000Y-93364819D02*
X140104762Y-93507676D01*
X140104762Y-93507676D02*
X140009524Y-93602914D01*
X140009524Y-93602914D02*
X139914286Y-93650533D01*
X144518095Y-93994819D02*
X144518095Y-92994819D01*
X145089523Y-93994819D02*
X144660952Y-93423390D01*
X145089523Y-92994819D02*
X144518095Y-93566247D01*
%TO.C,U1*%
X142754819Y-104901904D02*
X143564342Y-104901904D01*
X143564342Y-104901904D02*
X143659580Y-104854285D01*
X143659580Y-104854285D02*
X143707200Y-104806666D01*
X143707200Y-104806666D02*
X143754819Y-104711428D01*
X143754819Y-104711428D02*
X143754819Y-104520952D01*
X143754819Y-104520952D02*
X143707200Y-104425714D01*
X143707200Y-104425714D02*
X143659580Y-104378095D01*
X143659580Y-104378095D02*
X143564342Y-104330476D01*
X143564342Y-104330476D02*
X142754819Y-104330476D01*
X143754819Y-103330476D02*
X143754819Y-103901904D01*
X143754819Y-103616190D02*
X142754819Y-103616190D01*
X142754819Y-103616190D02*
X142897676Y-103711428D01*
X142897676Y-103711428D02*
X142992914Y-103806666D01*
X142992914Y-103806666D02*
X143040533Y-103901904D01*
%TO.C,Q1*%
X133254761Y-75570057D02*
X133159523Y-75522438D01*
X133159523Y-75522438D02*
X133064285Y-75427200D01*
X133064285Y-75427200D02*
X132921428Y-75284342D01*
X132921428Y-75284342D02*
X132826190Y-75236723D01*
X132826190Y-75236723D02*
X132730952Y-75236723D01*
X132778571Y-75474819D02*
X132683333Y-75427200D01*
X132683333Y-75427200D02*
X132588095Y-75331961D01*
X132588095Y-75331961D02*
X132540476Y-75141485D01*
X132540476Y-75141485D02*
X132540476Y-74808152D01*
X132540476Y-74808152D02*
X132588095Y-74617676D01*
X132588095Y-74617676D02*
X132683333Y-74522438D01*
X132683333Y-74522438D02*
X132778571Y-74474819D01*
X132778571Y-74474819D02*
X132969047Y-74474819D01*
X132969047Y-74474819D02*
X133064285Y-74522438D01*
X133064285Y-74522438D02*
X133159523Y-74617676D01*
X133159523Y-74617676D02*
X133207142Y-74808152D01*
X133207142Y-74808152D02*
X133207142Y-75141485D01*
X133207142Y-75141485D02*
X133159523Y-75331961D01*
X133159523Y-75331961D02*
X133064285Y-75427200D01*
X133064285Y-75427200D02*
X132969047Y-75474819D01*
X132969047Y-75474819D02*
X132778571Y-75474819D01*
X134159523Y-75474819D02*
X133588095Y-75474819D01*
X133873809Y-75474819D02*
X133873809Y-74474819D01*
X133873809Y-74474819D02*
X133778571Y-74617676D01*
X133778571Y-74617676D02*
X133683333Y-74712914D01*
X133683333Y-74712914D02*
X133588095Y-74760533D01*
%TO.C,A1*%
X166925714Y-63669104D02*
X167401904Y-63669104D01*
X166830476Y-63954819D02*
X167163809Y-62954819D01*
X167163809Y-62954819D02*
X167497142Y-63954819D01*
X168354285Y-63954819D02*
X167782857Y-63954819D01*
X168068571Y-63954819D02*
X168068571Y-62954819D01*
X168068571Y-62954819D02*
X167973333Y-63097676D01*
X167973333Y-63097676D02*
X167878095Y-63192914D01*
X167878095Y-63192914D02*
X167782857Y-63240533D01*
X166378095Y-103594819D02*
X166378095Y-104404342D01*
X166378095Y-104404342D02*
X166425714Y-104499580D01*
X166425714Y-104499580D02*
X166473333Y-104547200D01*
X166473333Y-104547200D02*
X166568571Y-104594819D01*
X166568571Y-104594819D02*
X166759047Y-104594819D01*
X166759047Y-104594819D02*
X166854285Y-104547200D01*
X166854285Y-104547200D02*
X166901904Y-104499580D01*
X166901904Y-104499580D02*
X166949523Y-104404342D01*
X166949523Y-104404342D02*
X166949523Y-103594819D01*
X167378095Y-104547200D02*
X167520952Y-104594819D01*
X167520952Y-104594819D02*
X167759047Y-104594819D01*
X167759047Y-104594819D02*
X167854285Y-104547200D01*
X167854285Y-104547200D02*
X167901904Y-104499580D01*
X167901904Y-104499580D02*
X167949523Y-104404342D01*
X167949523Y-104404342D02*
X167949523Y-104309104D01*
X167949523Y-104309104D02*
X167901904Y-104213866D01*
X167901904Y-104213866D02*
X167854285Y-104166247D01*
X167854285Y-104166247D02*
X167759047Y-104118628D01*
X167759047Y-104118628D02*
X167568571Y-104071009D01*
X167568571Y-104071009D02*
X167473333Y-104023390D01*
X167473333Y-104023390D02*
X167425714Y-103975771D01*
X167425714Y-103975771D02*
X167378095Y-103880533D01*
X167378095Y-103880533D02*
X167378095Y-103785295D01*
X167378095Y-103785295D02*
X167425714Y-103690057D01*
X167425714Y-103690057D02*
X167473333Y-103642438D01*
X167473333Y-103642438D02*
X167568571Y-103594819D01*
X167568571Y-103594819D02*
X167806666Y-103594819D01*
X167806666Y-103594819D02*
X167949523Y-103642438D01*
X168711428Y-104071009D02*
X168854285Y-104118628D01*
X168854285Y-104118628D02*
X168901904Y-104166247D01*
X168901904Y-104166247D02*
X168949523Y-104261485D01*
X168949523Y-104261485D02*
X168949523Y-104404342D01*
X168949523Y-104404342D02*
X168901904Y-104499580D01*
X168901904Y-104499580D02*
X168854285Y-104547200D01*
X168854285Y-104547200D02*
X168759047Y-104594819D01*
X168759047Y-104594819D02*
X168378095Y-104594819D01*
X168378095Y-104594819D02*
X168378095Y-103594819D01*
X168378095Y-103594819D02*
X168711428Y-103594819D01*
X168711428Y-103594819D02*
X168806666Y-103642438D01*
X168806666Y-103642438D02*
X168854285Y-103690057D01*
X168854285Y-103690057D02*
X168901904Y-103785295D01*
X168901904Y-103785295D02*
X168901904Y-103880533D01*
X168901904Y-103880533D02*
X168854285Y-103975771D01*
X168854285Y-103975771D02*
X168806666Y-104023390D01*
X168806666Y-104023390D02*
X168711428Y-104071009D01*
X168711428Y-104071009D02*
X168378095Y-104071009D01*
D11*
%TO.C,R12*%
X128040000Y-54610000D02*
X128810000Y-54610000D01*
X136120000Y-54610000D02*
X135350000Y-54610000D01*
X135350000Y-55980000D02*
X135350000Y-53240000D01*
X128810000Y-53240000D02*
X128810000Y-55980000D01*
X135350000Y-53240000D02*
X128810000Y-53240000D01*
X128810000Y-55980000D02*
X135350000Y-55980000D01*
%TO.C,R11*%
X119610000Y-63195000D02*
X118840000Y-63195000D01*
X111530000Y-63195000D02*
X112300000Y-63195000D01*
X112300000Y-61825000D02*
X112300000Y-64565000D01*
X118840000Y-64565000D02*
X118840000Y-61825000D01*
X112300000Y-64565000D02*
X118840000Y-64565000D01*
X118840000Y-61825000D02*
X112300000Y-61825000D01*
%TO.C,R10*%
X124460000Y-74700000D02*
X124460000Y-75470000D01*
X124460000Y-82780000D02*
X124460000Y-82010000D01*
X123090000Y-82010000D02*
X125830000Y-82010000D01*
X125830000Y-75470000D02*
X123090000Y-75470000D01*
X125830000Y-82010000D02*
X125830000Y-75470000D01*
X123090000Y-75470000D02*
X123090000Y-82010000D01*
%TO.C,R9*%
X120650000Y-69715000D02*
X120650000Y-70825000D01*
X118730000Y-70825000D02*
X118730000Y-80965000D01*
X122570000Y-70825000D02*
X118730000Y-70825000D01*
X120650000Y-82075000D02*
X120650000Y-80965000D01*
X118730000Y-80965000D02*
X122570000Y-80965000D01*
X122570000Y-80965000D02*
X122570000Y-70825000D01*
%TO.C,R7*%
X115255765Y-71855000D02*
X115255765Y-72625000D01*
X115255765Y-79935000D02*
X115255765Y-79165000D01*
X113885765Y-79165000D02*
X116625765Y-79165000D01*
X116625765Y-72625000D02*
X113885765Y-72625000D01*
X116625765Y-79165000D02*
X116625765Y-72625000D01*
X113885765Y-72625000D02*
X113885765Y-79165000D01*
%TO.C,R5*%
X148590000Y-74700000D02*
X148590000Y-75470000D01*
X148590000Y-82780000D02*
X148590000Y-82010000D01*
X147220000Y-82010000D02*
X149960000Y-82010000D01*
X149960000Y-75470000D02*
X147220000Y-75470000D01*
X149960000Y-82010000D02*
X149960000Y-75470000D01*
X147220000Y-75470000D02*
X147220000Y-82010000D01*
%TO.C,R4*%
X140970000Y-71790000D02*
X140970000Y-72560000D01*
X140970000Y-79870000D02*
X140970000Y-79100000D01*
X139600000Y-79100000D02*
X142340000Y-79100000D01*
X142340000Y-72560000D02*
X139600000Y-72560000D01*
X142340000Y-79100000D02*
X142340000Y-72560000D01*
X139600000Y-72560000D02*
X139600000Y-79100000D01*
%TO.C,R2*%
X144780000Y-70020000D02*
X144780000Y-71130000D01*
X142860000Y-71130000D02*
X142860000Y-81270000D01*
X146700000Y-71130000D02*
X142860000Y-71130000D01*
X144780000Y-82380000D02*
X144780000Y-81270000D01*
X142860000Y-81270000D02*
X146700000Y-81270000D01*
X146700000Y-81270000D02*
X146700000Y-71130000D01*
%TO.C,R8*%
X102870000Y-89109235D02*
X102870000Y-90359235D01*
X105840000Y-104899235D02*
X105840000Y-90359235D01*
X99900000Y-104899235D02*
X105840000Y-104899235D01*
X102870000Y-106149235D02*
X102870000Y-104899235D01*
X105840000Y-90359235D02*
X99900000Y-90359235D01*
X99900000Y-90359235D02*
X99900000Y-104899235D01*
%TO.C,R1*%
X128270000Y-89270000D02*
X128270000Y-90520000D01*
X131240000Y-105060000D02*
X131240000Y-90520000D01*
X125300000Y-105060000D02*
X131240000Y-105060000D01*
X128270000Y-106310000D02*
X128270000Y-105060000D01*
X131240000Y-90520000D02*
X125300000Y-90520000D01*
X125300000Y-90520000D02*
X125300000Y-105060000D01*
%TO.C,J12*%
X117910000Y-53065000D02*
X117910000Y-53815000D01*
X117910000Y-53815000D02*
X120860000Y-53815000D01*
X120860000Y-53815000D02*
X120860000Y-56865000D01*
X117910000Y-59915000D02*
X120860000Y-59915000D01*
X115660000Y-56365000D02*
X115660000Y-57365000D01*
X115660000Y-57365000D02*
X116410000Y-57365000D01*
X116410000Y-57365000D02*
X116410000Y-56365000D01*
X116410000Y-54865000D02*
X116410000Y-53065000D01*
X115660000Y-53065000D02*
X115660000Y-54865000D01*
X115360000Y-60965000D02*
X116610000Y-60965000D01*
X115650000Y-60675000D02*
X121620000Y-60675000D01*
X115660000Y-60665000D02*
X116410000Y-60665000D01*
X121620000Y-60675000D02*
X121620000Y-53055000D01*
X116410000Y-56365000D02*
X115660000Y-56365000D01*
X117910000Y-60665000D02*
X117910000Y-59915000D01*
X116410000Y-60665000D02*
X116410000Y-58865000D01*
X115360000Y-59715000D02*
X115360000Y-60965000D01*
X116410000Y-53065000D02*
X115660000Y-53065000D01*
X115660000Y-58865000D02*
X115660000Y-60665000D01*
X115650000Y-53055000D02*
X115650000Y-60675000D01*
X120860000Y-59915000D02*
X120860000Y-56865000D01*
X115660000Y-54865000D02*
X116410000Y-54865000D01*
X121620000Y-53055000D02*
X115650000Y-53055000D01*
X116410000Y-58865000D02*
X115660000Y-58865000D01*
%TO.C,J3*%
X155000000Y-91380000D02*
X152340000Y-91380000D01*
X155000000Y-96520000D02*
X155000000Y-91380000D01*
X155000000Y-97790000D02*
X155000000Y-99120000D01*
X152340000Y-96520000D02*
X152340000Y-91380000D01*
X155000000Y-99120000D02*
X153670000Y-99120000D01*
X155000000Y-96520000D02*
X152340000Y-96520000D01*
%TO.C,J11*%
X138490000Y-59690000D02*
X138490000Y-62290000D01*
X135830000Y-57090000D02*
X137160000Y-57090000D01*
X135830000Y-59690000D02*
X138490000Y-59690000D01*
X135830000Y-59690000D02*
X135830000Y-62290000D01*
X135830000Y-62290000D02*
X138490000Y-62290000D01*
X135830000Y-58420000D02*
X135830000Y-57090000D01*
%TO.C,J10*%
X102670000Y-76865000D02*
X102670000Y-77615000D01*
X102670000Y-77615000D02*
X105620000Y-77615000D01*
X105620000Y-77615000D02*
X105620000Y-80665000D01*
X102670000Y-83715000D02*
X105620000Y-83715000D01*
X100420000Y-80165000D02*
X100420000Y-81165000D01*
X100420000Y-81165000D02*
X101170000Y-81165000D01*
X101170000Y-81165000D02*
X101170000Y-80165000D01*
X101170000Y-78665000D02*
X101170000Y-76865000D01*
X100420000Y-76865000D02*
X100420000Y-78665000D01*
X100120000Y-84765000D02*
X101370000Y-84765000D01*
X100410000Y-84475000D02*
X106380000Y-84475000D01*
X100420000Y-84465000D02*
X101170000Y-84465000D01*
X106380000Y-84475000D02*
X106380000Y-76855000D01*
X101170000Y-80165000D02*
X100420000Y-80165000D01*
X102670000Y-84465000D02*
X102670000Y-83715000D01*
X101170000Y-84465000D02*
X101170000Y-82665000D01*
X100120000Y-83515000D02*
X100120000Y-84765000D01*
X101170000Y-76865000D02*
X100420000Y-76865000D01*
X100420000Y-82665000D02*
X100420000Y-84465000D01*
X100410000Y-76855000D02*
X100410000Y-84475000D01*
X105620000Y-83715000D02*
X105620000Y-80665000D01*
X100420000Y-78665000D02*
X101170000Y-78665000D01*
X106380000Y-76855000D02*
X100410000Y-76855000D01*
X101170000Y-82665000D02*
X100420000Y-82665000D01*
%TO.C,J9*%
X182940000Y-68675000D02*
X182940000Y-70005000D01*
X182940000Y-64805000D02*
X180280000Y-64805000D01*
X182940000Y-67405000D02*
X182940000Y-64805000D01*
X182940000Y-67405000D02*
X180280000Y-67405000D01*
X182940000Y-70005000D02*
X181610000Y-70005000D01*
X180280000Y-67405000D02*
X180280000Y-64805000D01*
%TO.C,J8*%
X129340000Y-76230000D02*
X129340000Y-76980000D01*
X129340000Y-76980000D02*
X132290000Y-76980000D01*
X132290000Y-76980000D02*
X132290000Y-80030000D01*
X129340000Y-83080000D02*
X132290000Y-83080000D01*
X127090000Y-79530000D02*
X127090000Y-80530000D01*
X127090000Y-80530000D02*
X127840000Y-80530000D01*
X127840000Y-80530000D02*
X127840000Y-79530000D01*
X127840000Y-78030000D02*
X127840000Y-76230000D01*
X127090000Y-76230000D02*
X127090000Y-78030000D01*
X126790000Y-84130000D02*
X128040000Y-84130000D01*
X127080000Y-83840000D02*
X133050000Y-83840000D01*
X127090000Y-83830000D02*
X127840000Y-83830000D01*
X133050000Y-83840000D02*
X133050000Y-76220000D01*
X127840000Y-79530000D02*
X127090000Y-79530000D01*
X129340000Y-83830000D02*
X129340000Y-83080000D01*
X127840000Y-83830000D02*
X127840000Y-82030000D01*
X126790000Y-82880000D02*
X126790000Y-84130000D01*
X127840000Y-76230000D02*
X127090000Y-76230000D01*
X127090000Y-82030000D02*
X127090000Y-83830000D01*
X127080000Y-76220000D02*
X127080000Y-83840000D01*
X132290000Y-83080000D02*
X132290000Y-80030000D01*
X127090000Y-78030000D02*
X127840000Y-78030000D01*
X133050000Y-76220000D02*
X127080000Y-76220000D01*
X127840000Y-82030000D02*
X127090000Y-82030000D01*
%TO.C,J7*%
X182940000Y-78105000D02*
X182940000Y-79435000D01*
X182940000Y-74235000D02*
X180280000Y-74235000D01*
X182940000Y-76835000D02*
X182940000Y-74235000D01*
X182940000Y-76835000D02*
X180280000Y-76835000D01*
X182940000Y-79435000D02*
X181610000Y-79435000D01*
X180280000Y-76835000D02*
X180280000Y-74235000D01*
%TO.C,J6*%
X182940000Y-88265000D02*
X182940000Y-89595000D01*
X182940000Y-84395000D02*
X180280000Y-84395000D01*
X182940000Y-86995000D02*
X182940000Y-84395000D01*
X182940000Y-86995000D02*
X180280000Y-86995000D01*
X182940000Y-89595000D02*
X181610000Y-89595000D01*
X180280000Y-86995000D02*
X180280000Y-84395000D01*
%TO.C,J5*%
X180320000Y-95345000D02*
X180320000Y-103025000D01*
X180320000Y-92745000D02*
X181650000Y-92745000D01*
X180320000Y-95345000D02*
X182980000Y-95345000D01*
X180320000Y-103025000D02*
X182980000Y-103025000D01*
X180320000Y-94075000D02*
X180320000Y-92745000D01*
X182980000Y-95345000D02*
X182980000Y-103025000D01*
%TO.C,J4*%
X153730000Y-73665000D02*
X153730000Y-83885000D01*
X151070000Y-71065000D02*
X152400000Y-71065000D01*
X151070000Y-73665000D02*
X151070000Y-83885000D01*
X151070000Y-83885000D02*
X153730000Y-83885000D01*
X151070000Y-73665000D02*
X153730000Y-73665000D01*
X151070000Y-72395000D02*
X151070000Y-71065000D01*
%TO.C,J2*%
X129740000Y-64740000D02*
X129740000Y-63990000D01*
X129740000Y-63990000D02*
X126790000Y-63990000D01*
X126790000Y-63990000D02*
X126790000Y-60940000D01*
X129740000Y-57890000D02*
X126790000Y-57890000D01*
X131990000Y-61440000D02*
X131990000Y-60440000D01*
X131990000Y-60440000D02*
X131240000Y-60440000D01*
X131240000Y-60440000D02*
X131240000Y-61440000D01*
X131240000Y-62940000D02*
X131240000Y-64740000D01*
X131990000Y-64740000D02*
X131990000Y-62940000D01*
X132290000Y-56840000D02*
X131040000Y-56840000D01*
X132000000Y-57130000D02*
X126030000Y-57130000D01*
X131990000Y-57140000D02*
X131240000Y-57140000D01*
X126030000Y-57130000D02*
X126030000Y-64750000D01*
X131240000Y-61440000D02*
X131990000Y-61440000D01*
X129740000Y-57140000D02*
X129740000Y-57890000D01*
X131240000Y-57140000D02*
X131240000Y-58940000D01*
X132290000Y-58090000D02*
X132290000Y-56840000D01*
X131240000Y-64740000D02*
X131990000Y-64740000D01*
X131990000Y-58940000D02*
X131990000Y-57140000D01*
X132000000Y-64750000D02*
X132000000Y-57130000D01*
X126790000Y-57890000D02*
X126790000Y-60940000D01*
X131990000Y-62940000D02*
X131240000Y-62940000D01*
X126030000Y-64750000D02*
X132000000Y-64750000D01*
X131240000Y-58940000D02*
X131990000Y-58940000D01*
%TO.C,J1*%
X109160000Y-58115000D02*
X109160000Y-55515000D01*
X111820000Y-60715000D02*
X110490000Y-60715000D01*
X111820000Y-58115000D02*
X109160000Y-58115000D01*
X111820000Y-58115000D02*
X111820000Y-55515000D01*
X111820000Y-55515000D02*
X109160000Y-55515000D01*
X111820000Y-59385000D02*
X111820000Y-60715000D01*
%TO.C,C2*%
X174720000Y-58400000D02*
G75*
G03*
X174720000Y-58400000I-3270000J0D01*
G01*
%TO.C,C1*%
X163290000Y-58400000D02*
G75*
G03*
X163290000Y-58400000I-3270000J0D01*
G01*
%TO.C,U2*%
X116900000Y-100305000D02*
G75*
G03*
X116900000Y-102305000I0J-1000000D01*
G01*
X116900000Y-100305000D02*
X116900000Y-98655000D01*
X116900000Y-103955000D02*
X116900000Y-102305000D01*
X116900000Y-98655000D02*
X111700000Y-98655000D01*
X111700000Y-98655000D02*
X111700000Y-103955000D01*
X111700000Y-103955000D02*
X116900000Y-103955000D01*
%TO.C,Q2*%
X113070000Y-72575000D02*
X102830000Y-72575000D01*
X102830000Y-74085000D02*
X102830000Y-69444000D01*
X113070000Y-69444000D02*
X102830000Y-69444000D01*
X113070000Y-74085000D02*
X113070000Y-69444000D01*
X106099000Y-74085000D02*
X106099000Y-72575000D01*
X109800000Y-74085000D02*
X109800000Y-72575000D01*
X113070000Y-74085000D02*
X102830000Y-74085000D01*
%TO.C,D2*%
X117390000Y-91335000D02*
X117390000Y-88395000D01*
X117270000Y-91335000D02*
X117270000Y-88395000D01*
X118290000Y-88395000D02*
X112850000Y-88395000D01*
X111830000Y-89865000D02*
X112850000Y-89865000D01*
X118290000Y-91335000D02*
X118290000Y-88395000D01*
X117510000Y-91335000D02*
X117510000Y-88395000D01*
X112850000Y-88395000D02*
X112850000Y-91335000D01*
X119310000Y-89865000D02*
X118290000Y-89865000D01*
X112850000Y-91335000D02*
X118290000Y-91335000D01*
%TO.C,D1*%
X136980000Y-92910000D02*
X142420000Y-92910000D01*
X143440000Y-91440000D02*
X142420000Y-91440000D01*
X136980000Y-89970000D02*
X136980000Y-92910000D01*
X141640000Y-92910000D02*
X141640000Y-89970000D01*
X142420000Y-92910000D02*
X142420000Y-89970000D01*
X135960000Y-91440000D02*
X136980000Y-91440000D01*
X142420000Y-89970000D02*
X136980000Y-89970000D01*
X141400000Y-92910000D02*
X141400000Y-89970000D01*
X141520000Y-92910000D02*
X141520000Y-89970000D01*
%TO.C,U1*%
X137100000Y-106790000D02*
X142300000Y-106790000D01*
X137100000Y-101490000D02*
X137100000Y-106790000D01*
X142300000Y-101490000D02*
X137100000Y-101490000D01*
X142300000Y-106790000D02*
X142300000Y-105140000D01*
X142300000Y-103140000D02*
X142300000Y-101490000D01*
X142300000Y-103140000D02*
G75*
G03*
X142300000Y-105140000I0J-1000000D01*
G01*
%TO.C,Q1*%
X138470000Y-72510000D02*
X128230000Y-72510000D01*
X128230000Y-74020000D02*
X128230000Y-69379000D01*
X138470000Y-69379000D02*
X128230000Y-69379000D01*
X138470000Y-74020000D02*
X138470000Y-69379000D01*
X131499000Y-74020000D02*
X131499000Y-72510000D01*
X135200000Y-74020000D02*
X135200000Y-72510000D01*
X138470000Y-74020000D02*
X128230000Y-74020000D01*
%TO.C,A1*%
X161290000Y-67310000D02*
X158620000Y-67310000D01*
X171580000Y-110620000D02*
X163700000Y-110620000D01*
X176660000Y-108080000D02*
X176660000Y-64640000D01*
X163700000Y-110620000D02*
X163700000Y-100200000D01*
X171580000Y-100200000D02*
X171580000Y-110620000D01*
X176660000Y-108080000D02*
X171580000Y-108080000D01*
X158620000Y-69850000D02*
X158620000Y-108080000D01*
X161290000Y-105410000D02*
X158620000Y-105410000D01*
X173990000Y-67310000D02*
X173990000Y-105410000D01*
X161290000Y-69850000D02*
X161290000Y-67310000D01*
X173990000Y-105410000D02*
X176660000Y-105410000D01*
X173990000Y-67310000D02*
X176660000Y-67310000D01*
X161290000Y-69850000D02*
X158620000Y-69850000D01*
X176660000Y-64640000D02*
X158620000Y-64640000D01*
X158620000Y-108080000D02*
X163700000Y-108080000D01*
X158620000Y-64640000D02*
X158620000Y-67310000D01*
X163700000Y-100200000D02*
X171580000Y-100200000D01*
X161290000Y-69850000D02*
X161290000Y-105410000D01*
%TD*%
M02*
