%TF.GenerationSoftware,KiCad,Pcbnew,7.0.5-0*%
%TF.CreationDate,2023-06-24T13:36:58+02:00*%
%TF.ProjectId,spoje_pcb,73706f6a-655f-4706-9362-2e6b69636164,rev?*%
%TF.SameCoordinates,Original*%
%TF.FileFunction,Drillmap*%
%TF.FilePolarity,Positive*%
%FSLAX45Y45*%
G04 Gerber Fmt 4.5, Leading zero omitted, Abs format (unit mm)*
G04 Created by KiCad (PCBNEW 7.0.5-0) date 2023-06-24 13:36:58*
%MOMM*%
%LPD*%
G01*
G04 APERTURE LIST*
%ADD10C,0.100000*%
%ADD11C,0.200000*%
G04 APERTURE END LIST*
D10*
X9525000Y-4826000D02*
X19050000Y-4826000D01*
X19050000Y-11557000D01*
X9525000Y-11557000D01*
X9525000Y-4826000D01*
D11*
X9780777Y-11873484D02*
X9780777Y-11673484D01*
X9780777Y-11673484D02*
X9828396Y-11673484D01*
X9828396Y-11673484D02*
X9856967Y-11683008D01*
X9856967Y-11683008D02*
X9876015Y-11702055D01*
X9876015Y-11702055D02*
X9885539Y-11721103D01*
X9885539Y-11721103D02*
X9895063Y-11759198D01*
X9895063Y-11759198D02*
X9895063Y-11787769D01*
X9895063Y-11787769D02*
X9885539Y-11825865D01*
X9885539Y-11825865D02*
X9876015Y-11844912D01*
X9876015Y-11844912D02*
X9856967Y-11863960D01*
X9856967Y-11863960D02*
X9828396Y-11873484D01*
X9828396Y-11873484D02*
X9780777Y-11873484D01*
X9980777Y-11873484D02*
X9980777Y-11740150D01*
X9980777Y-11778246D02*
X9990301Y-11759198D01*
X9990301Y-11759198D02*
X9999824Y-11749674D01*
X9999824Y-11749674D02*
X10018872Y-11740150D01*
X10018872Y-11740150D02*
X10037920Y-11740150D01*
X10104586Y-11873484D02*
X10104586Y-11740150D01*
X10104586Y-11673484D02*
X10095063Y-11683008D01*
X10095063Y-11683008D02*
X10104586Y-11692531D01*
X10104586Y-11692531D02*
X10114110Y-11683008D01*
X10114110Y-11683008D02*
X10104586Y-11673484D01*
X10104586Y-11673484D02*
X10104586Y-11692531D01*
X10228396Y-11873484D02*
X10209348Y-11863960D01*
X10209348Y-11863960D02*
X10199824Y-11844912D01*
X10199824Y-11844912D02*
X10199824Y-11673484D01*
X10333158Y-11873484D02*
X10314110Y-11863960D01*
X10314110Y-11863960D02*
X10304586Y-11844912D01*
X10304586Y-11844912D02*
X10304586Y-11673484D01*
X10561729Y-11873484D02*
X10561729Y-11673484D01*
X10561729Y-11673484D02*
X10628396Y-11816341D01*
X10628396Y-11816341D02*
X10695063Y-11673484D01*
X10695063Y-11673484D02*
X10695063Y-11873484D01*
X10876015Y-11873484D02*
X10876015Y-11768722D01*
X10876015Y-11768722D02*
X10866491Y-11749674D01*
X10866491Y-11749674D02*
X10847444Y-11740150D01*
X10847444Y-11740150D02*
X10809348Y-11740150D01*
X10809348Y-11740150D02*
X10790301Y-11749674D01*
X10876015Y-11863960D02*
X10856967Y-11873484D01*
X10856967Y-11873484D02*
X10809348Y-11873484D01*
X10809348Y-11873484D02*
X10790301Y-11863960D01*
X10790301Y-11863960D02*
X10780777Y-11844912D01*
X10780777Y-11844912D02*
X10780777Y-11825865D01*
X10780777Y-11825865D02*
X10790301Y-11806817D01*
X10790301Y-11806817D02*
X10809348Y-11797293D01*
X10809348Y-11797293D02*
X10856967Y-11797293D01*
X10856967Y-11797293D02*
X10876015Y-11787769D01*
X10971253Y-11740150D02*
X10971253Y-11940150D01*
X10971253Y-11749674D02*
X10990301Y-11740150D01*
X10990301Y-11740150D02*
X11028396Y-11740150D01*
X11028396Y-11740150D02*
X11047444Y-11749674D01*
X11047444Y-11749674D02*
X11056967Y-11759198D01*
X11056967Y-11759198D02*
X11066491Y-11778246D01*
X11066491Y-11778246D02*
X11066491Y-11835388D01*
X11066491Y-11835388D02*
X11056967Y-11854436D01*
X11056967Y-11854436D02*
X11047444Y-11863960D01*
X11047444Y-11863960D02*
X11028396Y-11873484D01*
X11028396Y-11873484D02*
X10990301Y-11873484D01*
X10990301Y-11873484D02*
X10971253Y-11863960D01*
X11152205Y-11854436D02*
X11161729Y-11863960D01*
X11161729Y-11863960D02*
X11152205Y-11873484D01*
X11152205Y-11873484D02*
X11142682Y-11863960D01*
X11142682Y-11863960D02*
X11152205Y-11854436D01*
X11152205Y-11854436D02*
X11152205Y-11873484D01*
X11152205Y-11749674D02*
X11161729Y-11759198D01*
X11161729Y-11759198D02*
X11152205Y-11768722D01*
X11152205Y-11768722D02*
X11142682Y-11759198D01*
X11142682Y-11759198D02*
X11152205Y-11749674D01*
X11152205Y-11749674D02*
X11152205Y-11768722D01*
M02*
