%TF.GenerationSoftware,KiCad,Pcbnew,7.0.5-0*%
%TF.CreationDate,2023-06-24T13:37:05+02:00*%
%TF.ProjectId,spoje_pcb,73706f6a-655f-4706-9362-2e6b69636164,rev?*%
%TF.SameCoordinates,Original*%
%TF.FileFunction,Soldermask,Bot*%
%TF.FilePolarity,Negative*%
%FSLAX46Y46*%
G04 Gerber Fmt 4.6, Leading zero omitted, Abs format (unit mm)*
G04 Created by KiCad (PCBNEW 7.0.5-0) date 2023-06-24 13:37:05*
%MOMM*%
%LPD*%
G01*
G04 APERTURE LIST*
G04 Aperture macros list*
%AMRoundRect*
0 Rectangle with rounded corners*
0 $1 Rounding radius*
0 $2 $3 $4 $5 $6 $7 $8 $9 X,Y pos of 4 corners*
0 Add a 4 corners polygon primitive as box body*
4,1,4,$2,$3,$4,$5,$6,$7,$8,$9,$2,$3,0*
0 Add four circle primitives for the rounded corners*
1,1,$1+$1,$2,$3*
1,1,$1+$1,$4,$5*
1,1,$1+$1,$6,$7*
1,1,$1+$1,$8,$9*
0 Add four rect primitives between the rounded corners*
20,1,$1+$1,$2,$3,$4,$5,0*
20,1,$1+$1,$4,$5,$6,$7,0*
20,1,$1+$1,$6,$7,$8,$9,0*
20,1,$1+$1,$8,$9,$2,$3,0*%
G04 Aperture macros list end*
%ADD10C,1.600000*%
%ADD11O,1.600000X1.600000*%
%ADD12C,2.400000*%
%ADD13O,2.400000X2.400000*%
%ADD14C,2.800000*%
%ADD15O,2.800000X2.800000*%
%ADD16RoundRect,0.250000X0.750000X-0.600000X0.750000X0.600000X-0.750000X0.600000X-0.750000X-0.600000X0*%
%ADD17O,2.000000X1.700000*%
%ADD18R,1.700000X1.700000*%
%ADD19O,1.700000X1.700000*%
%ADD20RoundRect,0.250000X-0.750000X0.600000X-0.750000X-0.600000X0.750000X-0.600000X0.750000X0.600000X0*%
%ADD21R,1.600000X1.600000*%
%ADD22O,1.905000X2.000000*%
%ADD23R,1.905000X2.000000*%
%ADD24R,2.200000X2.200000*%
%ADD25O,2.200000X2.200000*%
G04 APERTURE END LIST*
D10*
%TO.C,R12*%
X137160000Y-54610000D03*
D11*
X127000000Y-54610000D03*
%TD*%
D10*
%TO.C,R11*%
X110490000Y-63195000D03*
D11*
X120650000Y-63195000D03*
%TD*%
D10*
%TO.C,R10*%
X124460000Y-83820000D03*
D11*
X124460000Y-73660000D03*
%TD*%
D12*
%TO.C,R9*%
X120650000Y-83515000D03*
D13*
X120650000Y-68275000D03*
%TD*%
D10*
%TO.C,R7*%
X115255765Y-80975000D03*
D11*
X115255765Y-70815000D03*
%TD*%
D10*
%TO.C,R5*%
X148590000Y-83820000D03*
D11*
X148590000Y-73660000D03*
%TD*%
D10*
%TO.C,R4*%
X140970000Y-80910000D03*
D11*
X140970000Y-70750000D03*
%TD*%
D12*
%TO.C,R2*%
X144780000Y-83820000D03*
D13*
X144780000Y-68580000D03*
%TD*%
D14*
%TO.C,R8*%
X102870000Y-87469235D03*
D15*
X102870000Y-107789235D03*
%TD*%
D14*
%TO.C,R1*%
X128270000Y-87630000D03*
D15*
X128270000Y-107950000D03*
%TD*%
D16*
%TO.C,J12*%
X118110000Y-58115000D03*
D17*
X118110000Y-55615000D03*
%TD*%
D18*
%TO.C,J3*%
X153670000Y-97790000D03*
D19*
X153670000Y-95250000D03*
X153670000Y-92710000D03*
%TD*%
%TO.C,J11*%
X137160000Y-60960000D03*
D18*
X137160000Y-58420000D03*
%TD*%
D16*
%TO.C,J10*%
X102870000Y-81915000D03*
D17*
X102870000Y-79415000D03*
%TD*%
D18*
%TO.C,J9*%
X181610000Y-68675000D03*
D19*
X181610000Y-66135000D03*
%TD*%
D16*
%TO.C,J8*%
X129540000Y-81280000D03*
D17*
X129540000Y-78780000D03*
%TD*%
D18*
%TO.C,J7*%
X181610000Y-78105000D03*
D19*
X181610000Y-75565000D03*
%TD*%
D18*
%TO.C,J6*%
X181610000Y-88265000D03*
D19*
X181610000Y-85725000D03*
%TD*%
%TO.C,J5*%
X181650000Y-101695000D03*
X181650000Y-99155000D03*
X181650000Y-96615000D03*
D18*
X181650000Y-94075000D03*
%TD*%
%TO.C,J4*%
X152400000Y-72395000D03*
D19*
X152400000Y-74935000D03*
X152400000Y-77475000D03*
X152400000Y-80015000D03*
X152400000Y-82555000D03*
%TD*%
D20*
%TO.C,J2*%
X129540000Y-59690000D03*
D17*
X129540000Y-62190000D03*
%TD*%
D19*
%TO.C,J1*%
X110490000Y-56845000D03*
D18*
X110490000Y-59385000D03*
%TD*%
D10*
%TO.C,C2*%
X171450000Y-57150000D03*
X171450000Y-59650000D03*
%TD*%
%TO.C,C1*%
X160020000Y-57150000D03*
X160020000Y-59650000D03*
%TD*%
D11*
%TO.C,U2*%
X115570000Y-105115000D03*
X113030000Y-105115000D03*
X113030000Y-97495000D03*
D21*
X115570000Y-97495000D03*
%TD*%
D22*
%TO.C,Q2*%
X105410000Y-70815000D03*
X107950000Y-70815000D03*
D23*
X110490000Y-70815000D03*
%TD*%
D24*
%TO.C,D2*%
X120650000Y-89865000D03*
D25*
X110490000Y-89865000D03*
%TD*%
%TO.C,D1*%
X134620000Y-91440000D03*
D24*
X144780000Y-91440000D03*
%TD*%
D21*
%TO.C,U1*%
X140970000Y-100330000D03*
D11*
X138430000Y-100330000D03*
X138430000Y-107950000D03*
X140970000Y-107950000D03*
%TD*%
D22*
%TO.C,Q1*%
X130810000Y-70750000D03*
X133350000Y-70750000D03*
D23*
X135890000Y-70750000D03*
%TD*%
D21*
%TO.C,A1*%
X160020000Y-68580000D03*
D11*
X160020000Y-71120000D03*
X160020000Y-73660000D03*
X160020000Y-76200000D03*
X160020000Y-78740000D03*
X160020000Y-81280000D03*
X160020000Y-83820000D03*
X160020000Y-86360000D03*
X160020000Y-88900000D03*
X160020000Y-91440000D03*
X160020000Y-93980000D03*
X160020000Y-96520000D03*
X160020000Y-99060000D03*
X160020000Y-101600000D03*
X160020000Y-104140000D03*
X175260000Y-104140000D03*
X175260000Y-101600000D03*
X175260000Y-99060000D03*
X175260000Y-96520000D03*
X175260000Y-93980000D03*
X175260000Y-91440000D03*
X175260000Y-88900000D03*
X175260000Y-86360000D03*
X175260000Y-83820000D03*
X175260000Y-81280000D03*
X175260000Y-78740000D03*
X175260000Y-76200000D03*
X175260000Y-73660000D03*
X175260000Y-71120000D03*
X175260000Y-68580000D03*
%TD*%
M02*
