M48
; DRILL file {KiCad 7.0.5-0} date 2023 June 24, Saturday 13:36:56
; FORMAT={-:-/ absolute / inch / decimal}
; #@! TF.CreationDate,2023-06-24T13:36:56+02:00
; #@! TF.GenerationSoftware,Kicad,Pcbnew,7.0.5-0
; #@! TF.FileFunction,Plated,1,2,PTH
FMAT,2
INCH
; #@! TA.AperFunction,Plated,PTH,ViaDrill
T1C0.0118
; #@! TA.AperFunction,Plated,PTH,ViaDrill
T2C0.0197
; #@! TA.AperFunction,Plated,PTH,ComponentDrill
T3C0.0315
; #@! TA.AperFunction,Plated,PTH,ComponentDrill
T4C0.0394
; #@! TA.AperFunction,Plated,PTH,ComponentDrill
T5C0.0433
; #@! TA.AperFunction,Plated,PTH,ComponentDrill
T6C0.0472
; #@! TA.AperFunction,Plated,PTH,ComponentDrill
T7C0.0551
%
G90
G05
T1
X4.35Y-3.05
T2
X5.4Y-3.05
X6.15Y-3.4
X6.15Y-3.5
T3
X4.35Y-2.488
X4.45Y-3.8384
X4.45Y-4.1384
X4.5376Y-2.788
X4.5376Y-3.188
X4.55Y-3.8384
X4.55Y-4.1384
X4.75Y-2.488
X4.9Y-2.9
X4.9Y-3.3
X5.0Y-2.15
X5.4Y-2.15
X5.45Y-3.95
X5.45Y-4.25
X5.55Y-2.7854
X5.55Y-3.1854
X5.55Y-3.95
X5.55Y-4.25
X5.85Y-2.9
X5.85Y-3.3
X6.3Y-2.25
X6.3Y-2.3484
X6.75Y-2.25
X6.75Y-2.3484
T4
X4.05Y-3.1266
X4.05Y-3.225
X4.35Y-2.238
X4.35Y-2.338
X4.65Y-2.1896
X4.65Y-2.288
X5.1Y-2.35
X5.1Y-2.4484
X5.1Y-3.1016
X5.1Y-3.2
X5.4Y-2.3
X5.4Y-2.4
X6.0Y-2.8502
X6.0Y-2.9502
X6.0Y-3.0502
X6.0Y-3.1502
X6.0Y-3.2502
X6.05Y-3.65
X6.05Y-3.75
X6.05Y-3.85
X6.3Y-2.7
X6.3Y-2.8
X6.3Y-2.9
X6.3Y-3.0
X6.3Y-3.1
X6.3Y-3.2
X6.3Y-3.3
X6.3Y-3.4
X6.3Y-3.5
X6.3Y-3.6
X6.3Y-3.7
X6.3Y-3.8
X6.3Y-3.9
X6.3Y-4.0
X6.3Y-4.1
X6.9Y-2.7
X6.9Y-2.8
X6.9Y-2.9
X6.9Y-3.0
X6.9Y-3.1
X6.9Y-3.2
X6.9Y-3.3
X6.9Y-3.4
X6.9Y-3.5
X6.9Y-3.6
X6.9Y-3.7
X6.9Y-3.8
X6.9Y-3.9
X6.9Y-4.0
X6.9Y-4.1
X7.15Y-2.6037
X7.15Y-2.7037
X7.15Y-2.975
X7.15Y-3.075
X7.15Y-3.375
X7.15Y-3.475
X7.1516Y-3.7037
X7.1516Y-3.8037
X7.1516Y-3.9037
X7.1516Y-4.0037
T5
X4.15Y-2.788
X4.25Y-2.788
X4.35Y-2.788
X4.35Y-3.538
X4.75Y-3.538
X5.15Y-2.7854
X5.25Y-2.7854
X5.3Y-3.6
X5.35Y-2.7854
X5.7Y-3.6
T6
X4.75Y-2.688
X4.75Y-3.288
X5.7Y-2.7
X5.7Y-3.3
T7
X4.05Y-3.4437
X4.05Y-4.2437
X5.05Y-3.45
X5.05Y-4.25
T0
M30
