%TF.GenerationSoftware,KiCad,Pcbnew,7.0.5-0*%
%TF.CreationDate,2023-06-24T13:36:58+02:00*%
%TF.ProjectId,spoje_pcb,73706f6a-655f-4706-9362-2e6b69636164,rev?*%
%TF.SameCoordinates,Original*%
%TF.FileFunction,Drillmap*%
%TF.FilePolarity,Positive*%
%FSLAX45Y45*%
G04 Gerber Fmt 4.5, Leading zero omitted, Abs format (unit mm)*
G04 Created by KiCad (PCBNEW 7.0.5-0) date 2023-06-24 13:36:58*
%MOMM*%
%LPD*%
G01*
G04 APERTURE LIST*
%ADD10C,0.100000*%
%ADD11C,0.200000*%
%ADD12C,0.030000*%
%ADD13C,0.050000*%
%ADD14C,0.080000*%
%ADD15C,0.110000*%
%ADD16C,0.120000*%
%ADD17C,0.140000*%
G04 APERTURE END LIST*
D10*
X9525000Y-4826000D02*
X19050000Y-4826000D01*
X19050000Y-11557000D01*
X9525000Y-11557000D01*
X9525000Y-4826000D01*
D11*
D12*
X11034000Y-7732000D02*
X11064000Y-7762000D01*
X11064000Y-7732000D02*
X11034000Y-7762000D01*
D13*
X13741000Y-7747000D02*
G75*
G03*
X13741000Y-7747000I-25000J0D01*
G01*
X15646000Y-8636000D02*
G75*
G03*
X15646000Y-8636000I-25000J0D01*
G01*
X15646000Y-8890000D02*
G75*
G03*
X15646000Y-8890000I-25000J0D01*
G01*
D14*
X11049000Y-6279500D02*
X11049000Y-6359500D01*
X11009000Y-6319500D02*
X11089000Y-6319500D01*
X11303000Y-9709500D02*
X11303000Y-9789500D01*
X11263000Y-9749500D02*
X11343000Y-9749500D01*
X11303000Y-10471500D02*
X11303000Y-10551500D01*
X11263000Y-10511500D02*
X11343000Y-10511500D01*
X11525576Y-7041500D02*
X11525576Y-7121500D01*
X11485576Y-7081500D02*
X11565576Y-7081500D01*
X11525576Y-8057500D02*
X11525576Y-8137500D01*
X11485576Y-8097500D02*
X11565576Y-8097500D01*
X11557000Y-9709500D02*
X11557000Y-9789500D01*
X11517000Y-9749500D02*
X11597000Y-9749500D01*
X11557000Y-10471500D02*
X11557000Y-10551500D01*
X11517000Y-10511500D02*
X11597000Y-10511500D01*
X12065000Y-6279500D02*
X12065000Y-6359500D01*
X12025000Y-6319500D02*
X12105000Y-6319500D01*
X12446000Y-7326000D02*
X12446000Y-7406000D01*
X12406000Y-7366000D02*
X12486000Y-7366000D01*
X12446000Y-8342000D02*
X12446000Y-8422000D01*
X12406000Y-8382000D02*
X12486000Y-8382000D01*
X12700000Y-5421000D02*
X12700000Y-5501000D01*
X12660000Y-5461000D02*
X12740000Y-5461000D01*
X13716000Y-5421000D02*
X13716000Y-5501000D01*
X13676000Y-5461000D02*
X13756000Y-5461000D01*
X13843000Y-9993000D02*
X13843000Y-10073000D01*
X13803000Y-10033000D02*
X13883000Y-10033000D01*
X13843000Y-10755000D02*
X13843000Y-10835000D01*
X13803000Y-10795000D02*
X13883000Y-10795000D01*
X14097000Y-7035000D02*
X14097000Y-7115000D01*
X14057000Y-7075000D02*
X14137000Y-7075000D01*
X14097000Y-8051000D02*
X14097000Y-8131000D01*
X14057000Y-8091000D02*
X14137000Y-8091000D01*
X14097000Y-9993000D02*
X14097000Y-10073000D01*
X14057000Y-10033000D02*
X14137000Y-10033000D01*
X14097000Y-10755000D02*
X14097000Y-10835000D01*
X14057000Y-10795000D02*
X14137000Y-10795000D01*
X14859000Y-7326000D02*
X14859000Y-7406000D01*
X14819000Y-7366000D02*
X14899000Y-7366000D01*
X14859000Y-8342000D02*
X14859000Y-8422000D01*
X14819000Y-8382000D02*
X14899000Y-8382000D01*
X16002000Y-5675000D02*
X16002000Y-5755000D01*
X15962000Y-5715000D02*
X16042000Y-5715000D01*
X16002000Y-5925000D02*
X16002000Y-6005000D01*
X15962000Y-5965000D02*
X16042000Y-5965000D01*
X17145000Y-5675000D02*
X17145000Y-5755000D01*
X17105000Y-5715000D02*
X17185000Y-5715000D01*
X17145000Y-5925000D02*
X17145000Y-6005000D01*
X17105000Y-5965000D02*
X17185000Y-5965000D01*
D10*
X10322356Y-7976856D02*
X10322356Y-7906144D01*
X10251644Y-7906144D01*
X10251644Y-7976856D01*
X10322356Y-7976856D01*
X10322356Y-8226856D02*
X10322356Y-8156144D01*
X10251644Y-8156144D01*
X10251644Y-8226856D01*
X10322356Y-8226856D01*
X11084356Y-5719856D02*
X11084356Y-5649144D01*
X11013644Y-5649144D01*
X11013644Y-5719856D01*
X11084356Y-5719856D01*
X11084356Y-5973856D02*
X11084356Y-5903144D01*
X11013644Y-5903144D01*
X11013644Y-5973856D01*
X11084356Y-5973856D01*
X11846356Y-5596856D02*
X11846356Y-5526144D01*
X11775644Y-5526144D01*
X11775644Y-5596856D01*
X11846356Y-5596856D01*
X11846356Y-5846856D02*
X11846356Y-5776144D01*
X11775644Y-5776144D01*
X11775644Y-5846856D01*
X11846356Y-5846856D01*
X12989356Y-6004356D02*
X12989356Y-5933644D01*
X12918644Y-5933644D01*
X12918644Y-6004356D01*
X12989356Y-6004356D01*
X12989356Y-6254356D02*
X12989356Y-6183644D01*
X12918644Y-6183644D01*
X12918644Y-6254356D01*
X12989356Y-6254356D01*
X12989356Y-7913356D02*
X12989356Y-7842644D01*
X12918644Y-7842644D01*
X12918644Y-7913356D01*
X12989356Y-7913356D01*
X12989356Y-8163356D02*
X12989356Y-8092644D01*
X12918644Y-8092644D01*
X12918644Y-8163356D01*
X12989356Y-8163356D01*
X13751356Y-5877356D02*
X13751356Y-5806644D01*
X13680644Y-5806644D01*
X13680644Y-5877356D01*
X13751356Y-5877356D01*
X13751356Y-6131356D02*
X13751356Y-6060644D01*
X13680644Y-6060644D01*
X13680644Y-6131356D01*
X13751356Y-6131356D01*
X15275356Y-7274856D02*
X15275356Y-7204144D01*
X15204644Y-7204144D01*
X15204644Y-7274856D01*
X15275356Y-7274856D01*
X15275356Y-7528856D02*
X15275356Y-7458144D01*
X15204644Y-7458144D01*
X15204644Y-7528856D01*
X15275356Y-7528856D01*
X15275356Y-7782856D02*
X15275356Y-7712144D01*
X15204644Y-7712144D01*
X15204644Y-7782856D01*
X15275356Y-7782856D01*
X15275356Y-8036856D02*
X15275356Y-7966144D01*
X15204644Y-7966144D01*
X15204644Y-8036856D01*
X15275356Y-8036856D01*
X15275356Y-8290856D02*
X15275356Y-8220144D01*
X15204644Y-8220144D01*
X15204644Y-8290856D01*
X15275356Y-8290856D01*
X15402356Y-9306356D02*
X15402356Y-9235644D01*
X15331644Y-9235644D01*
X15331644Y-9306356D01*
X15402356Y-9306356D01*
X15402356Y-9560356D02*
X15402356Y-9489644D01*
X15331644Y-9489644D01*
X15331644Y-9560356D01*
X15402356Y-9560356D01*
X15402356Y-9814356D02*
X15402356Y-9743644D01*
X15331644Y-9743644D01*
X15331644Y-9814356D01*
X15402356Y-9814356D01*
X16037356Y-6893356D02*
X16037356Y-6822644D01*
X15966644Y-6822644D01*
X15966644Y-6893356D01*
X16037356Y-6893356D01*
X16037356Y-7147356D02*
X16037356Y-7076644D01*
X15966644Y-7076644D01*
X15966644Y-7147356D01*
X16037356Y-7147356D01*
X16037356Y-7401356D02*
X16037356Y-7330644D01*
X15966644Y-7330644D01*
X15966644Y-7401356D01*
X16037356Y-7401356D01*
X16037356Y-7655356D02*
X16037356Y-7584644D01*
X15966644Y-7584644D01*
X15966644Y-7655356D01*
X16037356Y-7655356D01*
X16037356Y-7909356D02*
X16037356Y-7838644D01*
X15966644Y-7838644D01*
X15966644Y-7909356D01*
X16037356Y-7909356D01*
X16037356Y-8163356D02*
X16037356Y-8092644D01*
X15966644Y-8092644D01*
X15966644Y-8163356D01*
X16037356Y-8163356D01*
X16037356Y-8417356D02*
X16037356Y-8346644D01*
X15966644Y-8346644D01*
X15966644Y-8417356D01*
X16037356Y-8417356D01*
X16037356Y-8671356D02*
X16037356Y-8600644D01*
X15966644Y-8600644D01*
X15966644Y-8671356D01*
X16037356Y-8671356D01*
X16037356Y-8925356D02*
X16037356Y-8854644D01*
X15966644Y-8854644D01*
X15966644Y-8925356D01*
X16037356Y-8925356D01*
X16037356Y-9179356D02*
X16037356Y-9108644D01*
X15966644Y-9108644D01*
X15966644Y-9179356D01*
X16037356Y-9179356D01*
X16037356Y-9433356D02*
X16037356Y-9362644D01*
X15966644Y-9362644D01*
X15966644Y-9433356D01*
X16037356Y-9433356D01*
X16037356Y-9687356D02*
X16037356Y-9616644D01*
X15966644Y-9616644D01*
X15966644Y-9687356D01*
X16037356Y-9687356D01*
X16037356Y-9941356D02*
X16037356Y-9870644D01*
X15966644Y-9870644D01*
X15966644Y-9941356D01*
X16037356Y-9941356D01*
X16037356Y-10195356D02*
X16037356Y-10124644D01*
X15966644Y-10124644D01*
X15966644Y-10195356D01*
X16037356Y-10195356D01*
X16037356Y-10449356D02*
X16037356Y-10378644D01*
X15966644Y-10378644D01*
X15966644Y-10449356D01*
X16037356Y-10449356D01*
X17561356Y-6893356D02*
X17561356Y-6822644D01*
X17490644Y-6822644D01*
X17490644Y-6893356D01*
X17561356Y-6893356D01*
X17561356Y-7147356D02*
X17561356Y-7076644D01*
X17490644Y-7076644D01*
X17490644Y-7147356D01*
X17561356Y-7147356D01*
X17561356Y-7401356D02*
X17561356Y-7330644D01*
X17490644Y-7330644D01*
X17490644Y-7401356D01*
X17561356Y-7401356D01*
X17561356Y-7655356D02*
X17561356Y-7584644D01*
X17490644Y-7584644D01*
X17490644Y-7655356D01*
X17561356Y-7655356D01*
X17561356Y-7909356D02*
X17561356Y-7838644D01*
X17490644Y-7838644D01*
X17490644Y-7909356D01*
X17561356Y-7909356D01*
X17561356Y-8163356D02*
X17561356Y-8092644D01*
X17490644Y-8092644D01*
X17490644Y-8163356D01*
X17561356Y-8163356D01*
X17561356Y-8417356D02*
X17561356Y-8346644D01*
X17490644Y-8346644D01*
X17490644Y-8417356D01*
X17561356Y-8417356D01*
X17561356Y-8671356D02*
X17561356Y-8600644D01*
X17490644Y-8600644D01*
X17490644Y-8671356D01*
X17561356Y-8671356D01*
X17561356Y-8925356D02*
X17561356Y-8854644D01*
X17490644Y-8854644D01*
X17490644Y-8925356D01*
X17561356Y-8925356D01*
X17561356Y-9179356D02*
X17561356Y-9108644D01*
X17490644Y-9108644D01*
X17490644Y-9179356D01*
X17561356Y-9179356D01*
X17561356Y-9433356D02*
X17561356Y-9362644D01*
X17490644Y-9362644D01*
X17490644Y-9433356D01*
X17561356Y-9433356D01*
X17561356Y-9687356D02*
X17561356Y-9616644D01*
X17490644Y-9616644D01*
X17490644Y-9687356D01*
X17561356Y-9687356D01*
X17561356Y-9941356D02*
X17561356Y-9870644D01*
X17490644Y-9870644D01*
X17490644Y-9941356D01*
X17561356Y-9941356D01*
X17561356Y-10195356D02*
X17561356Y-10124644D01*
X17490644Y-10124644D01*
X17490644Y-10195356D01*
X17561356Y-10195356D01*
X17561356Y-10449356D02*
X17561356Y-10378644D01*
X17490644Y-10378644D01*
X17490644Y-10449356D01*
X17561356Y-10449356D01*
X18196356Y-6648856D02*
X18196356Y-6578144D01*
X18125644Y-6578144D01*
X18125644Y-6648856D01*
X18196356Y-6648856D01*
X18196356Y-6902856D02*
X18196356Y-6832144D01*
X18125644Y-6832144D01*
X18125644Y-6902856D01*
X18196356Y-6902856D01*
X18196356Y-7591856D02*
X18196356Y-7521144D01*
X18125644Y-7521144D01*
X18125644Y-7591856D01*
X18196356Y-7591856D01*
X18196356Y-7845856D02*
X18196356Y-7775144D01*
X18125644Y-7775144D01*
X18125644Y-7845856D01*
X18196356Y-7845856D01*
X18196356Y-8607856D02*
X18196356Y-8537144D01*
X18125644Y-8537144D01*
X18125644Y-8607856D01*
X18196356Y-8607856D01*
X18196356Y-8861856D02*
X18196356Y-8791144D01*
X18125644Y-8791144D01*
X18125644Y-8861856D01*
X18196356Y-8861856D01*
X18200356Y-9442856D02*
X18200356Y-9372144D01*
X18129644Y-9372144D01*
X18129644Y-9442856D01*
X18200356Y-9442856D01*
X18200356Y-9696856D02*
X18200356Y-9626144D01*
X18129644Y-9626144D01*
X18129644Y-9696856D01*
X18200356Y-9696856D01*
X18200356Y-9950856D02*
X18200356Y-9880144D01*
X18129644Y-9880144D01*
X18129644Y-9950856D01*
X18200356Y-9950856D01*
X18200356Y-10204856D02*
X18200356Y-10134144D01*
X18129644Y-10134144D01*
X18129644Y-10204856D01*
X18200356Y-10204856D01*
D15*
X10541000Y-7136500D02*
X10596000Y-7081500D01*
X10541000Y-7026500D01*
X10486000Y-7081500D01*
X10541000Y-7136500D01*
X10795000Y-7136500D02*
X10850000Y-7081500D01*
X10795000Y-7026500D01*
X10740000Y-7081500D01*
X10795000Y-7136500D01*
X11049000Y-7136500D02*
X11104000Y-7081500D01*
X11049000Y-7026500D01*
X10994000Y-7081500D01*
X11049000Y-7136500D01*
X11049000Y-9041500D02*
X11104000Y-8986500D01*
X11049000Y-8931500D01*
X10994000Y-8986500D01*
X11049000Y-9041500D01*
X12065000Y-9041500D02*
X12120000Y-8986500D01*
X12065000Y-8931500D01*
X12010000Y-8986500D01*
X12065000Y-9041500D01*
X13081000Y-7130000D02*
X13136000Y-7075000D01*
X13081000Y-7020000D01*
X13026000Y-7075000D01*
X13081000Y-7130000D01*
X13335000Y-7130000D02*
X13390000Y-7075000D01*
X13335000Y-7020000D01*
X13280000Y-7075000D01*
X13335000Y-7130000D01*
X13462000Y-9199000D02*
X13517000Y-9144000D01*
X13462000Y-9089000D01*
X13407000Y-9144000D01*
X13462000Y-9199000D01*
X13589000Y-7130000D02*
X13644000Y-7075000D01*
X13589000Y-7020000D01*
X13534000Y-7075000D01*
X13589000Y-7130000D01*
X14478000Y-9199000D02*
X14533000Y-9144000D01*
X14478000Y-9089000D01*
X14423000Y-9144000D01*
X14478000Y-9199000D01*
D16*
X12005000Y-6767500D02*
X12125000Y-6887500D01*
X12125000Y-6767500D02*
X12005000Y-6887500D01*
X12125000Y-6827500D02*
G75*
G03*
X12125000Y-6827500I-60000J0D01*
G01*
X12005000Y-8291500D02*
X12125000Y-8411500D01*
X12125000Y-8291500D02*
X12005000Y-8411500D01*
X12125000Y-8351500D02*
G75*
G03*
X12125000Y-8351500I-60000J0D01*
G01*
X14418000Y-6798000D02*
X14538000Y-6918000D01*
X14538000Y-6798000D02*
X14418000Y-6918000D01*
X14538000Y-6858000D02*
G75*
G03*
X14538000Y-6858000I-60000J0D01*
G01*
X14418000Y-8322000D02*
X14538000Y-8442000D01*
X14538000Y-8322000D02*
X14418000Y-8442000D01*
X14538000Y-8382000D02*
G75*
G03*
X14538000Y-8382000I-60000J0D01*
G01*
D17*
X10217000Y-8676924D02*
X10357000Y-8816924D01*
X10357000Y-8676924D02*
X10217000Y-8816924D01*
X10287000Y-8676924D02*
X10287000Y-8816924D01*
X10217000Y-8746924D02*
X10357000Y-8746924D01*
X10217000Y-10708924D02*
X10357000Y-10848924D01*
X10357000Y-10708924D02*
X10217000Y-10848924D01*
X10287000Y-10708924D02*
X10287000Y-10848924D01*
X10217000Y-10778924D02*
X10357000Y-10778924D01*
X12757000Y-8693000D02*
X12897000Y-8833000D01*
X12897000Y-8693000D02*
X12757000Y-8833000D01*
X12827000Y-8693000D02*
X12827000Y-8833000D01*
X12757000Y-8763000D02*
X12897000Y-8763000D01*
X12757000Y-10725000D02*
X12897000Y-10865000D01*
X12897000Y-10725000D02*
X12757000Y-10865000D01*
X12827000Y-10725000D02*
X12827000Y-10865000D01*
X12757000Y-10795000D02*
X12897000Y-10795000D01*
D11*
X9780777Y-11873484D02*
X9780777Y-11673484D01*
X9780777Y-11673484D02*
X9828396Y-11673484D01*
X9828396Y-11673484D02*
X9856967Y-11683008D01*
X9856967Y-11683008D02*
X9876015Y-11702055D01*
X9876015Y-11702055D02*
X9885539Y-11721103D01*
X9885539Y-11721103D02*
X9895063Y-11759198D01*
X9895063Y-11759198D02*
X9895063Y-11787769D01*
X9895063Y-11787769D02*
X9885539Y-11825865D01*
X9885539Y-11825865D02*
X9876015Y-11844912D01*
X9876015Y-11844912D02*
X9856967Y-11863960D01*
X9856967Y-11863960D02*
X9828396Y-11873484D01*
X9828396Y-11873484D02*
X9780777Y-11873484D01*
X9980777Y-11873484D02*
X9980777Y-11740150D01*
X9980777Y-11778246D02*
X9990301Y-11759198D01*
X9990301Y-11759198D02*
X9999824Y-11749674D01*
X9999824Y-11749674D02*
X10018872Y-11740150D01*
X10018872Y-11740150D02*
X10037920Y-11740150D01*
X10104586Y-11873484D02*
X10104586Y-11740150D01*
X10104586Y-11673484D02*
X10095063Y-11683008D01*
X10095063Y-11683008D02*
X10104586Y-11692531D01*
X10104586Y-11692531D02*
X10114110Y-11683008D01*
X10114110Y-11683008D02*
X10104586Y-11673484D01*
X10104586Y-11673484D02*
X10104586Y-11692531D01*
X10228396Y-11873484D02*
X10209348Y-11863960D01*
X10209348Y-11863960D02*
X10199824Y-11844912D01*
X10199824Y-11844912D02*
X10199824Y-11673484D01*
X10333158Y-11873484D02*
X10314110Y-11863960D01*
X10314110Y-11863960D02*
X10304586Y-11844912D01*
X10304586Y-11844912D02*
X10304586Y-11673484D01*
X10561729Y-11873484D02*
X10561729Y-11673484D01*
X10561729Y-11673484D02*
X10628396Y-11816341D01*
X10628396Y-11816341D02*
X10695063Y-11673484D01*
X10695063Y-11673484D02*
X10695063Y-11873484D01*
X10876015Y-11873484D02*
X10876015Y-11768722D01*
X10876015Y-11768722D02*
X10866491Y-11749674D01*
X10866491Y-11749674D02*
X10847444Y-11740150D01*
X10847444Y-11740150D02*
X10809348Y-11740150D01*
X10809348Y-11740150D02*
X10790301Y-11749674D01*
X10876015Y-11863960D02*
X10856967Y-11873484D01*
X10856967Y-11873484D02*
X10809348Y-11873484D01*
X10809348Y-11873484D02*
X10790301Y-11863960D01*
X10790301Y-11863960D02*
X10780777Y-11844912D01*
X10780777Y-11844912D02*
X10780777Y-11825865D01*
X10780777Y-11825865D02*
X10790301Y-11806817D01*
X10790301Y-11806817D02*
X10809348Y-11797293D01*
X10809348Y-11797293D02*
X10856967Y-11797293D01*
X10856967Y-11797293D02*
X10876015Y-11787769D01*
X10971253Y-11740150D02*
X10971253Y-11940150D01*
X10971253Y-11749674D02*
X10990301Y-11740150D01*
X10990301Y-11740150D02*
X11028396Y-11740150D01*
X11028396Y-11740150D02*
X11047444Y-11749674D01*
X11047444Y-11749674D02*
X11056967Y-11759198D01*
X11056967Y-11759198D02*
X11066491Y-11778246D01*
X11066491Y-11778246D02*
X11066491Y-11835388D01*
X11066491Y-11835388D02*
X11056967Y-11854436D01*
X11056967Y-11854436D02*
X11047444Y-11863960D01*
X11047444Y-11863960D02*
X11028396Y-11873484D01*
X11028396Y-11873484D02*
X10990301Y-11873484D01*
X10990301Y-11873484D02*
X10971253Y-11863960D01*
X11152205Y-11854436D02*
X11161729Y-11863960D01*
X11161729Y-11863960D02*
X11152205Y-11873484D01*
X11152205Y-11873484D02*
X11142682Y-11863960D01*
X11142682Y-11863960D02*
X11152205Y-11854436D01*
X11152205Y-11854436D02*
X11152205Y-11873484D01*
X11152205Y-11749674D02*
X11161729Y-11759198D01*
X11161729Y-11759198D02*
X11152205Y-11768722D01*
X11152205Y-11768722D02*
X11142682Y-11759198D01*
X11142682Y-11759198D02*
X11152205Y-11749674D01*
X11152205Y-11749674D02*
X11152205Y-11768722D01*
D12*
X9490000Y-12187000D02*
X9520000Y-12217000D01*
X9520000Y-12187000D02*
X9490000Y-12217000D01*
D11*
X9818872Y-12093484D02*
X9837920Y-12093484D01*
X9837920Y-12093484D02*
X9856967Y-12103008D01*
X9856967Y-12103008D02*
X9866491Y-12112531D01*
X9866491Y-12112531D02*
X9876015Y-12131579D01*
X9876015Y-12131579D02*
X9885539Y-12169674D01*
X9885539Y-12169674D02*
X9885539Y-12217293D01*
X9885539Y-12217293D02*
X9876015Y-12255388D01*
X9876015Y-12255388D02*
X9866491Y-12274436D01*
X9866491Y-12274436D02*
X9856967Y-12283960D01*
X9856967Y-12283960D02*
X9837920Y-12293484D01*
X9837920Y-12293484D02*
X9818872Y-12293484D01*
X9818872Y-12293484D02*
X9799824Y-12283960D01*
X9799824Y-12283960D02*
X9790301Y-12274436D01*
X9790301Y-12274436D02*
X9780777Y-12255388D01*
X9780777Y-12255388D02*
X9771253Y-12217293D01*
X9771253Y-12217293D02*
X9771253Y-12169674D01*
X9771253Y-12169674D02*
X9780777Y-12131579D01*
X9780777Y-12131579D02*
X9790301Y-12112531D01*
X9790301Y-12112531D02*
X9799824Y-12103008D01*
X9799824Y-12103008D02*
X9818872Y-12093484D01*
X9971253Y-12274436D02*
X9980777Y-12283960D01*
X9980777Y-12283960D02*
X9971253Y-12293484D01*
X9971253Y-12293484D02*
X9961729Y-12283960D01*
X9961729Y-12283960D02*
X9971253Y-12274436D01*
X9971253Y-12274436D02*
X9971253Y-12293484D01*
X10047444Y-12093484D02*
X10171253Y-12093484D01*
X10171253Y-12093484D02*
X10104586Y-12169674D01*
X10104586Y-12169674D02*
X10133158Y-12169674D01*
X10133158Y-12169674D02*
X10152205Y-12179198D01*
X10152205Y-12179198D02*
X10161729Y-12188722D01*
X10161729Y-12188722D02*
X10171253Y-12207769D01*
X10171253Y-12207769D02*
X10171253Y-12255388D01*
X10171253Y-12255388D02*
X10161729Y-12274436D01*
X10161729Y-12274436D02*
X10152205Y-12283960D01*
X10152205Y-12283960D02*
X10133158Y-12293484D01*
X10133158Y-12293484D02*
X10076015Y-12293484D01*
X10076015Y-12293484D02*
X10056967Y-12283960D01*
X10056967Y-12283960D02*
X10047444Y-12274436D01*
X10295063Y-12093484D02*
X10314110Y-12093484D01*
X10314110Y-12093484D02*
X10333158Y-12103008D01*
X10333158Y-12103008D02*
X10342682Y-12112531D01*
X10342682Y-12112531D02*
X10352205Y-12131579D01*
X10352205Y-12131579D02*
X10361729Y-12169674D01*
X10361729Y-12169674D02*
X10361729Y-12217293D01*
X10361729Y-12217293D02*
X10352205Y-12255388D01*
X10352205Y-12255388D02*
X10342682Y-12274436D01*
X10342682Y-12274436D02*
X10333158Y-12283960D01*
X10333158Y-12283960D02*
X10314110Y-12293484D01*
X10314110Y-12293484D02*
X10295063Y-12293484D01*
X10295063Y-12293484D02*
X10276015Y-12283960D01*
X10276015Y-12283960D02*
X10266491Y-12274436D01*
X10266491Y-12274436D02*
X10256967Y-12255388D01*
X10256967Y-12255388D02*
X10247444Y-12217293D01*
X10247444Y-12217293D02*
X10247444Y-12169674D01*
X10247444Y-12169674D02*
X10256967Y-12131579D01*
X10256967Y-12131579D02*
X10266491Y-12112531D01*
X10266491Y-12112531D02*
X10276015Y-12103008D01*
X10276015Y-12103008D02*
X10295063Y-12093484D01*
X10485539Y-12093484D02*
X10504586Y-12093484D01*
X10504586Y-12093484D02*
X10523634Y-12103008D01*
X10523634Y-12103008D02*
X10533158Y-12112531D01*
X10533158Y-12112531D02*
X10542682Y-12131579D01*
X10542682Y-12131579D02*
X10552205Y-12169674D01*
X10552205Y-12169674D02*
X10552205Y-12217293D01*
X10552205Y-12217293D02*
X10542682Y-12255388D01*
X10542682Y-12255388D02*
X10533158Y-12274436D01*
X10533158Y-12274436D02*
X10523634Y-12283960D01*
X10523634Y-12283960D02*
X10504586Y-12293484D01*
X10504586Y-12293484D02*
X10485539Y-12293484D01*
X10485539Y-12293484D02*
X10466491Y-12283960D01*
X10466491Y-12283960D02*
X10456967Y-12274436D01*
X10456967Y-12274436D02*
X10447444Y-12255388D01*
X10447444Y-12255388D02*
X10437920Y-12217293D01*
X10437920Y-12217293D02*
X10437920Y-12169674D01*
X10437920Y-12169674D02*
X10447444Y-12131579D01*
X10447444Y-12131579D02*
X10456967Y-12112531D01*
X10456967Y-12112531D02*
X10466491Y-12103008D01*
X10466491Y-12103008D02*
X10485539Y-12093484D01*
X10637920Y-12293484D02*
X10637920Y-12160150D01*
X10637920Y-12179198D02*
X10647444Y-12169674D01*
X10647444Y-12169674D02*
X10666491Y-12160150D01*
X10666491Y-12160150D02*
X10695063Y-12160150D01*
X10695063Y-12160150D02*
X10714110Y-12169674D01*
X10714110Y-12169674D02*
X10723634Y-12188722D01*
X10723634Y-12188722D02*
X10723634Y-12293484D01*
X10723634Y-12188722D02*
X10733158Y-12169674D01*
X10733158Y-12169674D02*
X10752205Y-12160150D01*
X10752205Y-12160150D02*
X10780777Y-12160150D01*
X10780777Y-12160150D02*
X10799825Y-12169674D01*
X10799825Y-12169674D02*
X10809348Y-12188722D01*
X10809348Y-12188722D02*
X10809348Y-12293484D01*
X10904586Y-12293484D02*
X10904586Y-12160150D01*
X10904586Y-12179198D02*
X10914110Y-12169674D01*
X10914110Y-12169674D02*
X10933158Y-12160150D01*
X10933158Y-12160150D02*
X10961729Y-12160150D01*
X10961729Y-12160150D02*
X10980777Y-12169674D01*
X10980777Y-12169674D02*
X10990301Y-12188722D01*
X10990301Y-12188722D02*
X10990301Y-12293484D01*
X10990301Y-12188722D02*
X10999825Y-12169674D01*
X10999825Y-12169674D02*
X11018872Y-12160150D01*
X11018872Y-12160150D02*
X11047444Y-12160150D01*
X11047444Y-12160150D02*
X11066491Y-12169674D01*
X11066491Y-12169674D02*
X11076015Y-12188722D01*
X11076015Y-12188722D02*
X11076015Y-12293484D01*
X11466491Y-12083960D02*
X11295063Y-12341103D01*
X11723634Y-12093484D02*
X11742682Y-12093484D01*
X11742682Y-12093484D02*
X11761729Y-12103008D01*
X11761729Y-12103008D02*
X11771253Y-12112531D01*
X11771253Y-12112531D02*
X11780777Y-12131579D01*
X11780777Y-12131579D02*
X11790301Y-12169674D01*
X11790301Y-12169674D02*
X11790301Y-12217293D01*
X11790301Y-12217293D02*
X11780777Y-12255388D01*
X11780777Y-12255388D02*
X11771253Y-12274436D01*
X11771253Y-12274436D02*
X11761729Y-12283960D01*
X11761729Y-12283960D02*
X11742682Y-12293484D01*
X11742682Y-12293484D02*
X11723634Y-12293484D01*
X11723634Y-12293484D02*
X11704586Y-12283960D01*
X11704586Y-12283960D02*
X11695063Y-12274436D01*
X11695063Y-12274436D02*
X11685539Y-12255388D01*
X11685539Y-12255388D02*
X11676015Y-12217293D01*
X11676015Y-12217293D02*
X11676015Y-12169674D01*
X11676015Y-12169674D02*
X11685539Y-12131579D01*
X11685539Y-12131579D02*
X11695063Y-12112531D01*
X11695063Y-12112531D02*
X11704586Y-12103008D01*
X11704586Y-12103008D02*
X11723634Y-12093484D01*
X11876015Y-12274436D02*
X11885539Y-12283960D01*
X11885539Y-12283960D02*
X11876015Y-12293484D01*
X11876015Y-12293484D02*
X11866491Y-12283960D01*
X11866491Y-12283960D02*
X11876015Y-12274436D01*
X11876015Y-12274436D02*
X11876015Y-12293484D01*
X12009348Y-12093484D02*
X12028396Y-12093484D01*
X12028396Y-12093484D02*
X12047444Y-12103008D01*
X12047444Y-12103008D02*
X12056967Y-12112531D01*
X12056967Y-12112531D02*
X12066491Y-12131579D01*
X12066491Y-12131579D02*
X12076015Y-12169674D01*
X12076015Y-12169674D02*
X12076015Y-12217293D01*
X12076015Y-12217293D02*
X12066491Y-12255388D01*
X12066491Y-12255388D02*
X12056967Y-12274436D01*
X12056967Y-12274436D02*
X12047444Y-12283960D01*
X12047444Y-12283960D02*
X12028396Y-12293484D01*
X12028396Y-12293484D02*
X12009348Y-12293484D01*
X12009348Y-12293484D02*
X11990301Y-12283960D01*
X11990301Y-12283960D02*
X11980777Y-12274436D01*
X11980777Y-12274436D02*
X11971253Y-12255388D01*
X11971253Y-12255388D02*
X11961729Y-12217293D01*
X11961729Y-12217293D02*
X11961729Y-12169674D01*
X11961729Y-12169674D02*
X11971253Y-12131579D01*
X11971253Y-12131579D02*
X11980777Y-12112531D01*
X11980777Y-12112531D02*
X11990301Y-12103008D01*
X11990301Y-12103008D02*
X12009348Y-12093484D01*
X12266491Y-12293484D02*
X12152206Y-12293484D01*
X12209348Y-12293484D02*
X12209348Y-12093484D01*
X12209348Y-12093484D02*
X12190301Y-12122055D01*
X12190301Y-12122055D02*
X12171253Y-12141103D01*
X12171253Y-12141103D02*
X12152206Y-12150627D01*
X12456967Y-12293484D02*
X12342682Y-12293484D01*
X12399825Y-12293484D02*
X12399825Y-12093484D01*
X12399825Y-12093484D02*
X12380777Y-12122055D01*
X12380777Y-12122055D02*
X12361729Y-12141103D01*
X12361729Y-12141103D02*
X12342682Y-12150627D01*
X12571253Y-12179198D02*
X12552206Y-12169674D01*
X12552206Y-12169674D02*
X12542682Y-12160150D01*
X12542682Y-12160150D02*
X12533158Y-12141103D01*
X12533158Y-12141103D02*
X12533158Y-12131579D01*
X12533158Y-12131579D02*
X12542682Y-12112531D01*
X12542682Y-12112531D02*
X12552206Y-12103008D01*
X12552206Y-12103008D02*
X12571253Y-12093484D01*
X12571253Y-12093484D02*
X12609348Y-12093484D01*
X12609348Y-12093484D02*
X12628396Y-12103008D01*
X12628396Y-12103008D02*
X12637920Y-12112531D01*
X12637920Y-12112531D02*
X12647444Y-12131579D01*
X12647444Y-12131579D02*
X12647444Y-12141103D01*
X12647444Y-12141103D02*
X12637920Y-12160150D01*
X12637920Y-12160150D02*
X12628396Y-12169674D01*
X12628396Y-12169674D02*
X12609348Y-12179198D01*
X12609348Y-12179198D02*
X12571253Y-12179198D01*
X12571253Y-12179198D02*
X12552206Y-12188722D01*
X12552206Y-12188722D02*
X12542682Y-12198246D01*
X12542682Y-12198246D02*
X12533158Y-12217293D01*
X12533158Y-12217293D02*
X12533158Y-12255388D01*
X12533158Y-12255388D02*
X12542682Y-12274436D01*
X12542682Y-12274436D02*
X12552206Y-12283960D01*
X12552206Y-12283960D02*
X12571253Y-12293484D01*
X12571253Y-12293484D02*
X12609348Y-12293484D01*
X12609348Y-12293484D02*
X12628396Y-12283960D01*
X12628396Y-12283960D02*
X12637920Y-12274436D01*
X12637920Y-12274436D02*
X12647444Y-12255388D01*
X12647444Y-12255388D02*
X12647444Y-12217293D01*
X12647444Y-12217293D02*
X12637920Y-12198246D01*
X12637920Y-12198246D02*
X12628396Y-12188722D01*
X12628396Y-12188722D02*
X12609348Y-12179198D01*
X12723634Y-12093484D02*
X12723634Y-12131579D01*
X12799825Y-12093484D02*
X12799825Y-12131579D01*
X13095063Y-12369674D02*
X13085539Y-12360150D01*
X13085539Y-12360150D02*
X13066491Y-12331579D01*
X13066491Y-12331579D02*
X13056968Y-12312531D01*
X13056968Y-12312531D02*
X13047444Y-12283960D01*
X13047444Y-12283960D02*
X13037920Y-12236341D01*
X13037920Y-12236341D02*
X13037920Y-12198246D01*
X13037920Y-12198246D02*
X13047444Y-12150627D01*
X13047444Y-12150627D02*
X13056968Y-12122055D01*
X13056968Y-12122055D02*
X13066491Y-12103008D01*
X13066491Y-12103008D02*
X13085539Y-12074436D01*
X13085539Y-12074436D02*
X13095063Y-12064912D01*
X13276015Y-12293484D02*
X13161729Y-12293484D01*
X13218872Y-12293484D02*
X13218872Y-12093484D01*
X13218872Y-12093484D02*
X13199825Y-12122055D01*
X13199825Y-12122055D02*
X13180777Y-12141103D01*
X13180777Y-12141103D02*
X13161729Y-12150627D01*
X13514110Y-12293484D02*
X13514110Y-12093484D01*
X13599825Y-12293484D02*
X13599825Y-12188722D01*
X13599825Y-12188722D02*
X13590301Y-12169674D01*
X13590301Y-12169674D02*
X13571253Y-12160150D01*
X13571253Y-12160150D02*
X13542682Y-12160150D01*
X13542682Y-12160150D02*
X13523634Y-12169674D01*
X13523634Y-12169674D02*
X13514110Y-12179198D01*
X13723634Y-12293484D02*
X13704587Y-12283960D01*
X13704587Y-12283960D02*
X13695063Y-12274436D01*
X13695063Y-12274436D02*
X13685539Y-12255388D01*
X13685539Y-12255388D02*
X13685539Y-12198246D01*
X13685539Y-12198246D02*
X13695063Y-12179198D01*
X13695063Y-12179198D02*
X13704587Y-12169674D01*
X13704587Y-12169674D02*
X13723634Y-12160150D01*
X13723634Y-12160150D02*
X13752206Y-12160150D01*
X13752206Y-12160150D02*
X13771253Y-12169674D01*
X13771253Y-12169674D02*
X13780777Y-12179198D01*
X13780777Y-12179198D02*
X13790301Y-12198246D01*
X13790301Y-12198246D02*
X13790301Y-12255388D01*
X13790301Y-12255388D02*
X13780777Y-12274436D01*
X13780777Y-12274436D02*
X13771253Y-12283960D01*
X13771253Y-12283960D02*
X13752206Y-12293484D01*
X13752206Y-12293484D02*
X13723634Y-12293484D01*
X13904587Y-12293484D02*
X13885539Y-12283960D01*
X13885539Y-12283960D02*
X13876015Y-12264912D01*
X13876015Y-12264912D02*
X13876015Y-12093484D01*
X14056968Y-12283960D02*
X14037920Y-12293484D01*
X14037920Y-12293484D02*
X13999825Y-12293484D01*
X13999825Y-12293484D02*
X13980777Y-12283960D01*
X13980777Y-12283960D02*
X13971253Y-12264912D01*
X13971253Y-12264912D02*
X13971253Y-12188722D01*
X13971253Y-12188722D02*
X13980777Y-12169674D01*
X13980777Y-12169674D02*
X13999825Y-12160150D01*
X13999825Y-12160150D02*
X14037920Y-12160150D01*
X14037920Y-12160150D02*
X14056968Y-12169674D01*
X14056968Y-12169674D02*
X14066491Y-12188722D01*
X14066491Y-12188722D02*
X14066491Y-12207769D01*
X14066491Y-12207769D02*
X13971253Y-12226817D01*
X14133158Y-12369674D02*
X14142682Y-12360150D01*
X14142682Y-12360150D02*
X14161730Y-12331579D01*
X14161730Y-12331579D02*
X14171253Y-12312531D01*
X14171253Y-12312531D02*
X14180777Y-12283960D01*
X14180777Y-12283960D02*
X14190301Y-12236341D01*
X14190301Y-12236341D02*
X14190301Y-12198246D01*
X14190301Y-12198246D02*
X14180777Y-12150627D01*
X14180777Y-12150627D02*
X14171253Y-12122055D01*
X14171253Y-12122055D02*
X14161730Y-12103008D01*
X14161730Y-12103008D02*
X14142682Y-12074436D01*
X14142682Y-12074436D02*
X14133158Y-12064912D01*
D13*
X9520000Y-12466000D02*
G75*
G03*
X9520000Y-12466000I-25000J0D01*
G01*
D11*
X9818872Y-12357484D02*
X9837920Y-12357484D01*
X9837920Y-12357484D02*
X9856967Y-12367008D01*
X9856967Y-12367008D02*
X9866491Y-12376531D01*
X9866491Y-12376531D02*
X9876015Y-12395579D01*
X9876015Y-12395579D02*
X9885539Y-12433674D01*
X9885539Y-12433674D02*
X9885539Y-12481293D01*
X9885539Y-12481293D02*
X9876015Y-12519388D01*
X9876015Y-12519388D02*
X9866491Y-12538436D01*
X9866491Y-12538436D02*
X9856967Y-12547960D01*
X9856967Y-12547960D02*
X9837920Y-12557484D01*
X9837920Y-12557484D02*
X9818872Y-12557484D01*
X9818872Y-12557484D02*
X9799824Y-12547960D01*
X9799824Y-12547960D02*
X9790301Y-12538436D01*
X9790301Y-12538436D02*
X9780777Y-12519388D01*
X9780777Y-12519388D02*
X9771253Y-12481293D01*
X9771253Y-12481293D02*
X9771253Y-12433674D01*
X9771253Y-12433674D02*
X9780777Y-12395579D01*
X9780777Y-12395579D02*
X9790301Y-12376531D01*
X9790301Y-12376531D02*
X9799824Y-12367008D01*
X9799824Y-12367008D02*
X9818872Y-12357484D01*
X9971253Y-12538436D02*
X9980777Y-12547960D01*
X9980777Y-12547960D02*
X9971253Y-12557484D01*
X9971253Y-12557484D02*
X9961729Y-12547960D01*
X9961729Y-12547960D02*
X9971253Y-12538436D01*
X9971253Y-12538436D02*
X9971253Y-12557484D01*
X10161729Y-12357484D02*
X10066491Y-12357484D01*
X10066491Y-12357484D02*
X10056967Y-12452722D01*
X10056967Y-12452722D02*
X10066491Y-12443198D01*
X10066491Y-12443198D02*
X10085539Y-12433674D01*
X10085539Y-12433674D02*
X10133158Y-12433674D01*
X10133158Y-12433674D02*
X10152205Y-12443198D01*
X10152205Y-12443198D02*
X10161729Y-12452722D01*
X10161729Y-12452722D02*
X10171253Y-12471769D01*
X10171253Y-12471769D02*
X10171253Y-12519388D01*
X10171253Y-12519388D02*
X10161729Y-12538436D01*
X10161729Y-12538436D02*
X10152205Y-12547960D01*
X10152205Y-12547960D02*
X10133158Y-12557484D01*
X10133158Y-12557484D02*
X10085539Y-12557484D01*
X10085539Y-12557484D02*
X10066491Y-12547960D01*
X10066491Y-12547960D02*
X10056967Y-12538436D01*
X10295063Y-12357484D02*
X10314110Y-12357484D01*
X10314110Y-12357484D02*
X10333158Y-12367008D01*
X10333158Y-12367008D02*
X10342682Y-12376531D01*
X10342682Y-12376531D02*
X10352205Y-12395579D01*
X10352205Y-12395579D02*
X10361729Y-12433674D01*
X10361729Y-12433674D02*
X10361729Y-12481293D01*
X10361729Y-12481293D02*
X10352205Y-12519388D01*
X10352205Y-12519388D02*
X10342682Y-12538436D01*
X10342682Y-12538436D02*
X10333158Y-12547960D01*
X10333158Y-12547960D02*
X10314110Y-12557484D01*
X10314110Y-12557484D02*
X10295063Y-12557484D01*
X10295063Y-12557484D02*
X10276015Y-12547960D01*
X10276015Y-12547960D02*
X10266491Y-12538436D01*
X10266491Y-12538436D02*
X10256967Y-12519388D01*
X10256967Y-12519388D02*
X10247444Y-12481293D01*
X10247444Y-12481293D02*
X10247444Y-12433674D01*
X10247444Y-12433674D02*
X10256967Y-12395579D01*
X10256967Y-12395579D02*
X10266491Y-12376531D01*
X10266491Y-12376531D02*
X10276015Y-12367008D01*
X10276015Y-12367008D02*
X10295063Y-12357484D01*
X10485539Y-12357484D02*
X10504586Y-12357484D01*
X10504586Y-12357484D02*
X10523634Y-12367008D01*
X10523634Y-12367008D02*
X10533158Y-12376531D01*
X10533158Y-12376531D02*
X10542682Y-12395579D01*
X10542682Y-12395579D02*
X10552205Y-12433674D01*
X10552205Y-12433674D02*
X10552205Y-12481293D01*
X10552205Y-12481293D02*
X10542682Y-12519388D01*
X10542682Y-12519388D02*
X10533158Y-12538436D01*
X10533158Y-12538436D02*
X10523634Y-12547960D01*
X10523634Y-12547960D02*
X10504586Y-12557484D01*
X10504586Y-12557484D02*
X10485539Y-12557484D01*
X10485539Y-12557484D02*
X10466491Y-12547960D01*
X10466491Y-12547960D02*
X10456967Y-12538436D01*
X10456967Y-12538436D02*
X10447444Y-12519388D01*
X10447444Y-12519388D02*
X10437920Y-12481293D01*
X10437920Y-12481293D02*
X10437920Y-12433674D01*
X10437920Y-12433674D02*
X10447444Y-12395579D01*
X10447444Y-12395579D02*
X10456967Y-12376531D01*
X10456967Y-12376531D02*
X10466491Y-12367008D01*
X10466491Y-12367008D02*
X10485539Y-12357484D01*
X10637920Y-12557484D02*
X10637920Y-12424150D01*
X10637920Y-12443198D02*
X10647444Y-12433674D01*
X10647444Y-12433674D02*
X10666491Y-12424150D01*
X10666491Y-12424150D02*
X10695063Y-12424150D01*
X10695063Y-12424150D02*
X10714110Y-12433674D01*
X10714110Y-12433674D02*
X10723634Y-12452722D01*
X10723634Y-12452722D02*
X10723634Y-12557484D01*
X10723634Y-12452722D02*
X10733158Y-12433674D01*
X10733158Y-12433674D02*
X10752205Y-12424150D01*
X10752205Y-12424150D02*
X10780777Y-12424150D01*
X10780777Y-12424150D02*
X10799825Y-12433674D01*
X10799825Y-12433674D02*
X10809348Y-12452722D01*
X10809348Y-12452722D02*
X10809348Y-12557484D01*
X10904586Y-12557484D02*
X10904586Y-12424150D01*
X10904586Y-12443198D02*
X10914110Y-12433674D01*
X10914110Y-12433674D02*
X10933158Y-12424150D01*
X10933158Y-12424150D02*
X10961729Y-12424150D01*
X10961729Y-12424150D02*
X10980777Y-12433674D01*
X10980777Y-12433674D02*
X10990301Y-12452722D01*
X10990301Y-12452722D02*
X10990301Y-12557484D01*
X10990301Y-12452722D02*
X10999825Y-12433674D01*
X10999825Y-12433674D02*
X11018872Y-12424150D01*
X11018872Y-12424150D02*
X11047444Y-12424150D01*
X11047444Y-12424150D02*
X11066491Y-12433674D01*
X11066491Y-12433674D02*
X11076015Y-12452722D01*
X11076015Y-12452722D02*
X11076015Y-12557484D01*
X11466491Y-12347960D02*
X11295063Y-12605103D01*
X11723634Y-12357484D02*
X11742682Y-12357484D01*
X11742682Y-12357484D02*
X11761729Y-12367008D01*
X11761729Y-12367008D02*
X11771253Y-12376531D01*
X11771253Y-12376531D02*
X11780777Y-12395579D01*
X11780777Y-12395579D02*
X11790301Y-12433674D01*
X11790301Y-12433674D02*
X11790301Y-12481293D01*
X11790301Y-12481293D02*
X11780777Y-12519388D01*
X11780777Y-12519388D02*
X11771253Y-12538436D01*
X11771253Y-12538436D02*
X11761729Y-12547960D01*
X11761729Y-12547960D02*
X11742682Y-12557484D01*
X11742682Y-12557484D02*
X11723634Y-12557484D01*
X11723634Y-12557484D02*
X11704586Y-12547960D01*
X11704586Y-12547960D02*
X11695063Y-12538436D01*
X11695063Y-12538436D02*
X11685539Y-12519388D01*
X11685539Y-12519388D02*
X11676015Y-12481293D01*
X11676015Y-12481293D02*
X11676015Y-12433674D01*
X11676015Y-12433674D02*
X11685539Y-12395579D01*
X11685539Y-12395579D02*
X11695063Y-12376531D01*
X11695063Y-12376531D02*
X11704586Y-12367008D01*
X11704586Y-12367008D02*
X11723634Y-12357484D01*
X11876015Y-12538436D02*
X11885539Y-12547960D01*
X11885539Y-12547960D02*
X11876015Y-12557484D01*
X11876015Y-12557484D02*
X11866491Y-12547960D01*
X11866491Y-12547960D02*
X11876015Y-12538436D01*
X11876015Y-12538436D02*
X11876015Y-12557484D01*
X12009348Y-12357484D02*
X12028396Y-12357484D01*
X12028396Y-12357484D02*
X12047444Y-12367008D01*
X12047444Y-12367008D02*
X12056967Y-12376531D01*
X12056967Y-12376531D02*
X12066491Y-12395579D01*
X12066491Y-12395579D02*
X12076015Y-12433674D01*
X12076015Y-12433674D02*
X12076015Y-12481293D01*
X12076015Y-12481293D02*
X12066491Y-12519388D01*
X12066491Y-12519388D02*
X12056967Y-12538436D01*
X12056967Y-12538436D02*
X12047444Y-12547960D01*
X12047444Y-12547960D02*
X12028396Y-12557484D01*
X12028396Y-12557484D02*
X12009348Y-12557484D01*
X12009348Y-12557484D02*
X11990301Y-12547960D01*
X11990301Y-12547960D02*
X11980777Y-12538436D01*
X11980777Y-12538436D02*
X11971253Y-12519388D01*
X11971253Y-12519388D02*
X11961729Y-12481293D01*
X11961729Y-12481293D02*
X11961729Y-12433674D01*
X11961729Y-12433674D02*
X11971253Y-12395579D01*
X11971253Y-12395579D02*
X11980777Y-12376531D01*
X11980777Y-12376531D02*
X11990301Y-12367008D01*
X11990301Y-12367008D02*
X12009348Y-12357484D01*
X12266491Y-12557484D02*
X12152206Y-12557484D01*
X12209348Y-12557484D02*
X12209348Y-12357484D01*
X12209348Y-12357484D02*
X12190301Y-12386055D01*
X12190301Y-12386055D02*
X12171253Y-12405103D01*
X12171253Y-12405103D02*
X12152206Y-12414627D01*
X12361729Y-12557484D02*
X12399825Y-12557484D01*
X12399825Y-12557484D02*
X12418872Y-12547960D01*
X12418872Y-12547960D02*
X12428396Y-12538436D01*
X12428396Y-12538436D02*
X12447444Y-12509865D01*
X12447444Y-12509865D02*
X12456967Y-12471769D01*
X12456967Y-12471769D02*
X12456967Y-12395579D01*
X12456967Y-12395579D02*
X12447444Y-12376531D01*
X12447444Y-12376531D02*
X12437920Y-12367008D01*
X12437920Y-12367008D02*
X12418872Y-12357484D01*
X12418872Y-12357484D02*
X12380777Y-12357484D01*
X12380777Y-12357484D02*
X12361729Y-12367008D01*
X12361729Y-12367008D02*
X12352206Y-12376531D01*
X12352206Y-12376531D02*
X12342682Y-12395579D01*
X12342682Y-12395579D02*
X12342682Y-12443198D01*
X12342682Y-12443198D02*
X12352206Y-12462246D01*
X12352206Y-12462246D02*
X12361729Y-12471769D01*
X12361729Y-12471769D02*
X12380777Y-12481293D01*
X12380777Y-12481293D02*
X12418872Y-12481293D01*
X12418872Y-12481293D02*
X12437920Y-12471769D01*
X12437920Y-12471769D02*
X12447444Y-12462246D01*
X12447444Y-12462246D02*
X12456967Y-12443198D01*
X12523634Y-12357484D02*
X12656967Y-12357484D01*
X12656967Y-12357484D02*
X12571253Y-12557484D01*
X12723634Y-12357484D02*
X12723634Y-12395579D01*
X12799825Y-12357484D02*
X12799825Y-12395579D01*
X13095063Y-12633674D02*
X13085539Y-12624150D01*
X13085539Y-12624150D02*
X13066491Y-12595579D01*
X13066491Y-12595579D02*
X13056968Y-12576531D01*
X13056968Y-12576531D02*
X13047444Y-12547960D01*
X13047444Y-12547960D02*
X13037920Y-12500341D01*
X13037920Y-12500341D02*
X13037920Y-12462246D01*
X13037920Y-12462246D02*
X13047444Y-12414627D01*
X13047444Y-12414627D02*
X13056968Y-12386055D01*
X13056968Y-12386055D02*
X13066491Y-12367008D01*
X13066491Y-12367008D02*
X13085539Y-12338436D01*
X13085539Y-12338436D02*
X13095063Y-12328912D01*
X13152206Y-12357484D02*
X13276015Y-12357484D01*
X13276015Y-12357484D02*
X13209348Y-12433674D01*
X13209348Y-12433674D02*
X13237920Y-12433674D01*
X13237920Y-12433674D02*
X13256968Y-12443198D01*
X13256968Y-12443198D02*
X13266491Y-12452722D01*
X13266491Y-12452722D02*
X13276015Y-12471769D01*
X13276015Y-12471769D02*
X13276015Y-12519388D01*
X13276015Y-12519388D02*
X13266491Y-12538436D01*
X13266491Y-12538436D02*
X13256968Y-12547960D01*
X13256968Y-12547960D02*
X13237920Y-12557484D01*
X13237920Y-12557484D02*
X13180777Y-12557484D01*
X13180777Y-12557484D02*
X13161729Y-12547960D01*
X13161729Y-12547960D02*
X13152206Y-12538436D01*
X13514110Y-12557484D02*
X13514110Y-12357484D01*
X13599825Y-12557484D02*
X13599825Y-12452722D01*
X13599825Y-12452722D02*
X13590301Y-12433674D01*
X13590301Y-12433674D02*
X13571253Y-12424150D01*
X13571253Y-12424150D02*
X13542682Y-12424150D01*
X13542682Y-12424150D02*
X13523634Y-12433674D01*
X13523634Y-12433674D02*
X13514110Y-12443198D01*
X13723634Y-12557484D02*
X13704587Y-12547960D01*
X13704587Y-12547960D02*
X13695063Y-12538436D01*
X13695063Y-12538436D02*
X13685539Y-12519388D01*
X13685539Y-12519388D02*
X13685539Y-12462246D01*
X13685539Y-12462246D02*
X13695063Y-12443198D01*
X13695063Y-12443198D02*
X13704587Y-12433674D01*
X13704587Y-12433674D02*
X13723634Y-12424150D01*
X13723634Y-12424150D02*
X13752206Y-12424150D01*
X13752206Y-12424150D02*
X13771253Y-12433674D01*
X13771253Y-12433674D02*
X13780777Y-12443198D01*
X13780777Y-12443198D02*
X13790301Y-12462246D01*
X13790301Y-12462246D02*
X13790301Y-12519388D01*
X13790301Y-12519388D02*
X13780777Y-12538436D01*
X13780777Y-12538436D02*
X13771253Y-12547960D01*
X13771253Y-12547960D02*
X13752206Y-12557484D01*
X13752206Y-12557484D02*
X13723634Y-12557484D01*
X13904587Y-12557484D02*
X13885539Y-12547960D01*
X13885539Y-12547960D02*
X13876015Y-12528912D01*
X13876015Y-12528912D02*
X13876015Y-12357484D01*
X14056968Y-12547960D02*
X14037920Y-12557484D01*
X14037920Y-12557484D02*
X13999825Y-12557484D01*
X13999825Y-12557484D02*
X13980777Y-12547960D01*
X13980777Y-12547960D02*
X13971253Y-12528912D01*
X13971253Y-12528912D02*
X13971253Y-12452722D01*
X13971253Y-12452722D02*
X13980777Y-12433674D01*
X13980777Y-12433674D02*
X13999825Y-12424150D01*
X13999825Y-12424150D02*
X14037920Y-12424150D01*
X14037920Y-12424150D02*
X14056968Y-12433674D01*
X14056968Y-12433674D02*
X14066491Y-12452722D01*
X14066491Y-12452722D02*
X14066491Y-12471769D01*
X14066491Y-12471769D02*
X13971253Y-12490817D01*
X14142682Y-12547960D02*
X14161730Y-12557484D01*
X14161730Y-12557484D02*
X14199825Y-12557484D01*
X14199825Y-12557484D02*
X14218872Y-12547960D01*
X14218872Y-12547960D02*
X14228396Y-12528912D01*
X14228396Y-12528912D02*
X14228396Y-12519388D01*
X14228396Y-12519388D02*
X14218872Y-12500341D01*
X14218872Y-12500341D02*
X14199825Y-12490817D01*
X14199825Y-12490817D02*
X14171253Y-12490817D01*
X14171253Y-12490817D02*
X14152206Y-12481293D01*
X14152206Y-12481293D02*
X14142682Y-12462246D01*
X14142682Y-12462246D02*
X14142682Y-12452722D01*
X14142682Y-12452722D02*
X14152206Y-12433674D01*
X14152206Y-12433674D02*
X14171253Y-12424150D01*
X14171253Y-12424150D02*
X14199825Y-12424150D01*
X14199825Y-12424150D02*
X14218872Y-12433674D01*
X14295063Y-12633674D02*
X14304587Y-12624150D01*
X14304587Y-12624150D02*
X14323634Y-12595579D01*
X14323634Y-12595579D02*
X14333158Y-12576531D01*
X14333158Y-12576531D02*
X14342682Y-12547960D01*
X14342682Y-12547960D02*
X14352206Y-12500341D01*
X14352206Y-12500341D02*
X14352206Y-12462246D01*
X14352206Y-12462246D02*
X14342682Y-12414627D01*
X14342682Y-12414627D02*
X14333158Y-12386055D01*
X14333158Y-12386055D02*
X14323634Y-12367008D01*
X14323634Y-12367008D02*
X14304587Y-12338436D01*
X14304587Y-12338436D02*
X14295063Y-12328912D01*
D14*
X9480000Y-12690000D02*
X9480000Y-12770000D01*
X9440000Y-12730000D02*
X9520000Y-12730000D01*
D11*
X9818872Y-12621484D02*
X9837920Y-12621484D01*
X9837920Y-12621484D02*
X9856967Y-12631008D01*
X9856967Y-12631008D02*
X9866491Y-12640531D01*
X9866491Y-12640531D02*
X9876015Y-12659579D01*
X9876015Y-12659579D02*
X9885539Y-12697674D01*
X9885539Y-12697674D02*
X9885539Y-12745293D01*
X9885539Y-12745293D02*
X9876015Y-12783388D01*
X9876015Y-12783388D02*
X9866491Y-12802436D01*
X9866491Y-12802436D02*
X9856967Y-12811960D01*
X9856967Y-12811960D02*
X9837920Y-12821484D01*
X9837920Y-12821484D02*
X9818872Y-12821484D01*
X9818872Y-12821484D02*
X9799824Y-12811960D01*
X9799824Y-12811960D02*
X9790301Y-12802436D01*
X9790301Y-12802436D02*
X9780777Y-12783388D01*
X9780777Y-12783388D02*
X9771253Y-12745293D01*
X9771253Y-12745293D02*
X9771253Y-12697674D01*
X9771253Y-12697674D02*
X9780777Y-12659579D01*
X9780777Y-12659579D02*
X9790301Y-12640531D01*
X9790301Y-12640531D02*
X9799824Y-12631008D01*
X9799824Y-12631008D02*
X9818872Y-12621484D01*
X9971253Y-12802436D02*
X9980777Y-12811960D01*
X9980777Y-12811960D02*
X9971253Y-12821484D01*
X9971253Y-12821484D02*
X9961729Y-12811960D01*
X9961729Y-12811960D02*
X9971253Y-12802436D01*
X9971253Y-12802436D02*
X9971253Y-12821484D01*
X10095063Y-12707198D02*
X10076015Y-12697674D01*
X10076015Y-12697674D02*
X10066491Y-12688150D01*
X10066491Y-12688150D02*
X10056967Y-12669103D01*
X10056967Y-12669103D02*
X10056967Y-12659579D01*
X10056967Y-12659579D02*
X10066491Y-12640531D01*
X10066491Y-12640531D02*
X10076015Y-12631008D01*
X10076015Y-12631008D02*
X10095063Y-12621484D01*
X10095063Y-12621484D02*
X10133158Y-12621484D01*
X10133158Y-12621484D02*
X10152205Y-12631008D01*
X10152205Y-12631008D02*
X10161729Y-12640531D01*
X10161729Y-12640531D02*
X10171253Y-12659579D01*
X10171253Y-12659579D02*
X10171253Y-12669103D01*
X10171253Y-12669103D02*
X10161729Y-12688150D01*
X10161729Y-12688150D02*
X10152205Y-12697674D01*
X10152205Y-12697674D02*
X10133158Y-12707198D01*
X10133158Y-12707198D02*
X10095063Y-12707198D01*
X10095063Y-12707198D02*
X10076015Y-12716722D01*
X10076015Y-12716722D02*
X10066491Y-12726246D01*
X10066491Y-12726246D02*
X10056967Y-12745293D01*
X10056967Y-12745293D02*
X10056967Y-12783388D01*
X10056967Y-12783388D02*
X10066491Y-12802436D01*
X10066491Y-12802436D02*
X10076015Y-12811960D01*
X10076015Y-12811960D02*
X10095063Y-12821484D01*
X10095063Y-12821484D02*
X10133158Y-12821484D01*
X10133158Y-12821484D02*
X10152205Y-12811960D01*
X10152205Y-12811960D02*
X10161729Y-12802436D01*
X10161729Y-12802436D02*
X10171253Y-12783388D01*
X10171253Y-12783388D02*
X10171253Y-12745293D01*
X10171253Y-12745293D02*
X10161729Y-12726246D01*
X10161729Y-12726246D02*
X10152205Y-12716722D01*
X10152205Y-12716722D02*
X10133158Y-12707198D01*
X10295063Y-12621484D02*
X10314110Y-12621484D01*
X10314110Y-12621484D02*
X10333158Y-12631008D01*
X10333158Y-12631008D02*
X10342682Y-12640531D01*
X10342682Y-12640531D02*
X10352205Y-12659579D01*
X10352205Y-12659579D02*
X10361729Y-12697674D01*
X10361729Y-12697674D02*
X10361729Y-12745293D01*
X10361729Y-12745293D02*
X10352205Y-12783388D01*
X10352205Y-12783388D02*
X10342682Y-12802436D01*
X10342682Y-12802436D02*
X10333158Y-12811960D01*
X10333158Y-12811960D02*
X10314110Y-12821484D01*
X10314110Y-12821484D02*
X10295063Y-12821484D01*
X10295063Y-12821484D02*
X10276015Y-12811960D01*
X10276015Y-12811960D02*
X10266491Y-12802436D01*
X10266491Y-12802436D02*
X10256967Y-12783388D01*
X10256967Y-12783388D02*
X10247444Y-12745293D01*
X10247444Y-12745293D02*
X10247444Y-12697674D01*
X10247444Y-12697674D02*
X10256967Y-12659579D01*
X10256967Y-12659579D02*
X10266491Y-12640531D01*
X10266491Y-12640531D02*
X10276015Y-12631008D01*
X10276015Y-12631008D02*
X10295063Y-12621484D01*
X10485539Y-12621484D02*
X10504586Y-12621484D01*
X10504586Y-12621484D02*
X10523634Y-12631008D01*
X10523634Y-12631008D02*
X10533158Y-12640531D01*
X10533158Y-12640531D02*
X10542682Y-12659579D01*
X10542682Y-12659579D02*
X10552205Y-12697674D01*
X10552205Y-12697674D02*
X10552205Y-12745293D01*
X10552205Y-12745293D02*
X10542682Y-12783388D01*
X10542682Y-12783388D02*
X10533158Y-12802436D01*
X10533158Y-12802436D02*
X10523634Y-12811960D01*
X10523634Y-12811960D02*
X10504586Y-12821484D01*
X10504586Y-12821484D02*
X10485539Y-12821484D01*
X10485539Y-12821484D02*
X10466491Y-12811960D01*
X10466491Y-12811960D02*
X10456967Y-12802436D01*
X10456967Y-12802436D02*
X10447444Y-12783388D01*
X10447444Y-12783388D02*
X10437920Y-12745293D01*
X10437920Y-12745293D02*
X10437920Y-12697674D01*
X10437920Y-12697674D02*
X10447444Y-12659579D01*
X10447444Y-12659579D02*
X10456967Y-12640531D01*
X10456967Y-12640531D02*
X10466491Y-12631008D01*
X10466491Y-12631008D02*
X10485539Y-12621484D01*
X10637920Y-12821484D02*
X10637920Y-12688150D01*
X10637920Y-12707198D02*
X10647444Y-12697674D01*
X10647444Y-12697674D02*
X10666491Y-12688150D01*
X10666491Y-12688150D02*
X10695063Y-12688150D01*
X10695063Y-12688150D02*
X10714110Y-12697674D01*
X10714110Y-12697674D02*
X10723634Y-12716722D01*
X10723634Y-12716722D02*
X10723634Y-12821484D01*
X10723634Y-12716722D02*
X10733158Y-12697674D01*
X10733158Y-12697674D02*
X10752205Y-12688150D01*
X10752205Y-12688150D02*
X10780777Y-12688150D01*
X10780777Y-12688150D02*
X10799825Y-12697674D01*
X10799825Y-12697674D02*
X10809348Y-12716722D01*
X10809348Y-12716722D02*
X10809348Y-12821484D01*
X10904586Y-12821484D02*
X10904586Y-12688150D01*
X10904586Y-12707198D02*
X10914110Y-12697674D01*
X10914110Y-12697674D02*
X10933158Y-12688150D01*
X10933158Y-12688150D02*
X10961729Y-12688150D01*
X10961729Y-12688150D02*
X10980777Y-12697674D01*
X10980777Y-12697674D02*
X10990301Y-12716722D01*
X10990301Y-12716722D02*
X10990301Y-12821484D01*
X10990301Y-12716722D02*
X10999825Y-12697674D01*
X10999825Y-12697674D02*
X11018872Y-12688150D01*
X11018872Y-12688150D02*
X11047444Y-12688150D01*
X11047444Y-12688150D02*
X11066491Y-12697674D01*
X11066491Y-12697674D02*
X11076015Y-12716722D01*
X11076015Y-12716722D02*
X11076015Y-12821484D01*
X11466491Y-12611960D02*
X11295063Y-12869103D01*
X11723634Y-12621484D02*
X11742682Y-12621484D01*
X11742682Y-12621484D02*
X11761729Y-12631008D01*
X11761729Y-12631008D02*
X11771253Y-12640531D01*
X11771253Y-12640531D02*
X11780777Y-12659579D01*
X11780777Y-12659579D02*
X11790301Y-12697674D01*
X11790301Y-12697674D02*
X11790301Y-12745293D01*
X11790301Y-12745293D02*
X11780777Y-12783388D01*
X11780777Y-12783388D02*
X11771253Y-12802436D01*
X11771253Y-12802436D02*
X11761729Y-12811960D01*
X11761729Y-12811960D02*
X11742682Y-12821484D01*
X11742682Y-12821484D02*
X11723634Y-12821484D01*
X11723634Y-12821484D02*
X11704586Y-12811960D01*
X11704586Y-12811960D02*
X11695063Y-12802436D01*
X11695063Y-12802436D02*
X11685539Y-12783388D01*
X11685539Y-12783388D02*
X11676015Y-12745293D01*
X11676015Y-12745293D02*
X11676015Y-12697674D01*
X11676015Y-12697674D02*
X11685539Y-12659579D01*
X11685539Y-12659579D02*
X11695063Y-12640531D01*
X11695063Y-12640531D02*
X11704586Y-12631008D01*
X11704586Y-12631008D02*
X11723634Y-12621484D01*
X11876015Y-12802436D02*
X11885539Y-12811960D01*
X11885539Y-12811960D02*
X11876015Y-12821484D01*
X11876015Y-12821484D02*
X11866491Y-12811960D01*
X11866491Y-12811960D02*
X11876015Y-12802436D01*
X11876015Y-12802436D02*
X11876015Y-12821484D01*
X12009348Y-12621484D02*
X12028396Y-12621484D01*
X12028396Y-12621484D02*
X12047444Y-12631008D01*
X12047444Y-12631008D02*
X12056967Y-12640531D01*
X12056967Y-12640531D02*
X12066491Y-12659579D01*
X12066491Y-12659579D02*
X12076015Y-12697674D01*
X12076015Y-12697674D02*
X12076015Y-12745293D01*
X12076015Y-12745293D02*
X12066491Y-12783388D01*
X12066491Y-12783388D02*
X12056967Y-12802436D01*
X12056967Y-12802436D02*
X12047444Y-12811960D01*
X12047444Y-12811960D02*
X12028396Y-12821484D01*
X12028396Y-12821484D02*
X12009348Y-12821484D01*
X12009348Y-12821484D02*
X11990301Y-12811960D01*
X11990301Y-12811960D02*
X11980777Y-12802436D01*
X11980777Y-12802436D02*
X11971253Y-12783388D01*
X11971253Y-12783388D02*
X11961729Y-12745293D01*
X11961729Y-12745293D02*
X11961729Y-12697674D01*
X11961729Y-12697674D02*
X11971253Y-12659579D01*
X11971253Y-12659579D02*
X11980777Y-12640531D01*
X11980777Y-12640531D02*
X11990301Y-12631008D01*
X11990301Y-12631008D02*
X12009348Y-12621484D01*
X12142682Y-12621484D02*
X12266491Y-12621484D01*
X12266491Y-12621484D02*
X12199825Y-12697674D01*
X12199825Y-12697674D02*
X12228396Y-12697674D01*
X12228396Y-12697674D02*
X12247444Y-12707198D01*
X12247444Y-12707198D02*
X12256967Y-12716722D01*
X12256967Y-12716722D02*
X12266491Y-12735769D01*
X12266491Y-12735769D02*
X12266491Y-12783388D01*
X12266491Y-12783388D02*
X12256967Y-12802436D01*
X12256967Y-12802436D02*
X12247444Y-12811960D01*
X12247444Y-12811960D02*
X12228396Y-12821484D01*
X12228396Y-12821484D02*
X12171253Y-12821484D01*
X12171253Y-12821484D02*
X12152206Y-12811960D01*
X12152206Y-12811960D02*
X12142682Y-12802436D01*
X12456967Y-12821484D02*
X12342682Y-12821484D01*
X12399825Y-12821484D02*
X12399825Y-12621484D01*
X12399825Y-12621484D02*
X12380777Y-12650055D01*
X12380777Y-12650055D02*
X12361729Y-12669103D01*
X12361729Y-12669103D02*
X12342682Y-12678627D01*
X12637920Y-12621484D02*
X12542682Y-12621484D01*
X12542682Y-12621484D02*
X12533158Y-12716722D01*
X12533158Y-12716722D02*
X12542682Y-12707198D01*
X12542682Y-12707198D02*
X12561729Y-12697674D01*
X12561729Y-12697674D02*
X12609348Y-12697674D01*
X12609348Y-12697674D02*
X12628396Y-12707198D01*
X12628396Y-12707198D02*
X12637920Y-12716722D01*
X12637920Y-12716722D02*
X12647444Y-12735769D01*
X12647444Y-12735769D02*
X12647444Y-12783388D01*
X12647444Y-12783388D02*
X12637920Y-12802436D01*
X12637920Y-12802436D02*
X12628396Y-12811960D01*
X12628396Y-12811960D02*
X12609348Y-12821484D01*
X12609348Y-12821484D02*
X12561729Y-12821484D01*
X12561729Y-12821484D02*
X12542682Y-12811960D01*
X12542682Y-12811960D02*
X12533158Y-12802436D01*
X12723634Y-12621484D02*
X12723634Y-12659579D01*
X12799825Y-12621484D02*
X12799825Y-12659579D01*
X13095063Y-12897674D02*
X13085539Y-12888150D01*
X13085539Y-12888150D02*
X13066491Y-12859579D01*
X13066491Y-12859579D02*
X13056968Y-12840531D01*
X13056968Y-12840531D02*
X13047444Y-12811960D01*
X13047444Y-12811960D02*
X13037920Y-12764341D01*
X13037920Y-12764341D02*
X13037920Y-12726246D01*
X13037920Y-12726246D02*
X13047444Y-12678627D01*
X13047444Y-12678627D02*
X13056968Y-12650055D01*
X13056968Y-12650055D02*
X13066491Y-12631008D01*
X13066491Y-12631008D02*
X13085539Y-12602436D01*
X13085539Y-12602436D02*
X13095063Y-12592912D01*
X13161729Y-12640531D02*
X13171253Y-12631008D01*
X13171253Y-12631008D02*
X13190301Y-12621484D01*
X13190301Y-12621484D02*
X13237920Y-12621484D01*
X13237920Y-12621484D02*
X13256968Y-12631008D01*
X13256968Y-12631008D02*
X13266491Y-12640531D01*
X13266491Y-12640531D02*
X13276015Y-12659579D01*
X13276015Y-12659579D02*
X13276015Y-12678627D01*
X13276015Y-12678627D02*
X13266491Y-12707198D01*
X13266491Y-12707198D02*
X13152206Y-12821484D01*
X13152206Y-12821484D02*
X13276015Y-12821484D01*
X13447444Y-12688150D02*
X13447444Y-12821484D01*
X13399825Y-12611960D02*
X13352206Y-12754817D01*
X13352206Y-12754817D02*
X13476015Y-12754817D01*
X13704587Y-12821484D02*
X13704587Y-12621484D01*
X13790301Y-12821484D02*
X13790301Y-12716722D01*
X13790301Y-12716722D02*
X13780777Y-12697674D01*
X13780777Y-12697674D02*
X13761730Y-12688150D01*
X13761730Y-12688150D02*
X13733158Y-12688150D01*
X13733158Y-12688150D02*
X13714110Y-12697674D01*
X13714110Y-12697674D02*
X13704587Y-12707198D01*
X13914110Y-12821484D02*
X13895063Y-12811960D01*
X13895063Y-12811960D02*
X13885539Y-12802436D01*
X13885539Y-12802436D02*
X13876015Y-12783388D01*
X13876015Y-12783388D02*
X13876015Y-12726246D01*
X13876015Y-12726246D02*
X13885539Y-12707198D01*
X13885539Y-12707198D02*
X13895063Y-12697674D01*
X13895063Y-12697674D02*
X13914110Y-12688150D01*
X13914110Y-12688150D02*
X13942682Y-12688150D01*
X13942682Y-12688150D02*
X13961730Y-12697674D01*
X13961730Y-12697674D02*
X13971253Y-12707198D01*
X13971253Y-12707198D02*
X13980777Y-12726246D01*
X13980777Y-12726246D02*
X13980777Y-12783388D01*
X13980777Y-12783388D02*
X13971253Y-12802436D01*
X13971253Y-12802436D02*
X13961730Y-12811960D01*
X13961730Y-12811960D02*
X13942682Y-12821484D01*
X13942682Y-12821484D02*
X13914110Y-12821484D01*
X14095063Y-12821484D02*
X14076015Y-12811960D01*
X14076015Y-12811960D02*
X14066491Y-12792912D01*
X14066491Y-12792912D02*
X14066491Y-12621484D01*
X14247444Y-12811960D02*
X14228396Y-12821484D01*
X14228396Y-12821484D02*
X14190301Y-12821484D01*
X14190301Y-12821484D02*
X14171253Y-12811960D01*
X14171253Y-12811960D02*
X14161730Y-12792912D01*
X14161730Y-12792912D02*
X14161730Y-12716722D01*
X14161730Y-12716722D02*
X14171253Y-12697674D01*
X14171253Y-12697674D02*
X14190301Y-12688150D01*
X14190301Y-12688150D02*
X14228396Y-12688150D01*
X14228396Y-12688150D02*
X14247444Y-12697674D01*
X14247444Y-12697674D02*
X14256968Y-12716722D01*
X14256968Y-12716722D02*
X14256968Y-12735769D01*
X14256968Y-12735769D02*
X14161730Y-12754817D01*
X14333158Y-12811960D02*
X14352206Y-12821484D01*
X14352206Y-12821484D02*
X14390301Y-12821484D01*
X14390301Y-12821484D02*
X14409349Y-12811960D01*
X14409349Y-12811960D02*
X14418872Y-12792912D01*
X14418872Y-12792912D02*
X14418872Y-12783388D01*
X14418872Y-12783388D02*
X14409349Y-12764341D01*
X14409349Y-12764341D02*
X14390301Y-12754817D01*
X14390301Y-12754817D02*
X14361730Y-12754817D01*
X14361730Y-12754817D02*
X14342682Y-12745293D01*
X14342682Y-12745293D02*
X14333158Y-12726246D01*
X14333158Y-12726246D02*
X14333158Y-12716722D01*
X14333158Y-12716722D02*
X14342682Y-12697674D01*
X14342682Y-12697674D02*
X14361730Y-12688150D01*
X14361730Y-12688150D02*
X14390301Y-12688150D01*
X14390301Y-12688150D02*
X14409349Y-12697674D01*
X14485539Y-12897674D02*
X14495063Y-12888150D01*
X14495063Y-12888150D02*
X14514111Y-12859579D01*
X14514111Y-12859579D02*
X14523634Y-12840531D01*
X14523634Y-12840531D02*
X14533158Y-12811960D01*
X14533158Y-12811960D02*
X14542682Y-12764341D01*
X14542682Y-12764341D02*
X14542682Y-12726246D01*
X14542682Y-12726246D02*
X14533158Y-12678627D01*
X14533158Y-12678627D02*
X14523634Y-12650055D01*
X14523634Y-12650055D02*
X14514111Y-12631008D01*
X14514111Y-12631008D02*
X14495063Y-12602436D01*
X14495063Y-12602436D02*
X14485539Y-12592912D01*
D10*
X9505356Y-13029356D02*
X9505356Y-12958644D01*
X9434644Y-12958644D01*
X9434644Y-13029356D01*
X9505356Y-13029356D01*
D11*
X9885539Y-13085484D02*
X9771253Y-13085484D01*
X9828396Y-13085484D02*
X9828396Y-12885484D01*
X9828396Y-12885484D02*
X9809348Y-12914055D01*
X9809348Y-12914055D02*
X9790301Y-12933103D01*
X9790301Y-12933103D02*
X9771253Y-12942627D01*
X9971253Y-13066436D02*
X9980777Y-13075960D01*
X9980777Y-13075960D02*
X9971253Y-13085484D01*
X9971253Y-13085484D02*
X9961729Y-13075960D01*
X9961729Y-13075960D02*
X9971253Y-13066436D01*
X9971253Y-13066436D02*
X9971253Y-13085484D01*
X10104586Y-12885484D02*
X10123634Y-12885484D01*
X10123634Y-12885484D02*
X10142682Y-12895008D01*
X10142682Y-12895008D02*
X10152205Y-12904531D01*
X10152205Y-12904531D02*
X10161729Y-12923579D01*
X10161729Y-12923579D02*
X10171253Y-12961674D01*
X10171253Y-12961674D02*
X10171253Y-13009293D01*
X10171253Y-13009293D02*
X10161729Y-13047388D01*
X10161729Y-13047388D02*
X10152205Y-13066436D01*
X10152205Y-13066436D02*
X10142682Y-13075960D01*
X10142682Y-13075960D02*
X10123634Y-13085484D01*
X10123634Y-13085484D02*
X10104586Y-13085484D01*
X10104586Y-13085484D02*
X10085539Y-13075960D01*
X10085539Y-13075960D02*
X10076015Y-13066436D01*
X10076015Y-13066436D02*
X10066491Y-13047388D01*
X10066491Y-13047388D02*
X10056967Y-13009293D01*
X10056967Y-13009293D02*
X10056967Y-12961674D01*
X10056967Y-12961674D02*
X10066491Y-12923579D01*
X10066491Y-12923579D02*
X10076015Y-12904531D01*
X10076015Y-12904531D02*
X10085539Y-12895008D01*
X10085539Y-12895008D02*
X10104586Y-12885484D01*
X10295063Y-12885484D02*
X10314110Y-12885484D01*
X10314110Y-12885484D02*
X10333158Y-12895008D01*
X10333158Y-12895008D02*
X10342682Y-12904531D01*
X10342682Y-12904531D02*
X10352205Y-12923579D01*
X10352205Y-12923579D02*
X10361729Y-12961674D01*
X10361729Y-12961674D02*
X10361729Y-13009293D01*
X10361729Y-13009293D02*
X10352205Y-13047388D01*
X10352205Y-13047388D02*
X10342682Y-13066436D01*
X10342682Y-13066436D02*
X10333158Y-13075960D01*
X10333158Y-13075960D02*
X10314110Y-13085484D01*
X10314110Y-13085484D02*
X10295063Y-13085484D01*
X10295063Y-13085484D02*
X10276015Y-13075960D01*
X10276015Y-13075960D02*
X10266491Y-13066436D01*
X10266491Y-13066436D02*
X10256967Y-13047388D01*
X10256967Y-13047388D02*
X10247444Y-13009293D01*
X10247444Y-13009293D02*
X10247444Y-12961674D01*
X10247444Y-12961674D02*
X10256967Y-12923579D01*
X10256967Y-12923579D02*
X10266491Y-12904531D01*
X10266491Y-12904531D02*
X10276015Y-12895008D01*
X10276015Y-12895008D02*
X10295063Y-12885484D01*
X10485539Y-12885484D02*
X10504586Y-12885484D01*
X10504586Y-12885484D02*
X10523634Y-12895008D01*
X10523634Y-12895008D02*
X10533158Y-12904531D01*
X10533158Y-12904531D02*
X10542682Y-12923579D01*
X10542682Y-12923579D02*
X10552205Y-12961674D01*
X10552205Y-12961674D02*
X10552205Y-13009293D01*
X10552205Y-13009293D02*
X10542682Y-13047388D01*
X10542682Y-13047388D02*
X10533158Y-13066436D01*
X10533158Y-13066436D02*
X10523634Y-13075960D01*
X10523634Y-13075960D02*
X10504586Y-13085484D01*
X10504586Y-13085484D02*
X10485539Y-13085484D01*
X10485539Y-13085484D02*
X10466491Y-13075960D01*
X10466491Y-13075960D02*
X10456967Y-13066436D01*
X10456967Y-13066436D02*
X10447444Y-13047388D01*
X10447444Y-13047388D02*
X10437920Y-13009293D01*
X10437920Y-13009293D02*
X10437920Y-12961674D01*
X10437920Y-12961674D02*
X10447444Y-12923579D01*
X10447444Y-12923579D02*
X10456967Y-12904531D01*
X10456967Y-12904531D02*
X10466491Y-12895008D01*
X10466491Y-12895008D02*
X10485539Y-12885484D01*
X10637920Y-13085484D02*
X10637920Y-12952150D01*
X10637920Y-12971198D02*
X10647444Y-12961674D01*
X10647444Y-12961674D02*
X10666491Y-12952150D01*
X10666491Y-12952150D02*
X10695063Y-12952150D01*
X10695063Y-12952150D02*
X10714110Y-12961674D01*
X10714110Y-12961674D02*
X10723634Y-12980722D01*
X10723634Y-12980722D02*
X10723634Y-13085484D01*
X10723634Y-12980722D02*
X10733158Y-12961674D01*
X10733158Y-12961674D02*
X10752205Y-12952150D01*
X10752205Y-12952150D02*
X10780777Y-12952150D01*
X10780777Y-12952150D02*
X10799825Y-12961674D01*
X10799825Y-12961674D02*
X10809348Y-12980722D01*
X10809348Y-12980722D02*
X10809348Y-13085484D01*
X10904586Y-13085484D02*
X10904586Y-12952150D01*
X10904586Y-12971198D02*
X10914110Y-12961674D01*
X10914110Y-12961674D02*
X10933158Y-12952150D01*
X10933158Y-12952150D02*
X10961729Y-12952150D01*
X10961729Y-12952150D02*
X10980777Y-12961674D01*
X10980777Y-12961674D02*
X10990301Y-12980722D01*
X10990301Y-12980722D02*
X10990301Y-13085484D01*
X10990301Y-12980722D02*
X10999825Y-12961674D01*
X10999825Y-12961674D02*
X11018872Y-12952150D01*
X11018872Y-12952150D02*
X11047444Y-12952150D01*
X11047444Y-12952150D02*
X11066491Y-12961674D01*
X11066491Y-12961674D02*
X11076015Y-12980722D01*
X11076015Y-12980722D02*
X11076015Y-13085484D01*
X11466491Y-12875960D02*
X11295063Y-13133103D01*
X11723634Y-12885484D02*
X11742682Y-12885484D01*
X11742682Y-12885484D02*
X11761729Y-12895008D01*
X11761729Y-12895008D02*
X11771253Y-12904531D01*
X11771253Y-12904531D02*
X11780777Y-12923579D01*
X11780777Y-12923579D02*
X11790301Y-12961674D01*
X11790301Y-12961674D02*
X11790301Y-13009293D01*
X11790301Y-13009293D02*
X11780777Y-13047388D01*
X11780777Y-13047388D02*
X11771253Y-13066436D01*
X11771253Y-13066436D02*
X11761729Y-13075960D01*
X11761729Y-13075960D02*
X11742682Y-13085484D01*
X11742682Y-13085484D02*
X11723634Y-13085484D01*
X11723634Y-13085484D02*
X11704586Y-13075960D01*
X11704586Y-13075960D02*
X11695063Y-13066436D01*
X11695063Y-13066436D02*
X11685539Y-13047388D01*
X11685539Y-13047388D02*
X11676015Y-13009293D01*
X11676015Y-13009293D02*
X11676015Y-12961674D01*
X11676015Y-12961674D02*
X11685539Y-12923579D01*
X11685539Y-12923579D02*
X11695063Y-12904531D01*
X11695063Y-12904531D02*
X11704586Y-12895008D01*
X11704586Y-12895008D02*
X11723634Y-12885484D01*
X11876015Y-13066436D02*
X11885539Y-13075960D01*
X11885539Y-13075960D02*
X11876015Y-13085484D01*
X11876015Y-13085484D02*
X11866491Y-13075960D01*
X11866491Y-13075960D02*
X11876015Y-13066436D01*
X11876015Y-13066436D02*
X11876015Y-13085484D01*
X12009348Y-12885484D02*
X12028396Y-12885484D01*
X12028396Y-12885484D02*
X12047444Y-12895008D01*
X12047444Y-12895008D02*
X12056967Y-12904531D01*
X12056967Y-12904531D02*
X12066491Y-12923579D01*
X12066491Y-12923579D02*
X12076015Y-12961674D01*
X12076015Y-12961674D02*
X12076015Y-13009293D01*
X12076015Y-13009293D02*
X12066491Y-13047388D01*
X12066491Y-13047388D02*
X12056967Y-13066436D01*
X12056967Y-13066436D02*
X12047444Y-13075960D01*
X12047444Y-13075960D02*
X12028396Y-13085484D01*
X12028396Y-13085484D02*
X12009348Y-13085484D01*
X12009348Y-13085484D02*
X11990301Y-13075960D01*
X11990301Y-13075960D02*
X11980777Y-13066436D01*
X11980777Y-13066436D02*
X11971253Y-13047388D01*
X11971253Y-13047388D02*
X11961729Y-13009293D01*
X11961729Y-13009293D02*
X11961729Y-12961674D01*
X11961729Y-12961674D02*
X11971253Y-12923579D01*
X11971253Y-12923579D02*
X11980777Y-12904531D01*
X11980777Y-12904531D02*
X11990301Y-12895008D01*
X11990301Y-12895008D02*
X12009348Y-12885484D01*
X12142682Y-12885484D02*
X12266491Y-12885484D01*
X12266491Y-12885484D02*
X12199825Y-12961674D01*
X12199825Y-12961674D02*
X12228396Y-12961674D01*
X12228396Y-12961674D02*
X12247444Y-12971198D01*
X12247444Y-12971198D02*
X12256967Y-12980722D01*
X12256967Y-12980722D02*
X12266491Y-12999769D01*
X12266491Y-12999769D02*
X12266491Y-13047388D01*
X12266491Y-13047388D02*
X12256967Y-13066436D01*
X12256967Y-13066436D02*
X12247444Y-13075960D01*
X12247444Y-13075960D02*
X12228396Y-13085484D01*
X12228396Y-13085484D02*
X12171253Y-13085484D01*
X12171253Y-13085484D02*
X12152206Y-13075960D01*
X12152206Y-13075960D02*
X12142682Y-13066436D01*
X12361729Y-13085484D02*
X12399825Y-13085484D01*
X12399825Y-13085484D02*
X12418872Y-13075960D01*
X12418872Y-13075960D02*
X12428396Y-13066436D01*
X12428396Y-13066436D02*
X12447444Y-13037865D01*
X12447444Y-13037865D02*
X12456967Y-12999769D01*
X12456967Y-12999769D02*
X12456967Y-12923579D01*
X12456967Y-12923579D02*
X12447444Y-12904531D01*
X12447444Y-12904531D02*
X12437920Y-12895008D01*
X12437920Y-12895008D02*
X12418872Y-12885484D01*
X12418872Y-12885484D02*
X12380777Y-12885484D01*
X12380777Y-12885484D02*
X12361729Y-12895008D01*
X12361729Y-12895008D02*
X12352206Y-12904531D01*
X12352206Y-12904531D02*
X12342682Y-12923579D01*
X12342682Y-12923579D02*
X12342682Y-12971198D01*
X12342682Y-12971198D02*
X12352206Y-12990246D01*
X12352206Y-12990246D02*
X12361729Y-12999769D01*
X12361729Y-12999769D02*
X12380777Y-13009293D01*
X12380777Y-13009293D02*
X12418872Y-13009293D01*
X12418872Y-13009293D02*
X12437920Y-12999769D01*
X12437920Y-12999769D02*
X12447444Y-12990246D01*
X12447444Y-12990246D02*
X12456967Y-12971198D01*
X12628396Y-12952150D02*
X12628396Y-13085484D01*
X12580777Y-12875960D02*
X12533158Y-13018817D01*
X12533158Y-13018817D02*
X12656967Y-13018817D01*
X12723634Y-12885484D02*
X12723634Y-12923579D01*
X12799825Y-12885484D02*
X12799825Y-12923579D01*
X13095063Y-13161674D02*
X13085539Y-13152150D01*
X13085539Y-13152150D02*
X13066491Y-13123579D01*
X13066491Y-13123579D02*
X13056968Y-13104531D01*
X13056968Y-13104531D02*
X13047444Y-13075960D01*
X13047444Y-13075960D02*
X13037920Y-13028341D01*
X13037920Y-13028341D02*
X13037920Y-12990246D01*
X13037920Y-12990246D02*
X13047444Y-12942627D01*
X13047444Y-12942627D02*
X13056968Y-12914055D01*
X13056968Y-12914055D02*
X13066491Y-12895008D01*
X13066491Y-12895008D02*
X13085539Y-12866436D01*
X13085539Y-12866436D02*
X13095063Y-12856912D01*
X13256968Y-12885484D02*
X13218872Y-12885484D01*
X13218872Y-12885484D02*
X13199825Y-12895008D01*
X13199825Y-12895008D02*
X13190301Y-12904531D01*
X13190301Y-12904531D02*
X13171253Y-12933103D01*
X13171253Y-12933103D02*
X13161729Y-12971198D01*
X13161729Y-12971198D02*
X13161729Y-13047388D01*
X13161729Y-13047388D02*
X13171253Y-13066436D01*
X13171253Y-13066436D02*
X13180777Y-13075960D01*
X13180777Y-13075960D02*
X13199825Y-13085484D01*
X13199825Y-13085484D02*
X13237920Y-13085484D01*
X13237920Y-13085484D02*
X13256968Y-13075960D01*
X13256968Y-13075960D02*
X13266491Y-13066436D01*
X13266491Y-13066436D02*
X13276015Y-13047388D01*
X13276015Y-13047388D02*
X13276015Y-12999769D01*
X13276015Y-12999769D02*
X13266491Y-12980722D01*
X13266491Y-12980722D02*
X13256968Y-12971198D01*
X13256968Y-12971198D02*
X13237920Y-12961674D01*
X13237920Y-12961674D02*
X13199825Y-12961674D01*
X13199825Y-12961674D02*
X13180777Y-12971198D01*
X13180777Y-12971198D02*
X13171253Y-12980722D01*
X13171253Y-12980722D02*
X13161729Y-12999769D01*
X13399825Y-12885484D02*
X13418872Y-12885484D01*
X13418872Y-12885484D02*
X13437920Y-12895008D01*
X13437920Y-12895008D02*
X13447444Y-12904531D01*
X13447444Y-12904531D02*
X13456968Y-12923579D01*
X13456968Y-12923579D02*
X13466491Y-12961674D01*
X13466491Y-12961674D02*
X13466491Y-13009293D01*
X13466491Y-13009293D02*
X13456968Y-13047388D01*
X13456968Y-13047388D02*
X13447444Y-13066436D01*
X13447444Y-13066436D02*
X13437920Y-13075960D01*
X13437920Y-13075960D02*
X13418872Y-13085484D01*
X13418872Y-13085484D02*
X13399825Y-13085484D01*
X13399825Y-13085484D02*
X13380777Y-13075960D01*
X13380777Y-13075960D02*
X13371253Y-13066436D01*
X13371253Y-13066436D02*
X13361729Y-13047388D01*
X13361729Y-13047388D02*
X13352206Y-13009293D01*
X13352206Y-13009293D02*
X13352206Y-12961674D01*
X13352206Y-12961674D02*
X13361729Y-12923579D01*
X13361729Y-12923579D02*
X13371253Y-12904531D01*
X13371253Y-12904531D02*
X13380777Y-12895008D01*
X13380777Y-12895008D02*
X13399825Y-12885484D01*
X13704587Y-13085484D02*
X13704587Y-12885484D01*
X13790301Y-13085484D02*
X13790301Y-12980722D01*
X13790301Y-12980722D02*
X13780777Y-12961674D01*
X13780777Y-12961674D02*
X13761730Y-12952150D01*
X13761730Y-12952150D02*
X13733158Y-12952150D01*
X13733158Y-12952150D02*
X13714110Y-12961674D01*
X13714110Y-12961674D02*
X13704587Y-12971198D01*
X13914110Y-13085484D02*
X13895063Y-13075960D01*
X13895063Y-13075960D02*
X13885539Y-13066436D01*
X13885539Y-13066436D02*
X13876015Y-13047388D01*
X13876015Y-13047388D02*
X13876015Y-12990246D01*
X13876015Y-12990246D02*
X13885539Y-12971198D01*
X13885539Y-12971198D02*
X13895063Y-12961674D01*
X13895063Y-12961674D02*
X13914110Y-12952150D01*
X13914110Y-12952150D02*
X13942682Y-12952150D01*
X13942682Y-12952150D02*
X13961730Y-12961674D01*
X13961730Y-12961674D02*
X13971253Y-12971198D01*
X13971253Y-12971198D02*
X13980777Y-12990246D01*
X13980777Y-12990246D02*
X13980777Y-13047388D01*
X13980777Y-13047388D02*
X13971253Y-13066436D01*
X13971253Y-13066436D02*
X13961730Y-13075960D01*
X13961730Y-13075960D02*
X13942682Y-13085484D01*
X13942682Y-13085484D02*
X13914110Y-13085484D01*
X14095063Y-13085484D02*
X14076015Y-13075960D01*
X14076015Y-13075960D02*
X14066491Y-13056912D01*
X14066491Y-13056912D02*
X14066491Y-12885484D01*
X14247444Y-13075960D02*
X14228396Y-13085484D01*
X14228396Y-13085484D02*
X14190301Y-13085484D01*
X14190301Y-13085484D02*
X14171253Y-13075960D01*
X14171253Y-13075960D02*
X14161730Y-13056912D01*
X14161730Y-13056912D02*
X14161730Y-12980722D01*
X14161730Y-12980722D02*
X14171253Y-12961674D01*
X14171253Y-12961674D02*
X14190301Y-12952150D01*
X14190301Y-12952150D02*
X14228396Y-12952150D01*
X14228396Y-12952150D02*
X14247444Y-12961674D01*
X14247444Y-12961674D02*
X14256968Y-12980722D01*
X14256968Y-12980722D02*
X14256968Y-12999769D01*
X14256968Y-12999769D02*
X14161730Y-13018817D01*
X14333158Y-13075960D02*
X14352206Y-13085484D01*
X14352206Y-13085484D02*
X14390301Y-13085484D01*
X14390301Y-13085484D02*
X14409349Y-13075960D01*
X14409349Y-13075960D02*
X14418872Y-13056912D01*
X14418872Y-13056912D02*
X14418872Y-13047388D01*
X14418872Y-13047388D02*
X14409349Y-13028341D01*
X14409349Y-13028341D02*
X14390301Y-13018817D01*
X14390301Y-13018817D02*
X14361730Y-13018817D01*
X14361730Y-13018817D02*
X14342682Y-13009293D01*
X14342682Y-13009293D02*
X14333158Y-12990246D01*
X14333158Y-12990246D02*
X14333158Y-12980722D01*
X14333158Y-12980722D02*
X14342682Y-12961674D01*
X14342682Y-12961674D02*
X14361730Y-12952150D01*
X14361730Y-12952150D02*
X14390301Y-12952150D01*
X14390301Y-12952150D02*
X14409349Y-12961674D01*
X14485539Y-13161674D02*
X14495063Y-13152150D01*
X14495063Y-13152150D02*
X14514111Y-13123579D01*
X14514111Y-13123579D02*
X14523634Y-13104531D01*
X14523634Y-13104531D02*
X14533158Y-13075960D01*
X14533158Y-13075960D02*
X14542682Y-13028341D01*
X14542682Y-13028341D02*
X14542682Y-12990246D01*
X14542682Y-12990246D02*
X14533158Y-12942627D01*
X14533158Y-12942627D02*
X14523634Y-12914055D01*
X14523634Y-12914055D02*
X14514111Y-12895008D01*
X14514111Y-12895008D02*
X14495063Y-12866436D01*
X14495063Y-12866436D02*
X14485539Y-12856912D01*
D15*
X9465000Y-13313000D02*
X9520000Y-13258000D01*
X9465000Y-13203000D01*
X9410000Y-13258000D01*
X9465000Y-13313000D01*
D11*
X9885539Y-13349484D02*
X9771253Y-13349484D01*
X9828396Y-13349484D02*
X9828396Y-13149484D01*
X9828396Y-13149484D02*
X9809348Y-13178055D01*
X9809348Y-13178055D02*
X9790301Y-13197103D01*
X9790301Y-13197103D02*
X9771253Y-13206627D01*
X9971253Y-13330436D02*
X9980777Y-13339960D01*
X9980777Y-13339960D02*
X9971253Y-13349484D01*
X9971253Y-13349484D02*
X9961729Y-13339960D01*
X9961729Y-13339960D02*
X9971253Y-13330436D01*
X9971253Y-13330436D02*
X9971253Y-13349484D01*
X10171253Y-13349484D02*
X10056967Y-13349484D01*
X10114110Y-13349484D02*
X10114110Y-13149484D01*
X10114110Y-13149484D02*
X10095063Y-13178055D01*
X10095063Y-13178055D02*
X10076015Y-13197103D01*
X10076015Y-13197103D02*
X10056967Y-13206627D01*
X10295063Y-13149484D02*
X10314110Y-13149484D01*
X10314110Y-13149484D02*
X10333158Y-13159008D01*
X10333158Y-13159008D02*
X10342682Y-13168531D01*
X10342682Y-13168531D02*
X10352205Y-13187579D01*
X10352205Y-13187579D02*
X10361729Y-13225674D01*
X10361729Y-13225674D02*
X10361729Y-13273293D01*
X10361729Y-13273293D02*
X10352205Y-13311388D01*
X10352205Y-13311388D02*
X10342682Y-13330436D01*
X10342682Y-13330436D02*
X10333158Y-13339960D01*
X10333158Y-13339960D02*
X10314110Y-13349484D01*
X10314110Y-13349484D02*
X10295063Y-13349484D01*
X10295063Y-13349484D02*
X10276015Y-13339960D01*
X10276015Y-13339960D02*
X10266491Y-13330436D01*
X10266491Y-13330436D02*
X10256967Y-13311388D01*
X10256967Y-13311388D02*
X10247444Y-13273293D01*
X10247444Y-13273293D02*
X10247444Y-13225674D01*
X10247444Y-13225674D02*
X10256967Y-13187579D01*
X10256967Y-13187579D02*
X10266491Y-13168531D01*
X10266491Y-13168531D02*
X10276015Y-13159008D01*
X10276015Y-13159008D02*
X10295063Y-13149484D01*
X10485539Y-13149484D02*
X10504586Y-13149484D01*
X10504586Y-13149484D02*
X10523634Y-13159008D01*
X10523634Y-13159008D02*
X10533158Y-13168531D01*
X10533158Y-13168531D02*
X10542682Y-13187579D01*
X10542682Y-13187579D02*
X10552205Y-13225674D01*
X10552205Y-13225674D02*
X10552205Y-13273293D01*
X10552205Y-13273293D02*
X10542682Y-13311388D01*
X10542682Y-13311388D02*
X10533158Y-13330436D01*
X10533158Y-13330436D02*
X10523634Y-13339960D01*
X10523634Y-13339960D02*
X10504586Y-13349484D01*
X10504586Y-13349484D02*
X10485539Y-13349484D01*
X10485539Y-13349484D02*
X10466491Y-13339960D01*
X10466491Y-13339960D02*
X10456967Y-13330436D01*
X10456967Y-13330436D02*
X10447444Y-13311388D01*
X10447444Y-13311388D02*
X10437920Y-13273293D01*
X10437920Y-13273293D02*
X10437920Y-13225674D01*
X10437920Y-13225674D02*
X10447444Y-13187579D01*
X10447444Y-13187579D02*
X10456967Y-13168531D01*
X10456967Y-13168531D02*
X10466491Y-13159008D01*
X10466491Y-13159008D02*
X10485539Y-13149484D01*
X10637920Y-13349484D02*
X10637920Y-13216150D01*
X10637920Y-13235198D02*
X10647444Y-13225674D01*
X10647444Y-13225674D02*
X10666491Y-13216150D01*
X10666491Y-13216150D02*
X10695063Y-13216150D01*
X10695063Y-13216150D02*
X10714110Y-13225674D01*
X10714110Y-13225674D02*
X10723634Y-13244722D01*
X10723634Y-13244722D02*
X10723634Y-13349484D01*
X10723634Y-13244722D02*
X10733158Y-13225674D01*
X10733158Y-13225674D02*
X10752205Y-13216150D01*
X10752205Y-13216150D02*
X10780777Y-13216150D01*
X10780777Y-13216150D02*
X10799825Y-13225674D01*
X10799825Y-13225674D02*
X10809348Y-13244722D01*
X10809348Y-13244722D02*
X10809348Y-13349484D01*
X10904586Y-13349484D02*
X10904586Y-13216150D01*
X10904586Y-13235198D02*
X10914110Y-13225674D01*
X10914110Y-13225674D02*
X10933158Y-13216150D01*
X10933158Y-13216150D02*
X10961729Y-13216150D01*
X10961729Y-13216150D02*
X10980777Y-13225674D01*
X10980777Y-13225674D02*
X10990301Y-13244722D01*
X10990301Y-13244722D02*
X10990301Y-13349484D01*
X10990301Y-13244722D02*
X10999825Y-13225674D01*
X10999825Y-13225674D02*
X11018872Y-13216150D01*
X11018872Y-13216150D02*
X11047444Y-13216150D01*
X11047444Y-13216150D02*
X11066491Y-13225674D01*
X11066491Y-13225674D02*
X11076015Y-13244722D01*
X11076015Y-13244722D02*
X11076015Y-13349484D01*
X11466491Y-13139960D02*
X11295063Y-13397103D01*
X11723634Y-13149484D02*
X11742682Y-13149484D01*
X11742682Y-13149484D02*
X11761729Y-13159008D01*
X11761729Y-13159008D02*
X11771253Y-13168531D01*
X11771253Y-13168531D02*
X11780777Y-13187579D01*
X11780777Y-13187579D02*
X11790301Y-13225674D01*
X11790301Y-13225674D02*
X11790301Y-13273293D01*
X11790301Y-13273293D02*
X11780777Y-13311388D01*
X11780777Y-13311388D02*
X11771253Y-13330436D01*
X11771253Y-13330436D02*
X11761729Y-13339960D01*
X11761729Y-13339960D02*
X11742682Y-13349484D01*
X11742682Y-13349484D02*
X11723634Y-13349484D01*
X11723634Y-13349484D02*
X11704586Y-13339960D01*
X11704586Y-13339960D02*
X11695063Y-13330436D01*
X11695063Y-13330436D02*
X11685539Y-13311388D01*
X11685539Y-13311388D02*
X11676015Y-13273293D01*
X11676015Y-13273293D02*
X11676015Y-13225674D01*
X11676015Y-13225674D02*
X11685539Y-13187579D01*
X11685539Y-13187579D02*
X11695063Y-13168531D01*
X11695063Y-13168531D02*
X11704586Y-13159008D01*
X11704586Y-13159008D02*
X11723634Y-13149484D01*
X11876015Y-13330436D02*
X11885539Y-13339960D01*
X11885539Y-13339960D02*
X11876015Y-13349484D01*
X11876015Y-13349484D02*
X11866491Y-13339960D01*
X11866491Y-13339960D02*
X11876015Y-13330436D01*
X11876015Y-13330436D02*
X11876015Y-13349484D01*
X12009348Y-13149484D02*
X12028396Y-13149484D01*
X12028396Y-13149484D02*
X12047444Y-13159008D01*
X12047444Y-13159008D02*
X12056967Y-13168531D01*
X12056967Y-13168531D02*
X12066491Y-13187579D01*
X12066491Y-13187579D02*
X12076015Y-13225674D01*
X12076015Y-13225674D02*
X12076015Y-13273293D01*
X12076015Y-13273293D02*
X12066491Y-13311388D01*
X12066491Y-13311388D02*
X12056967Y-13330436D01*
X12056967Y-13330436D02*
X12047444Y-13339960D01*
X12047444Y-13339960D02*
X12028396Y-13349484D01*
X12028396Y-13349484D02*
X12009348Y-13349484D01*
X12009348Y-13349484D02*
X11990301Y-13339960D01*
X11990301Y-13339960D02*
X11980777Y-13330436D01*
X11980777Y-13330436D02*
X11971253Y-13311388D01*
X11971253Y-13311388D02*
X11961729Y-13273293D01*
X11961729Y-13273293D02*
X11961729Y-13225674D01*
X11961729Y-13225674D02*
X11971253Y-13187579D01*
X11971253Y-13187579D02*
X11980777Y-13168531D01*
X11980777Y-13168531D02*
X11990301Y-13159008D01*
X11990301Y-13159008D02*
X12009348Y-13149484D01*
X12247444Y-13216150D02*
X12247444Y-13349484D01*
X12199825Y-13139960D02*
X12152206Y-13282817D01*
X12152206Y-13282817D02*
X12276015Y-13282817D01*
X12333158Y-13149484D02*
X12456967Y-13149484D01*
X12456967Y-13149484D02*
X12390301Y-13225674D01*
X12390301Y-13225674D02*
X12418872Y-13225674D01*
X12418872Y-13225674D02*
X12437920Y-13235198D01*
X12437920Y-13235198D02*
X12447444Y-13244722D01*
X12447444Y-13244722D02*
X12456967Y-13263769D01*
X12456967Y-13263769D02*
X12456967Y-13311388D01*
X12456967Y-13311388D02*
X12447444Y-13330436D01*
X12447444Y-13330436D02*
X12437920Y-13339960D01*
X12437920Y-13339960D02*
X12418872Y-13349484D01*
X12418872Y-13349484D02*
X12361729Y-13349484D01*
X12361729Y-13349484D02*
X12342682Y-13339960D01*
X12342682Y-13339960D02*
X12333158Y-13330436D01*
X12523634Y-13149484D02*
X12647444Y-13149484D01*
X12647444Y-13149484D02*
X12580777Y-13225674D01*
X12580777Y-13225674D02*
X12609348Y-13225674D01*
X12609348Y-13225674D02*
X12628396Y-13235198D01*
X12628396Y-13235198D02*
X12637920Y-13244722D01*
X12637920Y-13244722D02*
X12647444Y-13263769D01*
X12647444Y-13263769D02*
X12647444Y-13311388D01*
X12647444Y-13311388D02*
X12637920Y-13330436D01*
X12637920Y-13330436D02*
X12628396Y-13339960D01*
X12628396Y-13339960D02*
X12609348Y-13349484D01*
X12609348Y-13349484D02*
X12552206Y-13349484D01*
X12552206Y-13349484D02*
X12533158Y-13339960D01*
X12533158Y-13339960D02*
X12523634Y-13330436D01*
X12723634Y-13149484D02*
X12723634Y-13187579D01*
X12799825Y-13149484D02*
X12799825Y-13187579D01*
X13095063Y-13425674D02*
X13085539Y-13416150D01*
X13085539Y-13416150D02*
X13066491Y-13387579D01*
X13066491Y-13387579D02*
X13056968Y-13368531D01*
X13056968Y-13368531D02*
X13047444Y-13339960D01*
X13047444Y-13339960D02*
X13037920Y-13292341D01*
X13037920Y-13292341D02*
X13037920Y-13254246D01*
X13037920Y-13254246D02*
X13047444Y-13206627D01*
X13047444Y-13206627D02*
X13056968Y-13178055D01*
X13056968Y-13178055D02*
X13066491Y-13159008D01*
X13066491Y-13159008D02*
X13085539Y-13130436D01*
X13085539Y-13130436D02*
X13095063Y-13120912D01*
X13276015Y-13349484D02*
X13161729Y-13349484D01*
X13218872Y-13349484D02*
X13218872Y-13149484D01*
X13218872Y-13149484D02*
X13199825Y-13178055D01*
X13199825Y-13178055D02*
X13180777Y-13197103D01*
X13180777Y-13197103D02*
X13161729Y-13206627D01*
X13399825Y-13149484D02*
X13418872Y-13149484D01*
X13418872Y-13149484D02*
X13437920Y-13159008D01*
X13437920Y-13159008D02*
X13447444Y-13168531D01*
X13447444Y-13168531D02*
X13456968Y-13187579D01*
X13456968Y-13187579D02*
X13466491Y-13225674D01*
X13466491Y-13225674D02*
X13466491Y-13273293D01*
X13466491Y-13273293D02*
X13456968Y-13311388D01*
X13456968Y-13311388D02*
X13447444Y-13330436D01*
X13447444Y-13330436D02*
X13437920Y-13339960D01*
X13437920Y-13339960D02*
X13418872Y-13349484D01*
X13418872Y-13349484D02*
X13399825Y-13349484D01*
X13399825Y-13349484D02*
X13380777Y-13339960D01*
X13380777Y-13339960D02*
X13371253Y-13330436D01*
X13371253Y-13330436D02*
X13361729Y-13311388D01*
X13361729Y-13311388D02*
X13352206Y-13273293D01*
X13352206Y-13273293D02*
X13352206Y-13225674D01*
X13352206Y-13225674D02*
X13361729Y-13187579D01*
X13361729Y-13187579D02*
X13371253Y-13168531D01*
X13371253Y-13168531D02*
X13380777Y-13159008D01*
X13380777Y-13159008D02*
X13399825Y-13149484D01*
X13704587Y-13349484D02*
X13704587Y-13149484D01*
X13790301Y-13349484D02*
X13790301Y-13244722D01*
X13790301Y-13244722D02*
X13780777Y-13225674D01*
X13780777Y-13225674D02*
X13761730Y-13216150D01*
X13761730Y-13216150D02*
X13733158Y-13216150D01*
X13733158Y-13216150D02*
X13714110Y-13225674D01*
X13714110Y-13225674D02*
X13704587Y-13235198D01*
X13914110Y-13349484D02*
X13895063Y-13339960D01*
X13895063Y-13339960D02*
X13885539Y-13330436D01*
X13885539Y-13330436D02*
X13876015Y-13311388D01*
X13876015Y-13311388D02*
X13876015Y-13254246D01*
X13876015Y-13254246D02*
X13885539Y-13235198D01*
X13885539Y-13235198D02*
X13895063Y-13225674D01*
X13895063Y-13225674D02*
X13914110Y-13216150D01*
X13914110Y-13216150D02*
X13942682Y-13216150D01*
X13942682Y-13216150D02*
X13961730Y-13225674D01*
X13961730Y-13225674D02*
X13971253Y-13235198D01*
X13971253Y-13235198D02*
X13980777Y-13254246D01*
X13980777Y-13254246D02*
X13980777Y-13311388D01*
X13980777Y-13311388D02*
X13971253Y-13330436D01*
X13971253Y-13330436D02*
X13961730Y-13339960D01*
X13961730Y-13339960D02*
X13942682Y-13349484D01*
X13942682Y-13349484D02*
X13914110Y-13349484D01*
X14095063Y-13349484D02*
X14076015Y-13339960D01*
X14076015Y-13339960D02*
X14066491Y-13320912D01*
X14066491Y-13320912D02*
X14066491Y-13149484D01*
X14247444Y-13339960D02*
X14228396Y-13349484D01*
X14228396Y-13349484D02*
X14190301Y-13349484D01*
X14190301Y-13349484D02*
X14171253Y-13339960D01*
X14171253Y-13339960D02*
X14161730Y-13320912D01*
X14161730Y-13320912D02*
X14161730Y-13244722D01*
X14161730Y-13244722D02*
X14171253Y-13225674D01*
X14171253Y-13225674D02*
X14190301Y-13216150D01*
X14190301Y-13216150D02*
X14228396Y-13216150D01*
X14228396Y-13216150D02*
X14247444Y-13225674D01*
X14247444Y-13225674D02*
X14256968Y-13244722D01*
X14256968Y-13244722D02*
X14256968Y-13263769D01*
X14256968Y-13263769D02*
X14161730Y-13282817D01*
X14333158Y-13339960D02*
X14352206Y-13349484D01*
X14352206Y-13349484D02*
X14390301Y-13349484D01*
X14390301Y-13349484D02*
X14409349Y-13339960D01*
X14409349Y-13339960D02*
X14418872Y-13320912D01*
X14418872Y-13320912D02*
X14418872Y-13311388D01*
X14418872Y-13311388D02*
X14409349Y-13292341D01*
X14409349Y-13292341D02*
X14390301Y-13282817D01*
X14390301Y-13282817D02*
X14361730Y-13282817D01*
X14361730Y-13282817D02*
X14342682Y-13273293D01*
X14342682Y-13273293D02*
X14333158Y-13254246D01*
X14333158Y-13254246D02*
X14333158Y-13244722D01*
X14333158Y-13244722D02*
X14342682Y-13225674D01*
X14342682Y-13225674D02*
X14361730Y-13216150D01*
X14361730Y-13216150D02*
X14390301Y-13216150D01*
X14390301Y-13216150D02*
X14409349Y-13225674D01*
X14485539Y-13425674D02*
X14495063Y-13416150D01*
X14495063Y-13416150D02*
X14514111Y-13387579D01*
X14514111Y-13387579D02*
X14523634Y-13368531D01*
X14523634Y-13368531D02*
X14533158Y-13339960D01*
X14533158Y-13339960D02*
X14542682Y-13292341D01*
X14542682Y-13292341D02*
X14542682Y-13254246D01*
X14542682Y-13254246D02*
X14533158Y-13206627D01*
X14533158Y-13206627D02*
X14523634Y-13178055D01*
X14523634Y-13178055D02*
X14514111Y-13159008D01*
X14514111Y-13159008D02*
X14495063Y-13130436D01*
X14495063Y-13130436D02*
X14485539Y-13120912D01*
D16*
X9400000Y-13462000D02*
X9520000Y-13582000D01*
X9520000Y-13462000D02*
X9400000Y-13582000D01*
X9520000Y-13522000D02*
G75*
G03*
X9520000Y-13522000I-60000J0D01*
G01*
D11*
X9885539Y-13613484D02*
X9771253Y-13613484D01*
X9828396Y-13613484D02*
X9828396Y-13413484D01*
X9828396Y-13413484D02*
X9809348Y-13442055D01*
X9809348Y-13442055D02*
X9790301Y-13461103D01*
X9790301Y-13461103D02*
X9771253Y-13470627D01*
X9971253Y-13594436D02*
X9980777Y-13603960D01*
X9980777Y-13603960D02*
X9971253Y-13613484D01*
X9971253Y-13613484D02*
X9961729Y-13603960D01*
X9961729Y-13603960D02*
X9971253Y-13594436D01*
X9971253Y-13594436D02*
X9971253Y-13613484D01*
X10056967Y-13432531D02*
X10066491Y-13423008D01*
X10066491Y-13423008D02*
X10085539Y-13413484D01*
X10085539Y-13413484D02*
X10133158Y-13413484D01*
X10133158Y-13413484D02*
X10152205Y-13423008D01*
X10152205Y-13423008D02*
X10161729Y-13432531D01*
X10161729Y-13432531D02*
X10171253Y-13451579D01*
X10171253Y-13451579D02*
X10171253Y-13470627D01*
X10171253Y-13470627D02*
X10161729Y-13499198D01*
X10161729Y-13499198D02*
X10047444Y-13613484D01*
X10047444Y-13613484D02*
X10171253Y-13613484D01*
X10295063Y-13413484D02*
X10314110Y-13413484D01*
X10314110Y-13413484D02*
X10333158Y-13423008D01*
X10333158Y-13423008D02*
X10342682Y-13432531D01*
X10342682Y-13432531D02*
X10352205Y-13451579D01*
X10352205Y-13451579D02*
X10361729Y-13489674D01*
X10361729Y-13489674D02*
X10361729Y-13537293D01*
X10361729Y-13537293D02*
X10352205Y-13575388D01*
X10352205Y-13575388D02*
X10342682Y-13594436D01*
X10342682Y-13594436D02*
X10333158Y-13603960D01*
X10333158Y-13603960D02*
X10314110Y-13613484D01*
X10314110Y-13613484D02*
X10295063Y-13613484D01*
X10295063Y-13613484D02*
X10276015Y-13603960D01*
X10276015Y-13603960D02*
X10266491Y-13594436D01*
X10266491Y-13594436D02*
X10256967Y-13575388D01*
X10256967Y-13575388D02*
X10247444Y-13537293D01*
X10247444Y-13537293D02*
X10247444Y-13489674D01*
X10247444Y-13489674D02*
X10256967Y-13451579D01*
X10256967Y-13451579D02*
X10266491Y-13432531D01*
X10266491Y-13432531D02*
X10276015Y-13423008D01*
X10276015Y-13423008D02*
X10295063Y-13413484D01*
X10485539Y-13413484D02*
X10504586Y-13413484D01*
X10504586Y-13413484D02*
X10523634Y-13423008D01*
X10523634Y-13423008D02*
X10533158Y-13432531D01*
X10533158Y-13432531D02*
X10542682Y-13451579D01*
X10542682Y-13451579D02*
X10552205Y-13489674D01*
X10552205Y-13489674D02*
X10552205Y-13537293D01*
X10552205Y-13537293D02*
X10542682Y-13575388D01*
X10542682Y-13575388D02*
X10533158Y-13594436D01*
X10533158Y-13594436D02*
X10523634Y-13603960D01*
X10523634Y-13603960D02*
X10504586Y-13613484D01*
X10504586Y-13613484D02*
X10485539Y-13613484D01*
X10485539Y-13613484D02*
X10466491Y-13603960D01*
X10466491Y-13603960D02*
X10456967Y-13594436D01*
X10456967Y-13594436D02*
X10447444Y-13575388D01*
X10447444Y-13575388D02*
X10437920Y-13537293D01*
X10437920Y-13537293D02*
X10437920Y-13489674D01*
X10437920Y-13489674D02*
X10447444Y-13451579D01*
X10447444Y-13451579D02*
X10456967Y-13432531D01*
X10456967Y-13432531D02*
X10466491Y-13423008D01*
X10466491Y-13423008D02*
X10485539Y-13413484D01*
X10637920Y-13613484D02*
X10637920Y-13480150D01*
X10637920Y-13499198D02*
X10647444Y-13489674D01*
X10647444Y-13489674D02*
X10666491Y-13480150D01*
X10666491Y-13480150D02*
X10695063Y-13480150D01*
X10695063Y-13480150D02*
X10714110Y-13489674D01*
X10714110Y-13489674D02*
X10723634Y-13508722D01*
X10723634Y-13508722D02*
X10723634Y-13613484D01*
X10723634Y-13508722D02*
X10733158Y-13489674D01*
X10733158Y-13489674D02*
X10752205Y-13480150D01*
X10752205Y-13480150D02*
X10780777Y-13480150D01*
X10780777Y-13480150D02*
X10799825Y-13489674D01*
X10799825Y-13489674D02*
X10809348Y-13508722D01*
X10809348Y-13508722D02*
X10809348Y-13613484D01*
X10904586Y-13613484D02*
X10904586Y-13480150D01*
X10904586Y-13499198D02*
X10914110Y-13489674D01*
X10914110Y-13489674D02*
X10933158Y-13480150D01*
X10933158Y-13480150D02*
X10961729Y-13480150D01*
X10961729Y-13480150D02*
X10980777Y-13489674D01*
X10980777Y-13489674D02*
X10990301Y-13508722D01*
X10990301Y-13508722D02*
X10990301Y-13613484D01*
X10990301Y-13508722D02*
X10999825Y-13489674D01*
X10999825Y-13489674D02*
X11018872Y-13480150D01*
X11018872Y-13480150D02*
X11047444Y-13480150D01*
X11047444Y-13480150D02*
X11066491Y-13489674D01*
X11066491Y-13489674D02*
X11076015Y-13508722D01*
X11076015Y-13508722D02*
X11076015Y-13613484D01*
X11466491Y-13403960D02*
X11295063Y-13661103D01*
X11723634Y-13413484D02*
X11742682Y-13413484D01*
X11742682Y-13413484D02*
X11761729Y-13423008D01*
X11761729Y-13423008D02*
X11771253Y-13432531D01*
X11771253Y-13432531D02*
X11780777Y-13451579D01*
X11780777Y-13451579D02*
X11790301Y-13489674D01*
X11790301Y-13489674D02*
X11790301Y-13537293D01*
X11790301Y-13537293D02*
X11780777Y-13575388D01*
X11780777Y-13575388D02*
X11771253Y-13594436D01*
X11771253Y-13594436D02*
X11761729Y-13603960D01*
X11761729Y-13603960D02*
X11742682Y-13613484D01*
X11742682Y-13613484D02*
X11723634Y-13613484D01*
X11723634Y-13613484D02*
X11704586Y-13603960D01*
X11704586Y-13603960D02*
X11695063Y-13594436D01*
X11695063Y-13594436D02*
X11685539Y-13575388D01*
X11685539Y-13575388D02*
X11676015Y-13537293D01*
X11676015Y-13537293D02*
X11676015Y-13489674D01*
X11676015Y-13489674D02*
X11685539Y-13451579D01*
X11685539Y-13451579D02*
X11695063Y-13432531D01*
X11695063Y-13432531D02*
X11704586Y-13423008D01*
X11704586Y-13423008D02*
X11723634Y-13413484D01*
X11876015Y-13594436D02*
X11885539Y-13603960D01*
X11885539Y-13603960D02*
X11876015Y-13613484D01*
X11876015Y-13613484D02*
X11866491Y-13603960D01*
X11866491Y-13603960D02*
X11876015Y-13594436D01*
X11876015Y-13594436D02*
X11876015Y-13613484D01*
X12009348Y-13413484D02*
X12028396Y-13413484D01*
X12028396Y-13413484D02*
X12047444Y-13423008D01*
X12047444Y-13423008D02*
X12056967Y-13432531D01*
X12056967Y-13432531D02*
X12066491Y-13451579D01*
X12066491Y-13451579D02*
X12076015Y-13489674D01*
X12076015Y-13489674D02*
X12076015Y-13537293D01*
X12076015Y-13537293D02*
X12066491Y-13575388D01*
X12066491Y-13575388D02*
X12056967Y-13594436D01*
X12056967Y-13594436D02*
X12047444Y-13603960D01*
X12047444Y-13603960D02*
X12028396Y-13613484D01*
X12028396Y-13613484D02*
X12009348Y-13613484D01*
X12009348Y-13613484D02*
X11990301Y-13603960D01*
X11990301Y-13603960D02*
X11980777Y-13594436D01*
X11980777Y-13594436D02*
X11971253Y-13575388D01*
X11971253Y-13575388D02*
X11961729Y-13537293D01*
X11961729Y-13537293D02*
X11961729Y-13489674D01*
X11961729Y-13489674D02*
X11971253Y-13451579D01*
X11971253Y-13451579D02*
X11980777Y-13432531D01*
X11980777Y-13432531D02*
X11990301Y-13423008D01*
X11990301Y-13423008D02*
X12009348Y-13413484D01*
X12247444Y-13480150D02*
X12247444Y-13613484D01*
X12199825Y-13403960D02*
X12152206Y-13546817D01*
X12152206Y-13546817D02*
X12276015Y-13546817D01*
X12333158Y-13413484D02*
X12466491Y-13413484D01*
X12466491Y-13413484D02*
X12380777Y-13613484D01*
X12533158Y-13432531D02*
X12542682Y-13423008D01*
X12542682Y-13423008D02*
X12561729Y-13413484D01*
X12561729Y-13413484D02*
X12609348Y-13413484D01*
X12609348Y-13413484D02*
X12628396Y-13423008D01*
X12628396Y-13423008D02*
X12637920Y-13432531D01*
X12637920Y-13432531D02*
X12647444Y-13451579D01*
X12647444Y-13451579D02*
X12647444Y-13470627D01*
X12647444Y-13470627D02*
X12637920Y-13499198D01*
X12637920Y-13499198D02*
X12523634Y-13613484D01*
X12523634Y-13613484D02*
X12647444Y-13613484D01*
X12723634Y-13413484D02*
X12723634Y-13451579D01*
X12799825Y-13413484D02*
X12799825Y-13451579D01*
X13095063Y-13689674D02*
X13085539Y-13680150D01*
X13085539Y-13680150D02*
X13066491Y-13651579D01*
X13066491Y-13651579D02*
X13056968Y-13632531D01*
X13056968Y-13632531D02*
X13047444Y-13603960D01*
X13047444Y-13603960D02*
X13037920Y-13556341D01*
X13037920Y-13556341D02*
X13037920Y-13518246D01*
X13037920Y-13518246D02*
X13047444Y-13470627D01*
X13047444Y-13470627D02*
X13056968Y-13442055D01*
X13056968Y-13442055D02*
X13066491Y-13423008D01*
X13066491Y-13423008D02*
X13085539Y-13394436D01*
X13085539Y-13394436D02*
X13095063Y-13384912D01*
X13256968Y-13480150D02*
X13256968Y-13613484D01*
X13209348Y-13403960D02*
X13161729Y-13546817D01*
X13161729Y-13546817D02*
X13285539Y-13546817D01*
X13514110Y-13613484D02*
X13514110Y-13413484D01*
X13599825Y-13613484D02*
X13599825Y-13508722D01*
X13599825Y-13508722D02*
X13590301Y-13489674D01*
X13590301Y-13489674D02*
X13571253Y-13480150D01*
X13571253Y-13480150D02*
X13542682Y-13480150D01*
X13542682Y-13480150D02*
X13523634Y-13489674D01*
X13523634Y-13489674D02*
X13514110Y-13499198D01*
X13723634Y-13613484D02*
X13704587Y-13603960D01*
X13704587Y-13603960D02*
X13695063Y-13594436D01*
X13695063Y-13594436D02*
X13685539Y-13575388D01*
X13685539Y-13575388D02*
X13685539Y-13518246D01*
X13685539Y-13518246D02*
X13695063Y-13499198D01*
X13695063Y-13499198D02*
X13704587Y-13489674D01*
X13704587Y-13489674D02*
X13723634Y-13480150D01*
X13723634Y-13480150D02*
X13752206Y-13480150D01*
X13752206Y-13480150D02*
X13771253Y-13489674D01*
X13771253Y-13489674D02*
X13780777Y-13499198D01*
X13780777Y-13499198D02*
X13790301Y-13518246D01*
X13790301Y-13518246D02*
X13790301Y-13575388D01*
X13790301Y-13575388D02*
X13780777Y-13594436D01*
X13780777Y-13594436D02*
X13771253Y-13603960D01*
X13771253Y-13603960D02*
X13752206Y-13613484D01*
X13752206Y-13613484D02*
X13723634Y-13613484D01*
X13904587Y-13613484D02*
X13885539Y-13603960D01*
X13885539Y-13603960D02*
X13876015Y-13584912D01*
X13876015Y-13584912D02*
X13876015Y-13413484D01*
X14056968Y-13603960D02*
X14037920Y-13613484D01*
X14037920Y-13613484D02*
X13999825Y-13613484D01*
X13999825Y-13613484D02*
X13980777Y-13603960D01*
X13980777Y-13603960D02*
X13971253Y-13584912D01*
X13971253Y-13584912D02*
X13971253Y-13508722D01*
X13971253Y-13508722D02*
X13980777Y-13489674D01*
X13980777Y-13489674D02*
X13999825Y-13480150D01*
X13999825Y-13480150D02*
X14037920Y-13480150D01*
X14037920Y-13480150D02*
X14056968Y-13489674D01*
X14056968Y-13489674D02*
X14066491Y-13508722D01*
X14066491Y-13508722D02*
X14066491Y-13527769D01*
X14066491Y-13527769D02*
X13971253Y-13546817D01*
X14142682Y-13603960D02*
X14161730Y-13613484D01*
X14161730Y-13613484D02*
X14199825Y-13613484D01*
X14199825Y-13613484D02*
X14218872Y-13603960D01*
X14218872Y-13603960D02*
X14228396Y-13584912D01*
X14228396Y-13584912D02*
X14228396Y-13575388D01*
X14228396Y-13575388D02*
X14218872Y-13556341D01*
X14218872Y-13556341D02*
X14199825Y-13546817D01*
X14199825Y-13546817D02*
X14171253Y-13546817D01*
X14171253Y-13546817D02*
X14152206Y-13537293D01*
X14152206Y-13537293D02*
X14142682Y-13518246D01*
X14142682Y-13518246D02*
X14142682Y-13508722D01*
X14142682Y-13508722D02*
X14152206Y-13489674D01*
X14152206Y-13489674D02*
X14171253Y-13480150D01*
X14171253Y-13480150D02*
X14199825Y-13480150D01*
X14199825Y-13480150D02*
X14218872Y-13489674D01*
X14295063Y-13689674D02*
X14304587Y-13680150D01*
X14304587Y-13680150D02*
X14323634Y-13651579D01*
X14323634Y-13651579D02*
X14333158Y-13632531D01*
X14333158Y-13632531D02*
X14342682Y-13603960D01*
X14342682Y-13603960D02*
X14352206Y-13556341D01*
X14352206Y-13556341D02*
X14352206Y-13518246D01*
X14352206Y-13518246D02*
X14342682Y-13470627D01*
X14342682Y-13470627D02*
X14333158Y-13442055D01*
X14333158Y-13442055D02*
X14323634Y-13423008D01*
X14323634Y-13423008D02*
X14304587Y-13394436D01*
X14304587Y-13394436D02*
X14295063Y-13384912D01*
D17*
X9380000Y-13716000D02*
X9520000Y-13856000D01*
X9520000Y-13716000D02*
X9380000Y-13856000D01*
X9450000Y-13716000D02*
X9450000Y-13856000D01*
X9380000Y-13786000D02*
X9520000Y-13786000D01*
D11*
X9885539Y-13877484D02*
X9771253Y-13877484D01*
X9828396Y-13877484D02*
X9828396Y-13677484D01*
X9828396Y-13677484D02*
X9809348Y-13706055D01*
X9809348Y-13706055D02*
X9790301Y-13725103D01*
X9790301Y-13725103D02*
X9771253Y-13734627D01*
X9971253Y-13858436D02*
X9980777Y-13867960D01*
X9980777Y-13867960D02*
X9971253Y-13877484D01*
X9971253Y-13877484D02*
X9961729Y-13867960D01*
X9961729Y-13867960D02*
X9971253Y-13858436D01*
X9971253Y-13858436D02*
X9971253Y-13877484D01*
X10152205Y-13744150D02*
X10152205Y-13877484D01*
X10104586Y-13667960D02*
X10056967Y-13810817D01*
X10056967Y-13810817D02*
X10180777Y-13810817D01*
X10295063Y-13677484D02*
X10314110Y-13677484D01*
X10314110Y-13677484D02*
X10333158Y-13687008D01*
X10333158Y-13687008D02*
X10342682Y-13696531D01*
X10342682Y-13696531D02*
X10352205Y-13715579D01*
X10352205Y-13715579D02*
X10361729Y-13753674D01*
X10361729Y-13753674D02*
X10361729Y-13801293D01*
X10361729Y-13801293D02*
X10352205Y-13839388D01*
X10352205Y-13839388D02*
X10342682Y-13858436D01*
X10342682Y-13858436D02*
X10333158Y-13867960D01*
X10333158Y-13867960D02*
X10314110Y-13877484D01*
X10314110Y-13877484D02*
X10295063Y-13877484D01*
X10295063Y-13877484D02*
X10276015Y-13867960D01*
X10276015Y-13867960D02*
X10266491Y-13858436D01*
X10266491Y-13858436D02*
X10256967Y-13839388D01*
X10256967Y-13839388D02*
X10247444Y-13801293D01*
X10247444Y-13801293D02*
X10247444Y-13753674D01*
X10247444Y-13753674D02*
X10256967Y-13715579D01*
X10256967Y-13715579D02*
X10266491Y-13696531D01*
X10266491Y-13696531D02*
X10276015Y-13687008D01*
X10276015Y-13687008D02*
X10295063Y-13677484D01*
X10485539Y-13677484D02*
X10504586Y-13677484D01*
X10504586Y-13677484D02*
X10523634Y-13687008D01*
X10523634Y-13687008D02*
X10533158Y-13696531D01*
X10533158Y-13696531D02*
X10542682Y-13715579D01*
X10542682Y-13715579D02*
X10552205Y-13753674D01*
X10552205Y-13753674D02*
X10552205Y-13801293D01*
X10552205Y-13801293D02*
X10542682Y-13839388D01*
X10542682Y-13839388D02*
X10533158Y-13858436D01*
X10533158Y-13858436D02*
X10523634Y-13867960D01*
X10523634Y-13867960D02*
X10504586Y-13877484D01*
X10504586Y-13877484D02*
X10485539Y-13877484D01*
X10485539Y-13877484D02*
X10466491Y-13867960D01*
X10466491Y-13867960D02*
X10456967Y-13858436D01*
X10456967Y-13858436D02*
X10447444Y-13839388D01*
X10447444Y-13839388D02*
X10437920Y-13801293D01*
X10437920Y-13801293D02*
X10437920Y-13753674D01*
X10437920Y-13753674D02*
X10447444Y-13715579D01*
X10447444Y-13715579D02*
X10456967Y-13696531D01*
X10456967Y-13696531D02*
X10466491Y-13687008D01*
X10466491Y-13687008D02*
X10485539Y-13677484D01*
X10637920Y-13877484D02*
X10637920Y-13744150D01*
X10637920Y-13763198D02*
X10647444Y-13753674D01*
X10647444Y-13753674D02*
X10666491Y-13744150D01*
X10666491Y-13744150D02*
X10695063Y-13744150D01*
X10695063Y-13744150D02*
X10714110Y-13753674D01*
X10714110Y-13753674D02*
X10723634Y-13772722D01*
X10723634Y-13772722D02*
X10723634Y-13877484D01*
X10723634Y-13772722D02*
X10733158Y-13753674D01*
X10733158Y-13753674D02*
X10752205Y-13744150D01*
X10752205Y-13744150D02*
X10780777Y-13744150D01*
X10780777Y-13744150D02*
X10799825Y-13753674D01*
X10799825Y-13753674D02*
X10809348Y-13772722D01*
X10809348Y-13772722D02*
X10809348Y-13877484D01*
X10904586Y-13877484D02*
X10904586Y-13744150D01*
X10904586Y-13763198D02*
X10914110Y-13753674D01*
X10914110Y-13753674D02*
X10933158Y-13744150D01*
X10933158Y-13744150D02*
X10961729Y-13744150D01*
X10961729Y-13744150D02*
X10980777Y-13753674D01*
X10980777Y-13753674D02*
X10990301Y-13772722D01*
X10990301Y-13772722D02*
X10990301Y-13877484D01*
X10990301Y-13772722D02*
X10999825Y-13753674D01*
X10999825Y-13753674D02*
X11018872Y-13744150D01*
X11018872Y-13744150D02*
X11047444Y-13744150D01*
X11047444Y-13744150D02*
X11066491Y-13753674D01*
X11066491Y-13753674D02*
X11076015Y-13772722D01*
X11076015Y-13772722D02*
X11076015Y-13877484D01*
X11466491Y-13667960D02*
X11295063Y-13925103D01*
X11723634Y-13677484D02*
X11742682Y-13677484D01*
X11742682Y-13677484D02*
X11761729Y-13687008D01*
X11761729Y-13687008D02*
X11771253Y-13696531D01*
X11771253Y-13696531D02*
X11780777Y-13715579D01*
X11780777Y-13715579D02*
X11790301Y-13753674D01*
X11790301Y-13753674D02*
X11790301Y-13801293D01*
X11790301Y-13801293D02*
X11780777Y-13839388D01*
X11780777Y-13839388D02*
X11771253Y-13858436D01*
X11771253Y-13858436D02*
X11761729Y-13867960D01*
X11761729Y-13867960D02*
X11742682Y-13877484D01*
X11742682Y-13877484D02*
X11723634Y-13877484D01*
X11723634Y-13877484D02*
X11704586Y-13867960D01*
X11704586Y-13867960D02*
X11695063Y-13858436D01*
X11695063Y-13858436D02*
X11685539Y-13839388D01*
X11685539Y-13839388D02*
X11676015Y-13801293D01*
X11676015Y-13801293D02*
X11676015Y-13753674D01*
X11676015Y-13753674D02*
X11685539Y-13715579D01*
X11685539Y-13715579D02*
X11695063Y-13696531D01*
X11695063Y-13696531D02*
X11704586Y-13687008D01*
X11704586Y-13687008D02*
X11723634Y-13677484D01*
X11876015Y-13858436D02*
X11885539Y-13867960D01*
X11885539Y-13867960D02*
X11876015Y-13877484D01*
X11876015Y-13877484D02*
X11866491Y-13867960D01*
X11866491Y-13867960D02*
X11876015Y-13858436D01*
X11876015Y-13858436D02*
X11876015Y-13877484D01*
X12009348Y-13677484D02*
X12028396Y-13677484D01*
X12028396Y-13677484D02*
X12047444Y-13687008D01*
X12047444Y-13687008D02*
X12056967Y-13696531D01*
X12056967Y-13696531D02*
X12066491Y-13715579D01*
X12066491Y-13715579D02*
X12076015Y-13753674D01*
X12076015Y-13753674D02*
X12076015Y-13801293D01*
X12076015Y-13801293D02*
X12066491Y-13839388D01*
X12066491Y-13839388D02*
X12056967Y-13858436D01*
X12056967Y-13858436D02*
X12047444Y-13867960D01*
X12047444Y-13867960D02*
X12028396Y-13877484D01*
X12028396Y-13877484D02*
X12009348Y-13877484D01*
X12009348Y-13877484D02*
X11990301Y-13867960D01*
X11990301Y-13867960D02*
X11980777Y-13858436D01*
X11980777Y-13858436D02*
X11971253Y-13839388D01*
X11971253Y-13839388D02*
X11961729Y-13801293D01*
X11961729Y-13801293D02*
X11961729Y-13753674D01*
X11961729Y-13753674D02*
X11971253Y-13715579D01*
X11971253Y-13715579D02*
X11980777Y-13696531D01*
X11980777Y-13696531D02*
X11990301Y-13687008D01*
X11990301Y-13687008D02*
X12009348Y-13677484D01*
X12256967Y-13677484D02*
X12161729Y-13677484D01*
X12161729Y-13677484D02*
X12152206Y-13772722D01*
X12152206Y-13772722D02*
X12161729Y-13763198D01*
X12161729Y-13763198D02*
X12180777Y-13753674D01*
X12180777Y-13753674D02*
X12228396Y-13753674D01*
X12228396Y-13753674D02*
X12247444Y-13763198D01*
X12247444Y-13763198D02*
X12256967Y-13772722D01*
X12256967Y-13772722D02*
X12266491Y-13791769D01*
X12266491Y-13791769D02*
X12266491Y-13839388D01*
X12266491Y-13839388D02*
X12256967Y-13858436D01*
X12256967Y-13858436D02*
X12247444Y-13867960D01*
X12247444Y-13867960D02*
X12228396Y-13877484D01*
X12228396Y-13877484D02*
X12180777Y-13877484D01*
X12180777Y-13877484D02*
X12161729Y-13867960D01*
X12161729Y-13867960D02*
X12152206Y-13858436D01*
X12447444Y-13677484D02*
X12352206Y-13677484D01*
X12352206Y-13677484D02*
X12342682Y-13772722D01*
X12342682Y-13772722D02*
X12352206Y-13763198D01*
X12352206Y-13763198D02*
X12371253Y-13753674D01*
X12371253Y-13753674D02*
X12418872Y-13753674D01*
X12418872Y-13753674D02*
X12437920Y-13763198D01*
X12437920Y-13763198D02*
X12447444Y-13772722D01*
X12447444Y-13772722D02*
X12456967Y-13791769D01*
X12456967Y-13791769D02*
X12456967Y-13839388D01*
X12456967Y-13839388D02*
X12447444Y-13858436D01*
X12447444Y-13858436D02*
X12437920Y-13867960D01*
X12437920Y-13867960D02*
X12418872Y-13877484D01*
X12418872Y-13877484D02*
X12371253Y-13877484D01*
X12371253Y-13877484D02*
X12352206Y-13867960D01*
X12352206Y-13867960D02*
X12342682Y-13858436D01*
X12647444Y-13877484D02*
X12533158Y-13877484D01*
X12590301Y-13877484D02*
X12590301Y-13677484D01*
X12590301Y-13677484D02*
X12571253Y-13706055D01*
X12571253Y-13706055D02*
X12552206Y-13725103D01*
X12552206Y-13725103D02*
X12533158Y-13734627D01*
X12723634Y-13677484D02*
X12723634Y-13715579D01*
X12799825Y-13677484D02*
X12799825Y-13715579D01*
X13095063Y-13953674D02*
X13085539Y-13944150D01*
X13085539Y-13944150D02*
X13066491Y-13915579D01*
X13066491Y-13915579D02*
X13056968Y-13896531D01*
X13056968Y-13896531D02*
X13047444Y-13867960D01*
X13047444Y-13867960D02*
X13037920Y-13820341D01*
X13037920Y-13820341D02*
X13037920Y-13782246D01*
X13037920Y-13782246D02*
X13047444Y-13734627D01*
X13047444Y-13734627D02*
X13056968Y-13706055D01*
X13056968Y-13706055D02*
X13066491Y-13687008D01*
X13066491Y-13687008D02*
X13085539Y-13658436D01*
X13085539Y-13658436D02*
X13095063Y-13648912D01*
X13256968Y-13744150D02*
X13256968Y-13877484D01*
X13209348Y-13667960D02*
X13161729Y-13810817D01*
X13161729Y-13810817D02*
X13285539Y-13810817D01*
X13514110Y-13877484D02*
X13514110Y-13677484D01*
X13599825Y-13877484D02*
X13599825Y-13772722D01*
X13599825Y-13772722D02*
X13590301Y-13753674D01*
X13590301Y-13753674D02*
X13571253Y-13744150D01*
X13571253Y-13744150D02*
X13542682Y-13744150D01*
X13542682Y-13744150D02*
X13523634Y-13753674D01*
X13523634Y-13753674D02*
X13514110Y-13763198D01*
X13723634Y-13877484D02*
X13704587Y-13867960D01*
X13704587Y-13867960D02*
X13695063Y-13858436D01*
X13695063Y-13858436D02*
X13685539Y-13839388D01*
X13685539Y-13839388D02*
X13685539Y-13782246D01*
X13685539Y-13782246D02*
X13695063Y-13763198D01*
X13695063Y-13763198D02*
X13704587Y-13753674D01*
X13704587Y-13753674D02*
X13723634Y-13744150D01*
X13723634Y-13744150D02*
X13752206Y-13744150D01*
X13752206Y-13744150D02*
X13771253Y-13753674D01*
X13771253Y-13753674D02*
X13780777Y-13763198D01*
X13780777Y-13763198D02*
X13790301Y-13782246D01*
X13790301Y-13782246D02*
X13790301Y-13839388D01*
X13790301Y-13839388D02*
X13780777Y-13858436D01*
X13780777Y-13858436D02*
X13771253Y-13867960D01*
X13771253Y-13867960D02*
X13752206Y-13877484D01*
X13752206Y-13877484D02*
X13723634Y-13877484D01*
X13904587Y-13877484D02*
X13885539Y-13867960D01*
X13885539Y-13867960D02*
X13876015Y-13848912D01*
X13876015Y-13848912D02*
X13876015Y-13677484D01*
X14056968Y-13867960D02*
X14037920Y-13877484D01*
X14037920Y-13877484D02*
X13999825Y-13877484D01*
X13999825Y-13877484D02*
X13980777Y-13867960D01*
X13980777Y-13867960D02*
X13971253Y-13848912D01*
X13971253Y-13848912D02*
X13971253Y-13772722D01*
X13971253Y-13772722D02*
X13980777Y-13753674D01*
X13980777Y-13753674D02*
X13999825Y-13744150D01*
X13999825Y-13744150D02*
X14037920Y-13744150D01*
X14037920Y-13744150D02*
X14056968Y-13753674D01*
X14056968Y-13753674D02*
X14066491Y-13772722D01*
X14066491Y-13772722D02*
X14066491Y-13791769D01*
X14066491Y-13791769D02*
X13971253Y-13810817D01*
X14142682Y-13867960D02*
X14161730Y-13877484D01*
X14161730Y-13877484D02*
X14199825Y-13877484D01*
X14199825Y-13877484D02*
X14218872Y-13867960D01*
X14218872Y-13867960D02*
X14228396Y-13848912D01*
X14228396Y-13848912D02*
X14228396Y-13839388D01*
X14228396Y-13839388D02*
X14218872Y-13820341D01*
X14218872Y-13820341D02*
X14199825Y-13810817D01*
X14199825Y-13810817D02*
X14171253Y-13810817D01*
X14171253Y-13810817D02*
X14152206Y-13801293D01*
X14152206Y-13801293D02*
X14142682Y-13782246D01*
X14142682Y-13782246D02*
X14142682Y-13772722D01*
X14142682Y-13772722D02*
X14152206Y-13753674D01*
X14152206Y-13753674D02*
X14171253Y-13744150D01*
X14171253Y-13744150D02*
X14199825Y-13744150D01*
X14199825Y-13744150D02*
X14218872Y-13753674D01*
X14295063Y-13953674D02*
X14304587Y-13944150D01*
X14304587Y-13944150D02*
X14323634Y-13915579D01*
X14323634Y-13915579D02*
X14333158Y-13896531D01*
X14333158Y-13896531D02*
X14342682Y-13867960D01*
X14342682Y-13867960D02*
X14352206Y-13820341D01*
X14352206Y-13820341D02*
X14352206Y-13782246D01*
X14352206Y-13782246D02*
X14342682Y-13734627D01*
X14342682Y-13734627D02*
X14333158Y-13706055D01*
X14333158Y-13706055D02*
X14323634Y-13687008D01*
X14323634Y-13687008D02*
X14304587Y-13658436D01*
X14304587Y-13658436D02*
X14295063Y-13648912D01*
M02*
