solid ASCII
  facet normal 0.000000e+00 4.226183e-01 -9.063078e-01
    outer loop
      vertex   -1.000000e+01 4.000000e+01 1.865231e+01
      vertex   1.000000e+01 4.000000e+01 1.865231e+01
      vertex   -4.750000e+01 7.654042e-16 0.000000e+00
    endloop
  endfacet
  facet normal 7.582667e-18 4.226183e-01 -9.063078e-01
    outer loop
      vertex   -4.750000e+01 7.654042e-16 0.000000e+00
      vertex   1.000000e+01 4.000000e+01 1.865231e+01
      vertex   4.750000e+01 -9.390970e-16 0.000000e+00
    endloop
  endfacet
  facet normal 7.295372e-01 6.839411e-01 -0.000000e+00
    outer loop
      vertex   4.750000e+01 -9.390970e-16 0.000000e+00
      vertex   1.000000e+01 4.000000e+01 1.865231e+01
      vertex   4.750000e+01 -9.390970e-16 8.000000e+01
    endloop
  endfacet
  facet normal 7.295372e-01 6.839411e-01 0.000000e+00
    outer loop
      vertex   4.750000e+01 -9.390970e-16 8.000000e+01
      vertex   1.000000e+01 4.000000e+01 1.865231e+01
      vertex   1.000000e+01 4.000000e+01 6.544119e+01
    endloop
  endfacet
  facet normal 0.000000e+00 1.000000e+00 -0.000000e+00
    outer loop
      vertex   1.000000e+01 4.000000e+01 1.865231e+01
      vertex   -1.000000e+01 4.000000e+01 1.865231e+01
      vertex   1.000000e+01 4.000000e+01 6.544119e+01
    endloop
  endfacet
  facet normal 0.000000e+00 1.000000e+00 0.000000e+00
    outer loop
      vertex   1.000000e+01 4.000000e+01 6.544119e+01
      vertex   -1.000000e+01 4.000000e+01 1.865231e+01
      vertex   -1.000000e+01 4.000000e+01 6.544119e+01
    endloop
  endfacet
  facet normal 6.136566e-18 3.420201e-01 9.396926e-01
    outer loop
      vertex   -4.750000e+01 7.654042e-16 8.000000e+01
      vertex   4.750000e+01 -9.390970e-16 8.000000e+01
      vertex   -1.000000e+01 4.000000e+01 6.544119e+01
    endloop
  endfacet
  facet normal -0.000000e+00 3.420201e-01 9.396926e-01
    outer loop
      vertex   -1.000000e+01 4.000000e+01 6.544119e+01
      vertex   4.750000e+01 -9.390970e-16 8.000000e+01
      vertex   1.000000e+01 4.000000e+01 6.544119e+01
    endloop
  endfacet
  facet normal -7.295372e-01 6.839411e-01 8.430225e-34
    outer loop
      vertex   -4.750000e+01 7.654042e-16 0.000000e+00
      vertex   -4.750000e+01 7.654042e-16 8.000000e+01
      vertex   -1.000000e+01 4.000000e+01 1.865231e+01
    endloop
  endfacet
  facet normal -7.295372e-01 6.839411e-01 0.000000e+00
    outer loop
      vertex   -1.000000e+01 4.000000e+01 1.865231e+01
      vertex   -4.750000e+01 7.654042e-16 8.000000e+01
      vertex   -1.000000e+01 4.000000e+01 6.544119e+01
    endloop
  endfacet
  facet normal 1.000000e+00 0.000000e+00 0.000000e+00
    outer loop
      vertex   4.750000e+01 -9.390970e-16 8.000000e+01
      vertex   4.750000e+01 -3.000000e+01 7.196152e+01
      vertex   4.750000e+01 -9.390970e-16 0.000000e+00
    endloop
  endfacet
  facet normal 1.000000e+00 0.000000e+00 0.000000e+00
    outer loop
      vertex   4.750000e+01 -9.390970e-16 0.000000e+00
      vertex   4.750000e+01 -3.000000e+01 7.196152e+01
      vertex   4.750000e+01 -3.000000e+01 0.000000e+00
    endloop
  endfacet
  facet normal 0.000000e+00 0.000000e+00 -1.000000e+00
    outer loop
      vertex   -4.750000e+01 7.654042e-16 0.000000e+00
      vertex   4.750000e+01 -9.390970e-16 0.000000e+00
      vertex   -4.750000e+01 -3.000000e+01 0.000000e+00
    endloop
  endfacet
  facet normal 0.000000e+00 0.000000e+00 -1.000000e+00
    outer loop
      vertex   -4.750000e+01 -3.000000e+01 0.000000e+00
      vertex   4.750000e+01 -9.390970e-16 0.000000e+00
      vertex   4.750000e+01 -3.000000e+01 0.000000e+00
    endloop
  endfacet
  facet normal 9.529258e-01 -3.032037e-01 0.000000e+00
    outer loop
      vertex   4.750000e+01 -3.000000e+01 7.196152e+01
      vertex   1.250000e+01 -1.400000e+02 4.248711e+01
      vertex   4.750000e+01 -3.000000e+01 0.000000e+00
    endloop
  endfacet
  facet normal 9.529258e-01 -3.032037e-01 0.000000e+00
    outer loop
      vertex   4.750000e+01 -3.000000e+01 0.000000e+00
      vertex   1.250000e+01 -1.400000e+02 4.248711e+01
      vertex   1.250000e+01 -1.400000e+02 1.939597e+01
    endloop
  endfacet
  facet normal 0.000000e+00 -1.736482e-01 -9.848078e-01
    outer loop
      vertex   -4.750000e+01 -3.000000e+01 0.000000e+00
      vertex   4.750000e+01 -3.000000e+01 0.000000e+00
      vertex   -1.250000e+01 -1.400000e+02 1.939597e+01
    endloop
  endfacet
  facet normal 0.000000e+00 -1.736482e-01 -9.848078e-01
    outer loop
      vertex   -1.250000e+01 -1.400000e+02 1.939597e+01
      vertex   4.750000e+01 -3.000000e+01 0.000000e+00
      vertex   1.250000e+01 -1.400000e+02 1.939597e+01
    endloop
  endfacet
  facet normal -1.000000e+00 0.000000e+00 -0.000000e+00
    outer loop
      vertex   -4.750000e+01 7.654042e-16 8.000000e+01
      vertex   -4.750000e+01 7.654042e-16 0.000000e+00
      vertex   -4.750000e+01 -3.000000e+01 7.196152e+01
    endloop
  endfacet
  facet normal -1.000000e+00 0.000000e+00 0.000000e+00
    outer loop
      vertex   -4.750000e+01 -3.000000e+01 7.196152e+01
      vertex   -4.750000e+01 7.654042e-16 0.000000e+00
      vertex   -4.750000e+01 -3.000000e+01 0.000000e+00
    endloop
  endfacet
  facet normal -9.529258e-01 -3.032037e-01 -0.000000e+00
    outer loop
      vertex   -4.750000e+01 -3.000000e+01 7.196152e+01
      vertex   -4.750000e+01 -3.000000e+01 0.000000e+00
      vertex   -1.250000e+01 -1.400000e+02 4.248711e+01
    endloop
  endfacet
  facet normal -9.529258e-01 -3.032037e-01 -0.000000e+00
    outer loop
      vertex   -1.250000e+01 -1.400000e+02 4.248711e+01
      vertex   -4.750000e+01 -3.000000e+01 0.000000e+00
      vertex   -1.250000e+01 -1.400000e+02 1.939597e+01
    endloop
  endfacet
  facet normal -0.000000e+00 -1.000000e+00 -0.000000e+00
    outer loop
      vertex   1.250000e+01 -1.400000e+02 4.248711e+01
      vertex   -1.250000e+01 -1.400000e+02 4.248711e+01
      vertex   1.250000e+01 -1.400000e+02 1.939597e+01
    endloop
  endfacet
  facet normal 0.000000e+00 -1.000000e+00 0.000000e+00
    outer loop
      vertex   1.250000e+01 -1.400000e+02 1.939597e+01
      vertex   -1.250000e+01 -1.400000e+02 4.248711e+01
      vertex   -1.250000e+01 -1.400000e+02 1.939597e+01
    endloop
  endfacet
  facet normal -4.643762e-18 -2.588190e-01 9.659258e-01
    outer loop
      vertex   4.750000e+01 -9.390970e-16 8.000000e+01
      vertex   -4.750000e+01 7.654042e-16 8.000000e+01
      vertex   4.750000e+01 -3.000000e+01 7.196152e+01
    endloop
  endfacet
  facet normal 0.000000e+00 -2.588190e-01 9.659258e-01
    outer loop
      vertex   4.750000e+01 -3.000000e+01 7.196152e+01
      vertex   -4.750000e+01 7.654042e-16 8.000000e+01
      vertex   -4.750000e+01 -3.000000e+01 7.196152e+01
    endloop
  endfacet
  facet normal 0.000000e+00 -2.588190e-01 9.659258e-01
    outer loop
      vertex   4.750000e+01 -3.000000e+01 7.196152e+01
      vertex   -4.750000e+01 -3.000000e+01 7.196152e+01
      vertex   1.250000e+01 -1.400000e+02 4.248711e+01
    endloop
  endfacet
  facet normal 0.000000e+00 -2.588190e-01 9.659258e-01
    outer loop
      vertex   1.250000e+01 -1.400000e+02 4.248711e+01
      vertex   -4.750000e+01 -3.000000e+01 7.196152e+01
      vertex   -1.250000e+01 -1.400000e+02 4.248711e+01
    endloop
  endfacet
endsolid
