<?xml version="1.0" encoding="utf-8"?>
<!-- Generator: Adobe Illustrator 16.0.4, SVG Export Plug-In . SVG Version: 6.00 Build 0)  -->
<!DOCTYPE svg PUBLIC "-//W3C//DTD SVG 1.1//EN" "http://www.w3.org/Graphics/SVG/1.1/DTD/svg11.dtd">
<svg version="1.1" id="Vrstva_1" xmlns="http://www.w3.org/2000/svg" xmlns:xlink="http://www.w3.org/1999/xlink" x="0px" y="0px"
	 width="218px" height="162px" viewBox="19.565 12.83 218 162" enable-background="new 19.565 12.83 218 162" xml:space="preserve">
<path fill="none" stroke="#000000" stroke-miterlimit="10" d="M34.893,80.613c5.462,0,10.813,0,16.295,0
	c0.508,1.198,0.99,2.425,1.541,3.619c3.505,7.6,8.5,14.233,13.572,20.808c4.462,5.782,9.013,11.497,13.521,17.243
	c0.439,0.561,0.862,1.133,1.488,1.958c-11.671,0-23.064,0-34.458,0c-0.019,0.132-0.034,0.265-0.051,0.396
	c33.521,8.478,67.04,16.952,100.822,25.495c-0.509,0.654-0.797,1.107-1.161,1.482c-5.377,5.538-11.563,9.87-18.603,13.123
	c-3.783,1.748-7.526,1.432-11.37,1.039c-13.768-1.408-27.008-4.798-39.479-10.869c-15.042-7.322-27.771-17.344-36.272-32.043
	c-7.219-12.479-9.466-25.828-6.468-39.989C34.429,82.131,34.674,81.404,34.893,80.613z"/>
<path fill="none" stroke="#000000" stroke-miterlimit="10" d="M166.765,80.687c0.285,3.022,0.557,5.913,0.854,9.073
	c-19.303,0-38.29,0-57.803,0c8.858,11.771,17.412,23.135,26.135,34.725c-0.683,0.093-1.084,0.195-1.483,0.195
	c-10.788-0.021-21.577-0.07-32.366-0.059c-1.271,0-2.166-0.379-3.025-1.319c-5.392-5.902-6.533-12.591-3.801-20.005
	c1.963-5.324,5.215-9.865,8.951-14.053c2.427-2.719,5.045-5.271,7.65-7.822c0.491-0.481,1.33-0.858,2.011-0.86
	c17.151-0.046,34.305-0.037,51.457-0.03C165.721,80.531,166.097,80.611,166.765,80.687z"/>
<path fill="none" stroke="#000000" stroke-miterlimit="10" d="M57.29,46.729c3.146-2.229,6.204-4.596,9.454-6.662
	c13.812-8.782,28.977-13.832,45.14-16.005c3.339-0.449,6.705-0.738,10.067-0.953c1.118-0.07,2.327,0.15,3.392,0.53
	c8.236,2.94,15.186,7.848,21.224,14.107c0.441,0.458,0.822,0.974,1.448,1.723c-3.649,0.769-6.979,1.483-10.314,2.165
	c-8.938,1.83-17.877,3.649-26.819,5.459c-0.697,0.141-1.42,0.244-2.131,0.244c-16.599,0.014-33.197,0.012-49.797,0.007
	c-0.478,0-0.956-0.058-1.434-0.089C57.442,47.08,57.366,46.905,57.29,46.729z"/>
<path fill="none" stroke="#000000" stroke-miterlimit="10" d="M223.118,78.822c-10.082,0-19.896,0-29.868,0
	c-2.825-11.111-8.105-20.891-15.696-29.734c0.752-0.062,1.216-0.135,1.68-0.135c7.577-0.007,15.154-0.043,22.73,0.044
	c0.933,0.011,2.073,0.458,2.754,1.093c8.046,7.512,14.246,16.277,17.831,26.769C222.741,77.424,222.884,78.006,223.118,78.822z"/>
<path fill="none" stroke="#000000" stroke-miterlimit="10" d="M177.988,156.59c-2.479-3.283-4.801-6.359-7.216-9.559
	c8.28-7.541,14.762-16.258,19.137-26.55c9.675,0,19.271,0,29.228,0C209.834,137.688,195.372,148.625,177.988,156.59z"/>
<path fill="none" stroke="#000000" stroke-miterlimit="10" d="M155.172,48.899c5.763,9.367,9.34,19.196,11.173,29.895
	c-17.198,0-34.201,0-51.66,0C127.459,67.571,141.22,58.306,155.172,48.899z"/>
<path fill="none" stroke="#000000" stroke-miterlimit="10" d="M191.404,78.82c-7.851,0-15.568,0-23.445,0
	c-1.886-10.492-5.31-20.355-10.854-29.653c0.64-0.097,1.043-0.208,1.447-0.21c5.201-0.012,10.402-0.045,15.604,0.036
	c0.713,0.011,1.62,0.435,2.095,0.97c6.953,7.864,12,16.798,14.873,26.921c0.121,0.425,0.226,0.854,0.312,1.288
	C191.466,78.326,191.424,78.496,191.404,78.82z"/>
<path fill="none" stroke="#000000" stroke-miterlimit="10" d="M50.648,78.846c-5.171,0-10.068,0-15.204,0
	c0.176-0.707,0.274-1.281,0.461-1.826c3.621-10.6,9.876-19.459,18.015-27.047c0.58-0.541,1.525-0.978,2.304-0.98
	c14.658-0.057,29.315-0.041,43.975-0.037c0.162,0,0.324,0.039,0.56,0.293c-0.521,0.133-1.036,0.277-1.561,0.396
	c-11.377,2.586-22.761,5.169-33.687,9.35c-3.188,1.219-6.34,2.663-9.265,4.412c-5.26,3.145-6.787,5.789-5.919,13.293
	C50.402,77.349,50.52,77.993,50.648,78.846z"/>
<path fill="none" stroke="#000000" stroke-miterlimit="10" d="M188.255,120.461c-4.314,9.9-10.433,18.089-18.388,25.369
	c-3.112-4.11-6.128-8.09-9.113-12.031c1.712-4.493,3.378-8.863,5.083-13.338C173.171,120.461,180.557,120.461,188.255,120.461z"/>
<path fill="none" stroke="#000000" stroke-miterlimit="10" d="M195.1,89.697c-0.451-2.999-0.894-5.928-1.357-9.021
	c9.947,0,19.812,0,30.07,0c0.521,2.882,1.056,5.859,1.625,9.021C215.08,89.697,205.152,89.697,195.1,89.697z"/>
<path fill="none" stroke="#000000" stroke-miterlimit="10" d="M178.452,32.932c8.342,3.704,15.918,8.273,23.062,14.26
	c-0.79,0.073-1.243,0.151-1.696,0.152c-7.408,0.008-14.815-0.016-22.225,0.027c-1.144,0.006-2.024-0.271-2.747-1.164
	c-1.812-2.24-3.651-4.457-5.553-6.771C171.771,37.676,175.065,35.336,178.452,32.932z"/>
<path fill="none" stroke="#000000" stroke-miterlimit="10" d="M192.154,80.633c0.455,3,0.897,5.916,1.369,9.025
	c-8.24,0-16.164,0-24.294,0c-0.303-2.941-0.608-5.92-0.928-9.025C176.247,80.633,184.013,80.633,192.154,80.633z"/>
<path fill="none" stroke="#000000" stroke-miterlimit="10" d="M137.097,23.361c13.812,0.615,27.118,3.481,39.864,9.279
	c-1.771,0.472-3.536,0.961-5.312,1.411c-2.411,0.611-4.818,1.253-7.255,1.75c-0.673,0.138-1.594,0.036-2.145-0.336
	c-7.61-5.158-15.798-9.101-24.574-11.827C137.474,23.576,137.289,23.455,137.097,23.361z"/>
<path fill="none" stroke="#000000" stroke-miterlimit="10" d="M175.561,157.2c-12.289,5.399-25.124,8.099-38.476,8.745
	c0.345-0.152,0.679-0.336,1.033-0.449c8.15-2.609,15.817-6.223,22.969-10.934c0.51-0.336,1.265-0.664,1.797-0.539
	C167.125,155.021,171.339,156.127,175.561,157.2z"/>
<path fill="none" stroke="#000000" stroke-miterlimit="10" d="M160.979,36.648c-3.856,0.848-7.458,1.641-11.146,2.451
	c-6.039-6.84-13.026-12.325-21.674-16.01C134.293,22.838,154.245,31.094,160.979,36.648z"/>
<path fill="none" stroke="#000000" stroke-miterlimit="10" d="M149.449,150.598c3.486,0.885,6.896,1.75,10.729,2.723
	c-9.952,6.539-20.394,10.74-31.71,12.93C136.595,162.555,143.505,157.243,149.449,150.598z"/>
<path fill="none" stroke="#000000" stroke-miterlimit="10" d="M159.308,131.87c-2.79-3.693-5.58-7.386-8.565-11.339
	c4.555,0,8.795,0,13.431,0c-1.476,3.914-2.883,7.648-4.29,11.385C159.69,131.901,159.498,131.886,159.308,131.87z"/>
<path fill="none" stroke="#000000" stroke-miterlimit="10" d="M173.293,47.286c-5.01,0-10.019,0-15.026,0
	c-0.061-0.106-0.12-0.214-0.181-0.319c2.922-1.974,5.845-3.946,8.968-6.055c2.189,2.008,4.351,3.987,6.51,5.967
	C173.473,47.015,173.384,47.15,173.293,47.286z"/>
</svg>
